<?xml version="1.0" encoding="UTF-8" standalone="no"?>
<!-- Generator: Adobe Illustrator 22.1.0, SVG Export Plug-In . SVG Version: 6.00 Build 0)  -->

<svg
   version="1.1"
   x="0px"
   y="0px"
   viewBox="0 0 734.1 521.8"
   xml:space="preserve"
   id="svg144"
   sodipodi:docname="maglab_new.svg"
   inkscape:export-filename="maglab_neu.svg"
   inkscape:export-xdpi="200"
   inkscape:export-ydpi="200"
   style="enable-background:new 0 0 734.1 521.8;"
   inkscape:version="1.3.2 (091e20ef0f, 2023-11-25)"
   xmlns:inkscape="http://www.inkscape.org/namespaces/inkscape"
   xmlns:sodipodi="http://sodipodi.sourceforge.net/DTD/sodipodi-0.dtd"
   xmlns="http://www.w3.org/2000/svg"
   xmlns:svg="http://www.w3.org/2000/svg"><defs
   id="defs144" /><sodipodi:namedview
   id="namedview144"
   pagecolor="#ffffff"
   bordercolor="#666666"
   borderopacity="1.0"
   inkscape:showpageshadow="2"
   inkscape:pageopacity="0.0"
   inkscape:pagecheckerboard="0"
   inkscape:deskcolor="#d1d1d1"
   inkscape:zoom="1.4368708"
   inkscape:cx="379.99241"
   inkscape:cy="242.88892"
   inkscape:window-width="1920"
   inkscape:window-height="1042"
   inkscape:window-x="0"
   inkscape:window-y="0"
   inkscape:window-maximized="1"
   inkscape:current-layer="svg144" />
<style
   type="text/css"
   id="style1">
	.st0{fill:#FFFFFF;stroke:#000000;stroke-width:3;}
	.st1{fill:#FFFFFF;stroke:#010202;stroke-miterlimit:10;}
	.st2{stroke:#000000;}
	.st3{fill-rule:evenodd;clip-rule:evenodd;fill:#FFFFFF;}
	.st4{fill-rule:evenodd;clip-rule:evenodd;}
</style>




<g
   id="g145"
   transform="translate(-18.1,-0.8290087)"><g
     id="ring">
	<path
   class="st0"
   d="M 623.5,361.5 C 584.4,454.6 492.4,520 385.1,520 251,520 140.7,417.8 127.9,287.1 v 0 c -37,-20.6 -47.5,-51.4 -47.5,-51.4 -10.6,-6.6 -11.2,-3.1 -15.3,-9.9 -2.2,-2.9 -2.2,-4.5 -2.2,-4.5 0,0 15.8,3 22.3,-1.8 0,0 21.8,-11.4 38,-13.2 1.5,-0.2 4.1,-0.7 7.8,-1 l 1.8,-0.1 C 158.4,89.5 261.7,3 385.1,3 c 142.8,0 258.5,115.7 258.5,258.5 0,15.7 -1.4,31 -4.1,45.9 l -1.8,3.9 c -8.9,1.6 -16.5,2.6 -19.6,3 -16.4,0.7 -30.4,1.1 -43,1.2 l 3.3,-7.8 c 4,-15.7 6.1,-32.2 6.1,-49.2 0,-110.5 -89.5,-200 -200,-200 -95.2,0 -174.8,66.5 -195,155.5 l 12.6,4.3 c 14.2,7.1 26.7,14.2 29,14.9 2.2,0.8 22.1,-4.4 31.5,-2.9 10.9,-0.4 43.6,8 48.5,11 0,0 32,23.6 73.2,36.1 120.3,36.4 133.8,40.9 233.8,36.9 9.5,-1.2 61,-8 64,-21.5 -3.4,-6.5 -18.5,-11.4 -39.2,-14.8 l 0.5,-17.2 c 118.2,2.8 87,38 74.7,51 -21.8,23.1 -92.5,56 -205.5,61.9 -34.7,1.8 -60,0.3 -134.5,-18.9 -61.6,-15.9 -44.5,-6.5 -98.5,-3.5 -66.5,-2.5 -89.2,-44.5 -89.2,-44.5 21.6,87.1 100.3,151.6 194.1,151.6 66.6,0 125.5,-32.5 161.9,-82.5 l 4.2,-5.4 c 28.1,-3.2 53,-8.1 74.5,-13.9 z"
   id="path1" />
	<path
   class="st0"
   d="m 583.9,272.5 c -3.7,-0.1 -6,-0.2 -9.4,-0.2 l 0.1,-10 c 3.7,-0.2 6.1,-0.3 9.7,-0.5 z"
   id="path2" />
</g><g
     id="outer_globe">
	<path
   class="st1"
   d="m 564.3,315.5 c -56.7,-0.5 -85.2,-9.4 -180,-38.1 -41.2,-12.5 -73.2,-36.1 -73.2,-36.1 -5,-3 -37.7,-11.4 -48.5,-11 -9.4,-1.5 -29.2,3.7 -31.5,2.9 -2.2,-0.8 -14.8,-7.8 -29,-14.9 l -4.2,-1.4 1.2,-3.1 c 21.4,-95.6 113,-160.3 211.8,-146.4 5.9,0.8 11.6,1.9 17.3,3.2 l 0.5,3.6 -16.9,-2.4 -6.7,7.4 23.6,3.6 0.1,5.5 1.3,9.1 13.6,1.9 0.5,5.5 -37.9,-4.6 -1.1,7.8 29.4,4.1 -1.4,6.7 -3.6,-0.8 0.6,6.9 19.1,2.7 -0.4,2.7 -18.8,-2.1 -0.2,5.9 35.9,5 -1.3,9.4 -9.9,-1.4 -0.8,5.9 -14.5,-2 -0.6,4 -15.8,-2.2 -1.4,5.2 -20.7,-2.2 -0.6,4 33.8,4.7 -0.9,6.6 33.4,4.7 -1.1,7.9 25.5,2.4 -0.9,6.5 -64.7,-9.1 -1.2,7.2 -20.4,-2.2 -1.5,5.9 57.2,7.7 -0.9,6.1 13.6,1.6 -0.8,5.9 15.2,3.3 1,-7 13.7,1.9 -0.7,5 5.3,0.7 1.4,-9.8 3.4,-0.2 -1.5,10.5 4.6,0.6 -1.4,10.2 6.9,-0.9 1.9,-13.4 4.6,0.6 2.6,-18.7 5.4,0.1 -3.6,25.3 6.4,1.8 1,-6.9 4.7,0.7 0.7,-4.9 9.4,0.4 0.4,-3.1 8.1,-0.2 -0.7,5.3 -0.3,0.8 -0.4,2.9 12.5,2 c 3.3,19 3.8,38.9 0.9,59 -1.5,10.4 -3.7,20.5 -6.8,30.2 z"
   id="path3" />
	<path
   class="st0"
   d="M 385.1,520"
   id="path4" />
	<path
   class="st1"
   d="M 532.7,374.3 C 492.2,424.8 426.8,453.2 358,443.6 289.2,434 234.3,388.6 209.2,329 l -1.7,-2.9 c 13.8,11.4 36.7,23.9 72.1,25.2 54,-3 36.9,-12.4 98.5,3.5 74.5,19.2 99.8,20.7 134.5,18.9 7.1,-0.4 14,-0.8 20.7,-1.4 z"
   id="path5" />
</g><g
     id="inner_globe">
	<g
   id="g93">
		<path
   class="st2"
   d="m 210,222 c -0.2,-1.7 -0.3,-2.8 -0.3,-2.8 0.2,0 0.4,0.1 0.6,0.1 0.8,-1 0.7,-2 0.5,-3.1 l 0.3,0.2 c 0,0 0,0 0,0 0.2,0 0.3,-0.3 0.3,-0.4 0.1,-0.2 0.1,-0.4 0.2,-0.7 0.1,-0.2 0.2,-0.4 0.3,-0.6 0,-0.1 0,-0.2 0,-0.2 0,0 -0.1,0 -0.1,-0.1 -0.2,-0.1 -0.3,0 -0.4,0.1 -0.2,0.4 -0.2,0.8 -0.3,1.2 0,0.2 -0.1,0.2 -0.2,0.2 0,0 -0.1,0 -0.1,0.1 v 0 c -0.1,-0.8 -0.1,-1.6 0.1,-2.3 -0.8,-1.2 -0.8,-1.2 -1.5,-1.7 -0.3,0.2 -0.8,0.3 -1.1,0.4 -1.3,-1.1 0.4,-3.5 -1.6,-4.2 0,-1.5 1.2,-7.7 1.2,-7.8 -0.4,0.5 -0.4,0.5 -0.9,2 -0.1,0 -0.1,0 -2.7,5.3 -0.7,-3.9 3.6,-6.1 3.4,-9.9 -0.5,0.5 -0.8,1 -1.4,1.5 -0.1,-0.1 -0.3,-0.3 -0.4,-0.4 -0.1,0.1 -0.3,0.3 -0.4,0.4 -0.1,0 -0.1,0 -0.1,0 0,-0.2 0,-0.4 0,-0.6 -1.5,1.4 -1.5,3.6 -2.6,5.2 -0.1,-1.8 0.7,-3.4 1,-5 0,-0.1 0,-0.1 0,-0.1 v 0 c 0,-0.2 0,-0.4 0.1,-0.7 0,0 0,0 0,0 v 0 c 0,-0.1 0.1,-0.3 0.1,-0.4 -0.3,0.4 -0.3,0.9 -0.5,1.4 l -0.4,1.3 v 0.1 c -0.4,1.4 -1,3.4 -1,3.6 0,-0.1 0.1,-0.1 0.3,-1 0.2,-0.7 0.5,-1.7 0.5,-1.8 0,0 0,0.1 0,0.1 0.1,-0.1 0.1,-0.2 0.1,-0.3 0,0 0,0 0,0 v 0 c 0,0 0,0 0,0 v 0 c 0.1,-0.2 0.1,-0.5 0.3,-0.8 0,0.2 -0.1,0.4 -0.1,0.6 -1.2,5.5 -2.9,10.8 -4.2,16.3"
   id="path6" />
		<path
   class="st2"
   d="m 208.4,326.6 c 3.8,12.3 8.7,19.7 19.2,36.1 v 0 c 1.1,1.6 1.3,1.9 2.1,2.5 -1.8,-4 -4.7,-7.3 -6.8,-11.2 0,0.1 3,4.8 4.9,6 0,-0.6 0,-0.6 -1.2,-4.6 0.1,-0.1 0.2,-0.2 0.3,-0.3 -0.2,-5.2 -3.8,-10 -2,-15.4 2.6,-0.5 2.6,-0.5 2.7,-0.6 1.9,-0.4 2.6,1.4 3.9,2 0.2,-0.5 -13.7,-6.3 -13.5,-6.8 0,0.2 -10.2,-9.6 -9.6,-7.7 z"
   id="path7" />
		<path
   class="st2"
   d="m 376.1,72.9 c -0.7,0 -0.9,0 -1.1,0.1 0,0 0,0.1 0.3,0.1 0.3,0 2.8,0 2.8,0 0.2,0 0.3,0 0.3,-0.1 0.4,-0.1 0.7,0.1 1.1,0 0,0 0,0 0,0 -0.2,-0.1 -0.4,0 -0.5,-0.1 0.7,0 1.4,0.2 2,-0.1 0,0 0,0 0.1,0 0,-0.1 0,-0.1 0,-0.1 0,0 0,0 0,0 -0.8,-0.3 -1.7,0.3 -2.5,0 0,0 0,0 0,0 0,0 0,0 0,0 0,0 0,0 0,0 0,0 0,0 0,0 0,0 0,0 0,0 0,0 0,0 0,0 -0.2,-0.1 -0.8,-0.1 -1,0.1 0,0 0,0 0,0.1 0,0 -0.1,0 -0.1,0.1 -0.3,0.1 -0.6,0.2 -0.9,0.3 0.1,-0.4 -0.1,-0.4 -0.5,-0.4 z"
   id="path8" />
		<path
   class="st2"
   d="m 317,91.7 c 1.3,-0.4 1.3,-0.4 4.1,-2.3 0.2,-0.3 0.2,-0.3 0.2,-0.3 -0.1,-0.1 -0.4,-0.3 -0.6,-0.3 0.2,-0.7 0.7,-1.2 1,-1.9 -1.1,-0.1 -12,3.8 -12.9,4.6 -1.4,1.2 -7.2,4.6 -10.1,3.7 -0.7,0.2 -1.4,0.5 -2,0.8 0.6,-0.3 1.2,-0.6 1.8,-0.9 v 0 c -0.1,-0.1 -0.2,-0.2 -0.5,0 -0.7,0.4 -1.4,0.8 -2.1,1.2 -2.4,1.3 -4.8,2.4 -7.1,3.8 l 0.1,-0.2 c 0.2,-0.1 0.3,-0.3 0.5,-0.4 -0.4,0 -0.8,0.1 -1.2,0.3 1.4,-1.7 3.2,-2.8 5.1,-3.7 0,0 0,0 0,0 -0.1,0.1 -0.2,0.2 -0.2,0.3 0,0 0,0 -0.1,0.1 -0.1,0.1 -0.1,0.1 -0.2,0.2 -0.2,0.2 -0.2,0.2 -0.2,0.2 0,0 0,0 0,0 0,0 0.1,0 0.1,0 0.2,-0.1 0.9,-0.5 1.1,-0.7 0,0 0.1,-0.2 0.2,-0.4 2.1,-1 4.2,-1.9 6,-3.3 0.2,-0.3 0.2,-0.3 0.2,-0.3 1.6,-4 7.4,-3 8.7,-7.3 8.8,-4.3 11.4,-4.6 16.6,-5.2 0.1,0.1 0.2,0.4 0.3,0.5 1.1,-0.2 1.2,-0.3 1.9,-0.7 0.1,0.1 0.3,0.3 0.5,0.4 0,0.2 0,0.4 0,0.6 1.5,-0.1 7.4,-1.2 7.4,-1.2 -0.3,0.6 -0.9,0.8 -1.3,1.2 0.8,-0.1 0.8,-0.1 2,-0.7 -0.5,0.4 -0.5,0.4 -1.8,0.9 0.6,0.3 6.5,0.2 11,-2.4 -0.4,-0.1 -0.4,-0.1 -5.3,0.5 0.2,-0.1 0.4,-0.2 0.5,-0.3 -0.9,0 -1.7,0.3 -2.5,0.4 1.7,-2 4.3,-1.1 6.4,-1.8 -1,-0.1 -1,-0.1 -2.3,0 4.5,-1.6 12.4,-2.4 15.1,-2.7 -0.2,0.1 -0.4,0.2 -0.6,0.4 2,0.6 2,0.6 4.9,-0.4 -0.1,-0.1 -0.3,-0.3 -0.4,-0.4 -6.8,0.7 -13.6,0.6 -20.3,1.8 1.3,-0.8 2.9,-0.8 4.4,-1.1 0.1,0.1 0.3,0.3 0.5,0.4 1.3,-0.3 3.7,-0.9 3.7,-0.9 -0.9,-0.2 -0.9,-0.2 -5.3,0.4 0.9,-1.2 4.8,-2.1 5.2,-2.1 L 349.1,72 c -0.8,0.1 -0.8,0.1 -2.4,0.4 0.2,0 0.4,-0.1 0.6,-0.1 0.3,0 0.3,0 0.3,0 0,0 0,0 0,0 0,0 0,0 0,0 3.1,-0.7 4.8,-1.1 6.7,-1.4 -0.8,0.2 -1.1,0.5 -1.4,0.7 0.1,0 0.1,0 0.2,0.1 -0.2,0.1 -0.4,0.1 -0.5,0.2 0.3,0 0.6,0 0.9,0.1 -0.4,0.2 -0.9,0 -1.3,0.2 0,0 0.1,0 0.1,0 -0.9,0.2 -2.6,0.7 -2.8,0.9 0,0 0,0.1 0,0.1 0,0 0.1,0 0.1,0 0,0 0,0.1 0,0.1 0,0 1,-0.1 1.2,-0.3 -0.1,0 -0.2,0 -0.3,0 0.5,-0.1 1,-0.2 1.5,-0.2 -0.7,0.2 -0.7,0.2 -0.7,0.2 0.3,0 0.6,-0.2 0.8,0 -0.2,0.1 -0.5,0 -0.7,0.2 0.1,0 0.2,0 0.2,0 -0.2,0.1 -0.5,0 -0.7,0.2 0.1,0 0.3,0 0.6,0 0.3,0 2.6,-0.6 2.6,-0.6 0,0 -0.1,0 -0.1,-0.1 0.1,0 0.2,0 0.6,-0.1 1.2,-0.2 1.2,-0.2 4.5,-0.5 2.9,-0.3 3.2,-0.2 4,-0.1 0.2,0 0.6,0.1 1.2,0 0,0 0,0 0,0 v 0 c 0,0 0,0 0,0 0.2,0 0.5,0 0.7,-0.1 0,0 0,-0.1 0.1,-0.1 0.1,0 0.1,-0.1 0.2,-0.1 -0.9,-0.4 -1.7,0.2 -2.5,0.1 0.1,0 0.4,-0.1 1,-0.2 0.3,0 1,-0.2 1.1,-0.3 -0.3,0 -2.9,0 -3.8,0.1 -0.4,0 -0.7,0.1 -0.9,-0.1 1.8,-0.3 3.6,0.3 5.3,-0.5 -0.4,0 -0.8,0 -1.7,0.1 0,0 0,-0.1 -0.1,-0.1 0.5,-0.1 0.5,-0.1 0.5,-0.2 0,0 0,-0.1 -0.1,-0.1 0.9,-0.4 1.9,0.2 2.8,-0.3 -0.4,-0.1 -0.4,-0.1 -0.5,-0.1 0.8,-0.2 1.6,0.1 2.4,-0.1 0,-0.1 0,-0.2 0,-0.2 0.3,-0.2 0.3,-0.2 0.3,-0.2 0,0 -0.1,0 -0.1,0 0,0 0,0 0,0 0,0 -0.1,-0.1 -0.1,-0.2 -0.3,0 -0.5,0 -0.8,0 0,0 0,-0.1 0.1,-0.1 -1,-0.2 -2.5,0.2 -2.7,0.2 v 0 0 0 0 c 0,0 0,0 0,0 v 0 0 c 0,0 0,0 0,0 0,0 0,0 -0.1,0 -0.8,0.2 -0.8,0.2 -0.9,0.2 0.2,-0.1 0.2,-0.1 0.2,-0.2 0.6,-0.2 0.6,-0.2 0.6,-0.2 -0.2,-0.1 -0.2,-0.1 -3.2,0.5 v 0 0 c -1.8,0.6 -2.5,0.6 -2.7,0.6 0,0 0,-0.1 0,-0.1 0.9,-0.4 2,-0.1 2.8,-0.9 -0.9,0 -3.2,0.4 -4.9,0.6 2,-0.4 4.5,-0.8 8.5,-1.5 h -0.3 c -1.3,0 -2.6,0 -3.9,0.1 1.3,-0.1 2.6,-0.2 3.9,-0.2 0.9,-0.1 1.9,-0.1 2.8,-0.2 -0.3,-0.1 -0.3,-0.1 -0.8,-0.1 0.4,-0.1 0.4,-0.1 3.9,-0.2 h -0.3 c 0.3,-0.2 0.3,-0.2 1.2,-0.2 -0.1,0 -0.2,0 -0.3,0 0.4,0.1 2.5,-0.2 4.5,-0.4 -0.1,0 -0.2,0 -0.3,0 0.2,0 0.7,0 1.3,-0.1 -2.8,0.1 -3.9,0.1 -6.7,0.3 -8.8,0.8 -9.4,0.8 -14.5,1.6 l -1.4,0.2 c -0.4,0.1 -0.9,0.1 -1.3,0.2 -3.2,0.6 -7,1.4 -10.6,2.1 -0.4,0.1 -0.8,0.2 -1.3,0.3 0.2,0 0.4,-0.1 0.5,-0.1 -0.9,0.2 -1.8,0.4 -2.7,0.6 0,0 -0.1,0 -0.1,0 0,0 -0.1,0 -0.1,0 0.4,0 0.7,-0.1 1,-0.2 -0.7,0.3 -1.4,0.3 -2.1,0.5 0,0 0,0 0,0 v 0 c -0.1,0 -0.5,0.1 -0.5,0.1 -0.4,0 -0.7,0.2 -1.1,0.3 0.2,-0.1 0.4,-0.1 0.6,-0.2 -0.1,0 -0.1,0 -0.7,0.2 -3.4,1 -6,1.7 -8.3,2.4 0,0 0,0 0,0 0.2,0 0.4,-0.1 0.5,-0.1 -0.4,0.2 -0.9,0.3 -1.3,0.4 0,0 0,0 0,0 -0.1,0.1 -1.3,0.5 -1.3,0.5 0.5,-0.3 1.1,-0.4 1.6,-0.7 -0.1,0 -0.1,0 -0.2,0 -4.5,1.3 -7.7,2.5 -13.9,4.9 -9.3,4.1 -20.8,9.1 -33.7,17.6 -14,10 -21.7,15.5 -36.8,31.7 l -2.4,2.7 c 0.1,-0.1 0.1,-0.1 0.2,-0.2 0,0 -1.9,2.7 -2.4,3.4 -0.4,0.7 -1.1,1.3 -1.5,2 0.1,0 0.3,-0.1 0.4,-0.2 0,0.1 0,0.1 0,0.1 v 0 c 0,0 -2.6,3.9 -4,5.4 -2.3,2.4 -6.5,9.5 -6.5,9.5 0,0 0,0.1 0.1,0.1 0.3,-0.2 1.4,-1.5 2.3,-2.7 3,-3.8 5.5,-8 8.8,-11.7 1.3,-1.4 1.3,-1.4 5,-3.9 l 0.3,-0.2 c 0.1,-0.1 0.3,-0.1 0.4,-0.2 0,0.1 0.1,0.3 0.1,0.4 0.6,-0.3 1.2,-0.8 1.8,-1 0,0.1 0.1,0.2 0.1,0.3 0.4,-0.2 0.4,-0.2 0.6,-0.8 0.3,-0.1 0.3,-0.1 1.1,-1.2 -0.1,0.2 -0.2,0.5 -0.2,0.8 1.2,-0.1 1.3,-0.9 1.4,-1.6 0,0 1.2,0.1 2.8,-2.9 -0.1,0.2 -0.2,0.5 -0.4,0.7 0.8,-0.7 2.1,-2.3 2.1,-2.3 -0.2,0.3 -0.4,0.7 -0.7,1 0.2,-0.1 0.2,-0.1 1.6,-1.9 0.1,-0.2 0.1,-0.2 0.1,-0.2 -0.1,0.2 -0.2,0.5 -0.3,0.7 0.7,-0.4 3.8,-3 3.8,-3 -1.7,2.1 -3.9,3.6 -5.8,5.5 2.6,-1 3.5,-4.1 6.2,-4.9 -1.7,1.4 -1.7,1.4 -1.9,1.9 1.7,-0.1 2.4,-1.6 3.6,-2.4 0,0.1 0,0.3 0,0.4 0.6,0.4 0.6,0.4 1,0.3 0,-0.2 -0.2,-0.5 -0.3,-0.7 0.1,-0.1 0.2,-0.2 0.2,-0.3 1,0 1.2,0 1.3,0.8 0.1,0 0.3,0.1 0.4,0.1 0.1,-0.1 0.2,-0.1 0.3,-0.2 0,0.1 -0.1,0.3 -0.1,0.4 0.1,0 0.3,0 0.4,0 0,0.1 0,0.3 0,0.4 0.4,-0.1 0.4,-0.1 2.8,-2.4 1.3,-1.2 3.1,-1 4.6,-1.7 -0.1,0.1 -0.1,0.2 -0.2,0.3 0,0.1 0,0.1 0,0.1 2.2,0.4 2.6,-0.3 3.1,-1.1 -0.1,0.2 -0.2,0.5 -0.3,0.7 0.4,0.2 0.4,0.2 1.4,-0.2 l -0.3,0.3 c 0.1,0.1 0.2,0.2 0.3,0.3 0.4,0 0.8,0 1.2,0 0.1,0.1 0.1,0.1 0.1,0.1 0.1,0 0.3,0 0.4,-0.1 -0.1,0.1 -0.2,0.2 -0.2,0.3 0,0 -3.9,0 -6.2,3.3 0.7,0.2 0.9,0.3 3.8,-1.1 0,0.1 0,0.3 0.1,0.4 0.7,0.3 0.7,0.3 0.9,0.7 0.1,0 0.1,0 1.9,-1.1 -0.1,0.2 -0.2,0.5 -0.3,0.8 1,0.5 1.9,-0.1 2.9,0 0.1,0 0.1,0 0.1,0 0.1,0 0.3,0 0.4,0 0.1,-0.1 0.2,-0.2 0.2,-0.3 -0.1,-0.3 -0.1,-0.3 1.6,-1.8 -1.4,0.2 -2.7,0.9 -4.2,1.1 -0.1,0 -0.1,0 -0.1,0 -0.1,-0.1 -0.2,-0.1 -0.3,-0.2 0.1,-0.1 0.2,-0.1 0.3,-0.2 0.1,0 0.3,0.1 0.4,0.1 0.1,-0.1 0.1,-0.2 0.2,-0.3 -0.1,-0.2 -0.1,-0.5 -0.1,-0.7 0,-0.1 0,-0.1 0,-0.1 v 0 c 0,-0.1 0,-0.3 0,-0.4 0.1,-0.1 0.2,-0.2 0.3,-0.2 0.3,-0.2 0.3,-0.2 0.3,-0.2 v 0 c -0.1,-0.2 -0.3,-0.5 -0.3,-0.7 1.5,-1.7 1.5,-1.7 1.6,-1.7 0.1,-1.2 1.4,-1 2,-1.6 0,-0.1 0,-0.3 0,-0.4 -0.2,0 -0.5,-0.1 -0.7,0 0.1,-0.2 0.3,-0.5 0.5,-0.7 0,-0.1 0,-0.1 0,-0.1 v 0 0 c 0,0 0,0 0,0 v 0 c 0,-0.1 0,-0.3 0,-0.4 0.1,0 0.2,0 0.4,0 0.1,0.2 0.3,0.4 0.3,0.7 1.9,0.1 2,-0.1 2.5,-0.8 0.1,0 0.3,0 0.4,-0.1 1.7,-2.9 -3.6,-2.3 -4.4,-2 -3,0.9 -3,0.9 -3.5,1 0,0 4.6,-1.9 6.4,-2.2 0.2,0 0.2,0 0.2,0 0.2,0 0.5,-0.1 0.8,-0.1 0,0 0,0 0,0 v 0 c 1.3,0.5 2.3,-1.2 3.6,-0.3 0,0 1.5,2.2 1.4,3.6 0.8,0.2 1.6,0.8 2.5,0.6 0.7,-0.1 3,-0.2 3,-0.2 0.5,0.1 0.5,0.1 1.1,0.5 3,-0.7 3,-0.7 3.7,-1.1 l 2.8,-2.8 c -0.4,-0.1 -0.4,-0.1 -1.2,0.1 0.5,-0.6 1.3,-0.9 1.8,-1.5 -0.1,-0.1 -0.2,-0.2 -0.3,-0.2 0,-0.1 0.1,-0.2 0.1,-0.4 0.8,0.2 0.8,0.2 1.1,0.1 0.1,-0.2 0.3,-0.5 0.4,-0.7 -0.1,-0.2 -0.3,-0.4 -0.5,-0.5 0.1,-0.4 0.4,-0.6 0.6,-1 -0.1,-0.2 -0.1,-0.5 -0.1,-0.7 1.3,-1.1 1.3,-1.1 1.5,-1.8 -0.1,0 -0.3,-0.1 -0.4,-0.1 1.6,-0.9 3.8,-2.4 3.8,-2.4 1.7,-0.4 2.5,-2 3.8,-2.9 1.5,-1 2.8,-2.3 4.3,-3.2 -2.1,0 -4,1 -6.1,1.2 -0.1,0 -0.1,0 -0.1,0 0,0 0,0 0,0 v 0 0 c -0.2,0 -0.5,0 -0.7,0 0.9,-1.1 0.9,-1.1 1.3,-1.4 0,-0.1 0,-0.3 0,-0.4 0.7,-0.6 3.2,-1.7 6.1,-2.8 -0.2,-0.1 -0.6,-0.1 -0.8,-0.1 0.2,-0.1 0.5,-0.3 0.8,-0.4 0.1,-0.1 0.1,-0.1 0.1,-0.1 0,0 0,0 0,0 0.1,-0.1 0.2,-0.2 0.2,-0.3 v 0 c -0.3,0 -0.6,0.1 -0.8,0.1 -0.4,-0.5 -0.3,-0.6 -0.3,-0.7 z m 37.3,-22.4 c -0.1,0 -0.1,0 -0.1,0 1.2,-0.2 1.4,-0.2 2.4,-0.3 -0.2,0 -0.4,0.1 -0.6,0.1 0.6,-0.1 0.6,-0.1 1.8,-0.3 0.1,0 0.1,0 0.1,0 -0.3,0 -0.5,0.1 -0.8,0.1 0.4,-0.1 0.8,-0.1 1.2,-0.1 0.4,-0.1 0.8,-0.2 1.3,-0.2 0.1,0 0.1,0 0.1,0 -0.3,0.1 -0.5,0.1 -0.8,0.1 -5,1 -5,1 -6.3,1.1 0.5,-0.2 1.1,-0.4 1.7,-0.5 z m -87.6,46.3 c -0.1,-0.4 -0.1,-0.4 0.3,-1.1 0,-0.1 -0.1,-0.3 -0.1,-0.4 -0.6,0 -1,0.3 -1.3,0.6 -0.1,0.1 -0.2,0.2 -0.2,0.3 l -0.3,0.1 c -1.2,0.3 -1.2,0.3 -1.7,-0.1 -0.2,0.1 -0.4,0.1 -0.6,0.2 -0.1,-1.3 1.4,-2.1 1.8,-2.3 l -0.4,0.4 c 0.4,0.1 0.9,0.1 1.2,0 -0.1,0.2 -0.1,0.4 -0.2,0.6 0.1,0.1 0.3,0.3 0.4,0.4 0.3,0.1 0.7,-0.2 1.1,-0.5 0,-0.2 0.1,-0.4 0.1,-0.6 0.3,-0.2 0.8,-0.2 1.1,-0.3 0.5,0.6 0.6,0.7 0.1,1.3 0.2,-0.1 0.5,-0.2 0.7,-0.2 -0.6,1.6 -1.6,1.6 -2,1.6 z m 8.2,-9.4 c 0,0.1 0,0.1 0,0 v 0 c -0.1,0.2 -0.6,0.8 -0.6,0.8 -0.3,0.3 -0.4,0.7 -0.4,0.8 -0.1,0.2 -2.9,2.6 -3,2.6 0,0 0,0 0,0 0,-0.1 0,-0.1 0,-0.2 -0.3,0.2 -0.5,0.5 -0.8,0.7 0,0 0,0 0,-0.1 0.1,-0.4 0.4,-0.5 0.6,-0.8 v 0 c 0.1,-0.2 0.9,-0.9 1.2,-1.1 0.3,-0.2 0.4,-0.3 0.4,-0.5 0,0 0,0 0,0 -0.2,0.1 -0.4,0.3 -0.4,0.3 -0.3,0.4 -1.4,1.1 -1.4,1.1 -0.4,0.2 -0.9,0.4 -1.3,0.6 -0.6,0.4 -1.2,0.9 -1.8,1.3 -0.1,0.1 -0.4,0.2 -0.6,0.2 0,0 0,0 0,-0.1 0.1,-0.1 0.2,-0.2 0.9,-0.7 0.9,-0.7 1.6,-1.3 1.8,-1.5 0,0 0,0 -0.1,-0.1 -0.3,0 -0.5,0.2 -0.8,0.2 0,0 0,0 0,-0.1 0.1,-0.1 0.5,-0.5 0.8,-0.6 1.2,-0.2 5.1,-3.3 5,-3.9 -0.4,-0.2 -0.5,0.4 -0.9,0.5 0,0 0,0 0,0 0,0 0,0 -0.5,0.3 0.1,-0.1 0.1,-0.2 0.2,-0.2 v 0 c 0,0 -0.4,0.1 -0.9,0.3 -0.1,0 -0.1,0 -0.1,0 -0.1,0 -0.1,0 -0.4,0.2 -0.7,0.5 -1.5,0.9 -2.2,1.4 -4.2,3.1 -4.2,3.1 -4.6,3.2 0,0 0,0 -0.1,0 0.2,-0.5 4.1,-3.4 5.1,-4 0.7,-0.4 1.4,-0.9 2.1,-1.3 0.7,-0.4 1.5,-0.7 2.2,-1.2 -0.6,0 -1.1,0.5 -1.7,0.7 0.3,-0.3 2.7,-1.4 2.7,-1.4 0,0.1 0,0.1 -0.4,0.5 0.1,0 0.1,0 0.5,-0.2 0,0.2 -0.1,0.2 -0.2,0.4 0,0 0,0 0,0.1 0,0 0.1,0 0.1,-0.1 0,0 0,0 0,0 -0.2,0.3 -0.5,0.5 -0.8,0.8 0,0 0,0 0,0 0,0 0.1,0 0.1,0 0,0 0,0 0,0.1 -0.6,1 -1.4,1.8 -2,2.7 0,0 0,0 0.1,0 1,-0.3 1.2,-1 1.5,-1.7 0,0 0,0 0,0 v 0 c 0.2,-0.4 0.9,-0.9 0.9,-0.9 0.3,0.3 -0.1,0.5 -0.2,0.9 z m 7.4,-6.5 c -1.3,0.8 -1.8,1.2 -1.8,1.4 0.1,0.1 -0.2,0.4 -0.2,0.4 -0.2,0.2 -0.5,0.2 -0.7,0.3 -0.3,0.2 -0.6,0.5 -0.9,0.7 -0.3,0.2 -0.7,0.3 -1,0.6 -0.2,0.1 -0.2,0.3 -0.4,0.4 -0.7,0.4 -0.7,0.4 -1,0.5 0,0 0,0 0,0 0.1,-0.5 0.8,-0.4 1,-0.8 0,0 0,0 0,0 -0.1,0 -0.2,0 -0.3,0 0.1,-0.2 0.3,-0.2 0.3,-0.4 0,-0.1 -0.1,-0.2 -0.1,-0.3 0,-0.1 0.2,-0.1 0.2,-0.2 0,0 0,-0.1 0,-0.1 0.4,-0.5 0.9,-0.7 1.4,-1.1 0.1,-0.1 0.1,-0.3 0.3,-0.4 0,0 0,0 0,0 0.2,-0.2 0.8,-0.4 1.1,-0.4 0.1,0 0.2,-0.2 0.3,-0.3 0,0 0,0 0,0 -0.3,0 -0.6,0.2 -0.9,0.2 0,0 0,0 0,0 0,-0.1 0,-0.1 0.1,-0.2 0,0 0,0 0,0 0,0 0,0 0,0 0,0 0,0 0,0 0,0 0,-0.1 0,-0.1 -0.1,0 -0.2,0.1 -0.3,0.1 0,0 0.3,-0.4 0.8,-0.7 0.3,-0.2 0.5,-0.3 0.5,-0.4 0,0 0,0 0,0 0,0 -0.1,0 -0.1,0 0,0 0,0 0,0 0.3,-0.5 1.5,-0.7 1.9,-0.8 0,0 0,0 0,0 0,0 -0.1,0.1 -0.1,0.1 0.1,0.1 0.6,0.1 1,-0.2 0.2,-0.1 0.2,-0.1 0.3,-0.1 0,0 0,0 0,0 -0.1,0.1 -0.3,0.2 -0.5,0.3 0.3,0.1 0.5,-0.3 0.8,-0.1 -0.1,0.2 -0.3,0.7 -1.7,1.6 z"
   id="path9" />
		<path
   class="st2"
   d="m 296.4,116 -1.2,0.1 c -2.3,0.8 -4.5,2.2 -6.8,3 -0.1,0 -0.1,0 -0.2,0 -0.1,0 -0.1,0 -0.9,0.3 -0.3,0.1 -0.7,0 -1,0.1 -0.2,0.1 -0.2,0.1 -0.2,0.2 0,0 0,0 0.4,0.1 0.1,0 0.5,0.6 -0.2,0.5 0,0 -1.6,0.1 -2.1,0.5 -0.2,0.2 -0.8,0.7 0.4,1 0.7,0.1 0.2,1 0.5,1.4 0.3,0.4 0.9,0.4 1.1,0.4 0.2,0.4 -0.4,0.5 -0.3,0.9 0.4,0.1 0.6,-0.6 0.9,-0.3 0.2,0.2 0.1,0.7 -0.5,0.8 -1.6,0.1 -1.6,0.4 -1.5,0.8 0,0 0,0 0.1,0 0.2,-0.1 0.3,-0.2 0.5,-0.3 0,0 0,0 0,0 0.3,0 0.6,-0.4 0.9,-0.2 0,0 0,0.1 0,0.2 0.2,0 0.6,-0.1 1.5,-0.5 0,0 0,0 0,0 -0.3,0.6 -0.8,1 -1.6,1.4 -0.5,0.2 -0.7,0.3 -0.8,0.5 0.3,0.1 0.5,-0.2 0.8,0 -0.1,0.5 -0.7,0.4 -0.9,0.8 0.2,0.1 0.1,0.3 0.1,0.5 0.3,0.1 3.1,-1.7 3.1,-1.7 0.6,-0.4 0.6,-0.6 0.6,-0.6 0,0 0,0 0,0 -0.4,0.1 -0.6,0.3 -1,0.4 0,0 0,0 -0.1,0 0.4,-0.6 1.3,-0.3 1.6,-1 -0.1,0 -1,0.1 -1.4,0.4 -0.3,0.2 -0.3,0.2 -0.5,0.1 v 0 c 0,0 0,0 0,-0.1 0.1,-0.3 0.4,-0.4 0.4,-0.4 0.4,-0.1 0.7,-0.4 1,-0.5 0.4,-0.2 0.9,-0.1 1.3,-0.3 0.1,-0.1 0.4,-0.2 0.5,-0.4 -0.1,-0.1 -0.1,-0.1 -1.1,-0.2 0,0 0,0 0,-0.1 1.1,-1.1 1.1,-1.1 1.6,-1.1 0.1,0 0.4,0 0.7,-0.4 0.2,-0.3 -0.2,-0.5 -0.1,-0.8 0.1,-0.2 0.5,-0.1 0.6,-0.4 -0.4,-0.4 -0.6,-0.3 -0.9,-0.1 -0.2,0.1 -0.5,0.2 -0.7,0.1 0.1,-0.4 -0.1,-0.8 0.2,-1.1 0.2,-0.3 0.6,-0.2 0.9,-0.4 0.1,0 0.2,-0.3 0,-0.4 0,-0.2 0.2,-0.2 0.2,-0.4 0,0 0,0 0,-0.1 -0.6,-0.1 -1.1,0.4 -1.7,0.4 0.1,-0.1 1,-0.6 1,-0.6 l 2.5,-1.1 c 0.4,-0.1 0.8,0 1.1,-0.4 0.1,-0.1 0,-0.3 0.1,-0.4 0.1,-0.1 0.2,0 0.3,0 0.3,0.2 0.8,0 0.8,-0.3 0,0 0,0 -0.3,-0.1 0.3,0 0.3,-0.1 0.3,-0.2 z"
   id="path10" />
		<path
   class="st2"
   d="m 214.4,176.1 c 0,0.1 0,0.1 0,0 0.1,0 0.1,0 0.2,-0.2 0,0 0,0 0,0 -0.1,0.3 -0.3,0.5 -0.3,0.8 0,0 0,0 0,0 0,0 0,0 0.1,-0.1 0.2,-0.3 0.5,-1.3 0.7,-1.9 0.1,-0.3 0.1,-0.5 0.1,-0.8 0,-0.1 0.1,-0.3 0.1,-0.4 v 0 c 0,0 -0.1,0.1 -0.1,0.1 v 0 c 0,-0.1 0,-0.2 0,-0.3 0,0 0,0 0,0 -0.1,0.1 -0.1,0.1 -0.6,1.4 -0.2,0.4 -0.3,0.8 -0.4,1.2 0,0.2 0,0.2 0.2,0.2 z"
   id="path11" />
		<path
   class="st2"
   d="m 400.6,67.6 c -2.3,-0.2 -4.8,-0.4 -6.8,-0.5 -6.7,-0.2 -7.1,-0.3 -10.3,-0.2 3.9,0 9.3,0.1 16,0.7 0.5,-0.1 0.8,-0.1 1.1,0 z"
   id="path12" />
		<path
   class="st2"
   d="m 286.3,115.7 c 0.1,0.2 0,0.4 0.1,0.6 0,0 0,0 0,0 0,0 0,0.1 0.1,0.1 0.2,0 0.8,-1.3 1,-1.9 0.1,-0.5 0,-1.1 -0.1,-1.3 -0.3,-0.4 -0.5,0 -0.5,0.1 -0.1,0.6 -0.3,0.8 -0.5,1.2 -0.1,0.2 -0.1,0.3 -0.2,0.4 0,0.2 0,0.2 0.1,0.2 0,0 0,0 0,0.1 0,0.1 -0.1,0.2 -0.1,0.4 -0.1,0 0.1,0 0.1,0.1 z"
   id="path13" />
		<path
   class="st2"
   d="m 383.5,66.8 c -2.7,0 -4.7,0.1 -6,0.1 1.3,0 3,-0.1 5.5,-0.1 0.2,0 0.4,0 0.5,0 z"
   id="path14" />
		<path
   class="st2"
   d="m 226.4,155.6 c 0,0 0,0 0,0 -0.2,0.1 -0.9,1.2 -1.1,1.4 0,0 -1.4,2.6 -1.5,2.8 0,0 0.1,-0.1 0.1,-0.1 0.1,-0.1 2.4,-3.6 2.5,-4.1 z"
   id="path15" />
		<path
   class="st2"
   d="m 217.5,172.6 c 0.1,0.1 0.1,0.1 0.3,0 0,0 0.1,0 0.2,0.1 0,0 0.1,0 0.1,-0.1 l 1.5,-4.9 c 0,0 -0.1,0 -0.1,0 l 3.8,-9.8 c 0,-0.1 0.1,-0.3 0.3,-0.6 0.2,-0.3 0.2,-0.4 0.3,-0.6 0,-0.1 0,-0.2 0,-0.2 0,0 -0.1,0 -0.1,0 0,-0.1 0.1,-0.3 0.1,-0.4 -0.4,0.4 -0.7,0.9 -1.1,1.3 v -0.1 c -0.2,0.2 -0.2,0.2 -0.5,0.9 0.2,-0.2 0.3,-0.5 0.5,-0.7 0,0.1 0,0.2 0,0.3 0.1,-0.1 0.2,-0.2 0.3,-0.3 l -3.3,7.7 c -0.4,0.8 -0.5,0.9 -0.6,1.1 -0.3,0.7 -0.3,1.5 -0.6,2.3 -0.3,0.7 -0.6,0.9 -1,1.3 -0.3,0.2 -0.3,0.3 -0.3,0.5 0.8,0.6 -0.1,1.4 0.2,2.2 z"
   id="path16" />
		<path
   class="st2"
   d="m 215.1,178.8 c 0,0.1 0,0.1 0,0.5 0,0.1 0,0.3 0,0.4 0,0.2 0,0.2 0.2,0.8 0.4,0.9 -0.4,1.5 -0.5,2.3 0,0 0,0 0,0 0.4,-0.4 0.5,-1 1,-1.4 0,0 0.1,0.1 0.1,0.1 0.1,0 0.1,0 0.2,0 0,0.2 -0.2,0.5 -0.1,0.7 0.1,0.2 0.3,-0.2 0.5,-0.1 0,0.1 0,0.1 0,0.4 -0.1,0.8 0.3,1.3 0.3,1.3 0.1,0 0.1,0 0.2,-0.2 0.2,-0.2 0.7,-1 0.5,-2.3 0,-0.2 0,-0.3 0.1,-0.7 0,0 0.6,-1.7 0.6,-1.8 0,-0.1 0,-0.1 0,-0.2 0,0 -0.1,0 -0.1,0 0,-0.1 0,-0.2 0.1,-0.9 0.1,-0.6 0.1,-0.7 0,-0.8 0,0 -0.1,0 -0.1,0 -0.1,-0.1 0,-0.3 0,-0.4 0,0 0,0 0,0 -0.2,0 -0.3,0.2 -0.6,0.2 0,-0.6 0.5,-1.2 0.4,-1.8 0,-0.1 0,-0.1 -0.1,-0.2 -0.3,0 -0.5,0.4 -0.5,0.7 0.1,0 0.1,0 -0.1,0.6 -0.2,0.7 -0.7,1.2 -0.9,1.9 -0.3,0.7 -0.3,1.5 -0.5,2.2 0,0 -0.1,0.1 -0.1,0.1 0,0 0,-0.1 0,-0.1 0,-0.2 0.1,-0.4 0.1,-0.6 0,-0.2 -0.1,-0.2 -0.2,-0.2 -0.1,0 -0.2,0 -0.2,-0.4 l 0.1,-1.2 c 0,-0.1 0,-0.2 0.1,-0.3 0,0 0,0 0,0 -0.2,0 -1,1.4 -0.5,1.4 z"
   id="path17" />
		<path
   class="st2"
   d="m 360.4,112.8 c 0,0 0,0 0.9,0.1 0.7,0.1 0.6,0.9 1.1,1.2 0.4,0.2 0.8,0.3 1.2,0.5 0.2,0.1 0.4,0.4 0.6,0.5 0.1,0.1 0.3,0.1 0.4,0.1 0.1,0 0.2,0 0.2,0 0.6,0 1.2,-0.3 1.9,-0.3 0.7,0 1.4,0.1 2.1,-0.1 0,0 2.3,-0.6 3,-1.2 0.1,-0.1 0.2,-0.2 0.2,-0.3 0.1,-0.3 -0.1,-0.7 0,-1 0.1,-0.3 0.6,-0.4 0.6,-0.8 -0.2,-0.1 -0.3,0 -0.5,-0.1 0,-0.1 0,-0.1 -0.1,-0.3 0,0 0,0 -0.1,-0.1 -0.2,-0.1 -0.4,-0.1 -0.5,-0.2 -0.3,-0.1 -0.1,-0.5 -0.4,-0.6 -0.4,-0.1 -0.6,0.3 -0.9,0.4 -0.3,-0.1 -0.5,0.1 -0.8,0 0,0 0,0 0,0 v 0 c 0,0 0,0 0,0 -0.2,0 -0.3,0.2 -0.5,0.1 0.1,-0.3 0.1,-0.3 0.1,-0.3 -0.1,-0.2 -0.3,0 -0.5,-0.1 -0.1,-0.1 -0.1,-0.3 -0.2,-0.4 0,0 0,0 -0.1,0 -0.5,-0.2 -1,0.3 -1.5,0.2 -0.4,0 -0.7,-0.6 -1.2,-0.3 -0.3,0.2 -1,0.6 -1.6,0.3 0.1,-0.3 0.1,-0.3 0.1,-0.4 0,0 -0.1,0 -0.1,0 -0.4,0.1 -0.6,0.4 -0.9,0.5 -0.5,0.1 -1,-0.2 -1.5,-0.1 0,0 -0.3,0.1 -0.5,0.3 0,0 0,0 0,0.1 0.5,0.1 1.4,0.2 1.6,0.5 -0.1,1.1 -1.5,0.9 -2.1,1.8 z"
   id="path18" />
		<path
   class="st2"
   d="m 330.8,89.5 c 0.5,-0.4 2.7,-1.8 4.1,-1.7 0,0 -0.1,0.1 -0.1,0.1 0.8,0 0.8,0 1.1,0.1 0,0 -1.5,0.9 -2,1.2 0.1,0.1 0.2,0.2 0.3,0.2 -0.3,0 -0.7,-0.1 -1.8,0.7 0,0 0.1,0.1 0.1,0.1 -0.1,0.2 -0.4,0.3 -0.5,0.6 -0.5,0.3 -0.5,0.3 -0.7,0.4 0.9,-0.1 1.6,-0.7 2.4,-0.8 0.7,0.5 1.2,0.3 2.6,-0.3 0.1,0 0.1,0.1 0.2,0.1 -0.1,0.1 -0.1,0.2 -0.2,0.4 0.2,0 0.4,-0.1 0.6,-0.1 0,0 0.1,0.1 0.2,0.1 0.1,0 0.5,-0.1 1.2,-0.8 -0.6,-0.3 -0.6,-0.3 -0.8,-0.3 0,-0.1 -0.1,-0.1 -0.1,-0.2 0.4,-0.1 0.8,0 1.1,-0.3 0,0 -0.1,0 -0.2,0 0,-0.1 0,-0.1 0,-0.2 0.4,-0.5 1.2,-0.4 1.6,-0.8 0,-0.1 0,-0.1 0,-0.2 0.4,-0.2 0.4,-0.2 0.4,-0.4 -0.1,0 -0.3,0 -0.4,0 0,-0.1 0,-0.2 0,-0.3 0.5,-0.2 0.5,-0.2 0.8,-0.7 0,0 -0.1,-0.1 -0.1,-0.2 2.6,-1.7 4.8,-1.6 4.8,-1.6 0.1,0.1 0.1,0.2 0.1,0.4 0.5,-0.1 1.3,-0.5 1.6,-0.7 -0.4,0 -0.9,0.1 -1.3,0 0.1,-0.1 0.3,-0.1 0.4,-0.2 0,-0.1 0,-0.1 0,-0.2 -0.4,0 -0.4,0 -0.6,-0.1 0.8,-0.6 2.1,0.7 2.6,-0.4 -0.1,0 -0.2,-0.1 -0.3,-0.2 0.1,0 0.2,-0.1 0.3,-0.2 -0.5,-0.1 -1.1,0 -1.6,0 0.8,-0.3 1.6,0.2 2.4,-0.4 -0.6,-0.1 -0.6,-0.1 -0.7,-0.3 -0.3,0.1 -0.7,0.2 -1,0.2 0.9,-1.5 2.8,0.6 3.6,-0.9 -0.4,0 -0.9,0.1 -1.4,0 0.9,-0.4 0.9,-0.4 1.8,-0.6 0,-0.1 0,-0.1 0,-0.2 0.3,0 0.4,0.1 1.1,-0.1 v -0.2 c -0.6,-0.2 -0.6,-0.2 -0.6,-0.2 0.5,-0.2 0.5,-0.2 0.7,-0.1 0,0 -0.1,0.1 -0.1,0.1 0.7,0.1 1.2,-0.1 1.4,-0.2 0,-0.1 0,-0.1 0.1,-0.2 0,0 0,0 0,0 v 0 c 0,0 0,0 0,0 0,0 0,0 0,0 v 0 c 0,0 0,0 0,-0.1 0.2,-0.2 0.6,-0.2 0.7,-0.5 v -0.1 c 0,0 0,0 -0.1,-0.1 -0.4,-0.1 -1.6,0 -2.5,0.2 0,0 -0.1,-0.1 -0.1,-0.1 0.4,-0.4 0.9,-0.1 1.3,-0.4 -0.1,0 -0.2,0 -0.2,-0.1 0.1,0 0.3,-0.1 0.4,-0.2 -0.3,0 -0.6,0 -0.9,0 0,0 0,0 0,0 0,0 0,0 -0.1,0 -0.1,0 -0.3,0 -0.4,-0.1 2.3,-0.6 4.3,-0.4 4.3,-0.4 -0.5,0.4 -1.3,0 -1.8,0.6 0.5,0.2 0.5,0.2 0.5,0.9 2.5,-0.4 2.4,-1 2.3,-1.4 0.2,-0.1 0.4,-0.2 0.7,-0.3 -0.6,-0.3 -1.2,0.4 -1.9,0 0.6,-0.2 1.4,0.1 1.9,-0.5 -0.2,-0.4 -0.7,-0.4 -1,-0.7 -0.4,0 -0.8,0.1 -1.3,0.1 0.1,0 0.1,-0.1 0.2,-0.1 -0.5,0 -0.7,0 -1.8,0.2 0,0.1 0,0.1 -0.1,0.2 -0.3,0.1 -0.7,0.1 -1,0.2 0.2,-0.1 0.3,-0.2 0.4,-0.3 -0.2,0 -0.4,0 -0.7,0 0,0 0,0 0,0 0,0 0,0 0,0 -0.2,0 -1.1,0.2 -1.4,0.4 0.1,0 0.3,0 0.4,0 -0.3,0.1 -2.4,0.3 -2.7,0.3 0.6,-0.3 0.6,-0.3 0.7,-0.4 -0.1,0 -0.2,-0.1 -0.4,-0.1 0.3,-0.6 0.3,-0.6 0.7,-0.8 0,0 0,-0.1 0,-0.2 -1.2,0.2 -1.5,0.4 -1.6,0.5 0,0 0,0 0,0 -0.2,0.1 -0.4,0.1 -0.6,0.2 0,0 -0.1,0.1 -0.1,0.2 0.1,0 0.3,0 0.4,0 -0.1,0 -0.2,0.1 -0.3,0.2 0,0 0.1,0 0.2,0 -1,0.2 -1.5,0.3 -2,1.2 0,0.1 0.1,0.1 0.1,0.2 -0.2,0.1 -0.5,0.2 -0.6,0.4 0.3,0 0.5,-0.2 0.8,-0.1 -0.1,0.1 -0.3,0.2 -0.3,0.2 0,0 0.1,0.1 0.1,0.1 -0.3,0.3 -0.7,0.5 -1,0.8 0.8,0.5 1.3,-0.5 2,-0.3 0,0.1 0,0.1 0.1,0.2 -1.1,0.4 -3.1,1.3 -5.1,2.3 0,0 0.1,0.1 0.1,0.2 -0.3,0.1 -0.3,0.1 -0.6,0.2 0,0 -0.1,-0.1 -0.1,-0.1 -0.3,0 -0.8,0.1 -1.1,0.4 0.4,0 0.4,0 0.6,0 0,0.1 0,0.1 0,0.2 0.1,0 0.3,0 0.4,0 -0.4,0.1 -0.9,0.1 -1.3,0.4 0.1,0 0.1,0.1 0.2,0.1 -0.4,0.2 -3.6,1.4 -3.6,1.4 0,0 -2.1,0.1 -3,0 -1,-0.1 -1.7,0.8 -2.7,0.9 0.1,0 0.1,-0.1 0.2,-0.1 0,0 0,-0.1 0,-0.2 -0.4,0 -0.4,0 -0.5,-0.1 0,-0.1 0,-0.1 0,-0.2 -0.1,0 -0.3,-0.1 -0.3,-0.2 -0.1,0 -0.3,0 -0.4,-0.1 0.6,-0.4 0.6,-0.4 0.7,-0.6 0,0 -0.1,-0.1 -0.1,-0.2 -1.9,0.1 -2.8,0.2 -3.2,1.1 0.2,0.3 0.6,0.2 0.9,0.4 -0.3,0.3 -0.3,0.3 -0.3,0.4 0.3,0 0.5,-0.1 0.8,-0.1 0,0 0,0 0,0 0,0 0,0 -0.1,0.1 -0.1,0.2 -0.2,0.3 -0.3,0.4 0.1,0 0.1,0.1 0.2,0.1 0,0 0,0 0,0.1 -0.6,0.2 -2.1,1.2 -2.2,1.2 0,0 0,0 0,0 0,0 0,0 -0.1,0.1 -1.1,0.8 -1.1,0.8 -1.2,0.7 v 0 c 0,0 0,0 -0.1,-0.1 -0.2,0.1 -0.3,0.1 -1,0.5 0,0 0,0.1 0,0.2 0.1,0 0.1,0 0.2,0.1 -0.9,0.4 -0.9,0.4 -1,0.5 0,0 0.1,0 0.2,0 -0.2,0.2 -0.2,0.2 0,0.7 -1.8,1.3 -2.1,1.5 -1.9,2.7 0.3,-0.1 0.4,-0.1 0.8,-0.4 0,0 2.1,-1.7 2.1,-1.7 0,0 1.7,-1.5 2.2,-1.4 0,0.1 0,0.1 0,0.2 -0.1,0.1 -0.1,0.2 -0.2,0.3 0.1,0 0.3,0 0.4,0 -0.4,0.4 -1.1,0.5 -1.4,1 0,0 0.1,0.1 0.1,0.1 -0.5,0.2 -0.5,0.2 -0.6,0.4 0.1,0.3 -0.2,0.5 -0.1,0.7 0.1,0 0.2,0.1 0.3,0.1 1.2,-0.5 1.2,-0.5 1.4,-0.5 -0.1,0.1 -0.2,0.2 -0.3,0.3 1.4,-0.4 4.6,-2.9 4.6,-2.9 z"
   id="path19" />
		<path
   class="st2"
   d="m 360,146.5 c 0.2,0 0.4,0 0.5,0 1.1,-0.1 2.1,-0.7 3.2,-0.8 0,0 1.3,-0.1 1.5,0.1 0.4,0.2 0.6,0.2 0.7,0.1 0,0 1.2,-1.1 1.7,-1.9 0.2,-0.3 -0.1,-0.7 0.3,-0.9 0.5,-0.2 0.2,-0.7 0.3,-1 0.4,-0.9 0.6,-0.9 1,-0.9 0.4,0 0.7,0 0.8,-0.2 0.1,-0.1 0.1,-0.2 0.1,-0.5 l -0.5,-1.7 c 0,0 0,-0.1 -0.1,-0.1 -0.2,-0.2 -0.4,-0.1 -0.7,-0.2 -0.4,-0.1 -0.3,-0.6 -0.6,-0.8 -0.3,0 -0.5,0.5 -0.8,0.2 -0.4,-0.3 -0.6,-0.2 -0.8,-0.1 -0.5,0.5 -0.9,1.1 -1.5,1.6 -0.1,0.1 -0.3,0.1 -0.5,0 -0.5,-0.1 -0.8,-0.2 -1.2,0.1 -0.3,0.2 -0.4,0.5 -0.7,0.8 -0.3,0.3 -0.7,0.5 -1,0.8 -0.3,0.2 -0.4,0.5 -0.1,0.8 0.2,0.2 0.3,0.4 -0.5,1.1 -0.6,0.6 -1.6,0.9 -2.1,1.7 -0.2,0.3 -0.2,0.9 -0.2,1.2 0.1,0.4 0.3,0.6 1.2,0.6 z"
   id="path20" />
		<path
   class="st2"
   d="m 398.8,86.9 c -0.9,-1.1 -2.3,-0.2 -3.3,-0.8 0,0 -2.1,0.5 -2.9,0.4 1,-0.3 2.1,-0.4 3,-0.8 0,-0.1 0,-0.2 0,-0.3 -0.9,-0.3 -1.8,0.1 -2.6,0 0.5,-0.1 1,-0.1 1.5,-0.1 0,-0.1 0.1,-0.3 0.1,-0.4 -1,-0.4 -2,-0.4 -3,-0.6 0,0 2.6,-0.3 3.2,0.5 0,0 0,0 0.2,0 1.2,0.1 1.2,0.1 1.5,0.2 0,0 0,0 0.2,0 0.2,0 0.5,-0.1 0.7,-0.3 -0.4,-0.4 -0.4,-0.5 -0.3,-0.9 0.1,0 0.2,-0.1 0.3,-0.1 0,-0.1 0,-0.2 0,-0.4 -0.1,0 -0.2,-0.1 -0.3,-0.1 0.1,-0.1 0.2,-0.2 0.2,-0.2 -0.7,0 -1.3,-0.6 -2,-0.6 0,0 0,0 0,0 0,0 0,0 -1.9,0 0.2,-0.1 0.4,-0.3 0.6,-0.3 -0.2,0 -0.5,0 -0.7,0 0,-0.1 0.1,-0.2 0.1,-0.3 -0.8,0 -1.7,0.2 -2.5,0.2 0.1,-0.1 0.1,-0.2 0.2,-0.3 0,0 -1.4,0.5 -2,0.8 0,0 0,0 -0.2,-0.1 0.3,-0.2 0.5,-0.5 0.8,-0.8 0,-0.1 0,-0.3 0,-0.4 -2.1,0.4 -2.1,0.4 -2.1,0.4 0.5,-0.1 0.5,-0.2 1,-0.6 -1.8,0.3 -1.8,0.3 -2.4,0.2 2.1,-0.3 2.1,-0.3 2.4,-0.5 -1,0 -1.9,-0.2 -2.9,-0.3 0.2,0 0.5,-0.2 0.6,-0.4 -0.9,-0.2 -1.8,0.2 -2.7,0.1 0.1,-0.1 0.1,-0.2 0.2,-0.3 -0.1,0 -0.1,0 -1.3,0.1 0.2,0 0.6,-0.1 0.8,-0.2 -3.2,-0.4 -3.2,-0.4 -3.7,-0.2 0.1,0.1 0.1,0.2 0.2,0.3 -2.7,0.4 -5.2,-1.7 -8,-0.8 0,0.1 0,0.3 0,0.4 -0.6,0.1 -0.6,0.1 -1,0.3 0,0 0,0 0,0 v 0 c 0,0 0,0 0.2,0.2 0.1,0 0.2,0 0.4,0 -0.1,0.1 -0.2,0.2 -0.2,0.3 0.1,0.1 0.2,0.2 0.3,0.2 0,0 0,0 0,0 0,0 0,0 0,0 -0.4,0.1 -0.4,0.1 -1,-0.1 0,-0.1 -0.1,-0.2 -0.1,-0.3 -1.8,-0.4 -1.8,-0.4 -2.5,0.4 -0.7,-0.3 -0.7,-0.3 -1,-0.2 0,0 0,0 -0.3,0.2 -0.1,0.1 -0.3,0.1 -0.4,0.2 0,0.1 -0.1,0.3 -0.1,0.4 0.1,0 0.3,-0.1 0.4,-0.1 0.2,0.1 0.5,0.2 0.7,0.3 -0.2,0.1 -0.5,0.1 -0.7,0.2 0.6,0 0.7,0 1.1,0.2 -0.1,0 -0.3,0.1 -0.5,0.2 0.1,0 0.3,0 0.4,0 0.1,0.2 0.2,0.4 0.2,0.6 -3.6,2.5 -4.3,2.7 -8.8,4.2 0.1,0.1 0.1,0.2 0.2,0.3 -1.6,0.7 -3.5,0.1 -5,1.3 0,0.1 0.1,0.2 0.1,0.3 0.3,0 0.3,0 3,-0.6 -0.2,0.1 -0.4,0.4 -0.5,0.6 -0.8,0.3 -1.8,0.2 -2.5,0.8 0.2,0 0.5,0 0.7,0.1 -0.2,0.1 -0.4,0.3 -0.4,0.6 0,0 0,0 0.1,0.1 -0.1,0 -6.7,3.3 -7.9,2.4 0,-0.1 0,-0.3 0,-0.4 -5,1.2 -5,1.2 -5.2,1.4 0,0.2 -0.2,0.5 -0.3,0.7 -3.3,0.3 -6.8,3.9 -6.8,3.9 0.6,-0.1 1.1,-0.3 1.7,-0.4 0,0.1 0.1,0.2 0.1,0.3 0.2,0 0.5,0 0.7,0.1 -0.1,0.2 -0.4,0.3 -0.5,0.5 0,-0.1 -0.1,-0.2 -0.1,-0.3 -3.1,-0.1 -6.1,3.6 -6.1,3.6 0.1,0.1 0.1,0.2 0.2,0.3 -1.5,1.1 -1.5,1.1 -2.9,3.2 0.2,0 0.5,-0.1 0.7,-0.1 0.2,0.2 0.4,0.4 0.5,0.5 0.3,-0.1 0.6,-0.1 0.9,0 -0.6,0.7 -0.6,0.7 -0.8,1 0.1,0 0.3,0.1 0.4,0.1 -0.3,0.6 -1,0.8 -1.3,1.4 0.1,0.1 0.2,0.2 0.2,0.3 L 328,109 c 0.8,0.3 1.2,0 2.1,-0.8 0.1,0.1 0.2,0.1 0.3,0.2 0.9,-0.3 1.5,-1.1 2.3,-1.3 0.1,0.1 0.1,0.2 0.2,0.3 2.5,-1.4 2.5,-1.4 2.8,-2.1 0.6,-0.1 1.1,-0.5 1.7,-0.3 0,0.1 0,0.2 0.1,0.3 0,0 3.7,-0.6 4.1,-1.6 -0.1,-0.1 -0.2,-0.1 -0.3,-0.2 0.1,-0.2 0.4,-0.3 0.6,-0.4 0.8,0.8 1.4,-0.4 1.5,-0.4 0,0 2.4,-0.7 3.3,-0.9 0.2,0.2 1.3,0.6 1.3,0.6 0.1,-0.1 1.3,-0.5 1.8,-0.7 0.1,0.1 0.2,0.2 0.3,0.3 -1.5,0.3 -1.6,0.5 -2,0.9 0.4,0.1 0.4,0.1 1.4,-0.3 0,0 2.5,0.7 4.7,-0.1 l 5.5,-1.9 c -0.1,0.4 -0.2,0.7 -0.2,1.1 0.1,0.1 0.2,0.2 0.3,0.3 0.5,0 1,-0.2 1.5,-0.2 0,0 0,0 0,0.3 1.4,0.7 8.4,0.8 9.7,-0.6 -1.3,-0.3 -2.2,-1.6 -3.8,-1.3 -0.1,-0.1 -0.2,-0.1 -0.3,-0.2 1.1,-0.5 2.3,0.2 3.4,-0.3 0,-0.1 0.1,-0.3 0.1,-0.4 -0.3,-0.2 -0.7,-0.2 -1,-0.4 1.5,0 1.5,0 2,-0.3 -0.2,-0.1 -0.4,-0.3 -0.5,-0.4 0.2,0 0.5,0 0.7,0 0.1,0.3 0.1,0.3 0.6,0.9 -0.3,0.5 -0.6,0.9 -0.9,1.3 0,0.1 0,0.2 0.1,0.4 0.5,0.2 0.9,0 1.4,0 -0.1,0.1 -0.2,0.2 -0.3,0.3 0.9,0.4 1.2,-0.7 1.8,-1 0,-0.1 0,-0.3 0,-0.4 -0.1,0 -0.2,-0.1 -0.4,-0.1 0.1,-0.1 0.3,-0.4 0.3,-0.6 0.2,-0.1 0.5,-0.2 0.7,-0.4 -0.1,-0.3 -0.2,-0.7 -0.3,-1 -0.2,0 -0.6,-0.1 -0.8,0 -0.1,-0.1 -0.2,-0.2 -0.3,-0.3 0.1,-0.1 0.2,-0.1 0.3,-0.2 0.1,0.1 0.2,0.1 0.3,0.2 0.7,-0.1 1,-0.7 1.6,-1 0,0.1 0.1,0.2 0.1,0.3 -0.2,0.2 -0.4,0.4 -0.6,0.6 0.1,0.4 0.3,0.7 0.3,1 0.1,0 0.2,0 0.4,0.1 0.4,-0.5 1.1,-0.5 1.5,-1 0,0 0,0 0,0 0,-0.1 -0.1,-0.2 -0.1,-0.3 0,0 0,0 0,0 v 0 c 0,0 0,0 -0.1,-0.2 0,-0.2 -0.2,-0.5 -0.3,-0.7 0.2,-0.6 0.4,-0.5 0.8,-0.4 0,0.1 -0.1,0.3 -0.1,0.4 0.1,0.2 0.3,0.4 0.4,0.6 2,0.1 2,0.1 2.5,-0.2 -0.1,-0.2 -0.2,-0.5 -0.3,-0.6 0,0 0,0 -0.3,-0.1 0,-0.1 0,-0.2 0,-0.3 0.1,0 0.3,-0.1 0.4,-0.1 0.7,0.5 0.7,0.5 1.6,0.3 0,0.1 0.1,0.2 0.2,0.3 v 0 0 c 0,0 0,0 0,0 0,0 0,0 0,0 v 0 0 c 0,0 0,0 0.1,0 0,0 0,0 0.3,0 0.2,-0.1 0.4,-0.4 0.4,-0.6 -0.1,-0.1 -0.2,-0.2 -0.3,-0.2 0.2,-0.1 0.3,-0.4 0.4,-0.5 -0.2,0.1 -0.5,0.2 -0.8,0.3 0.2,-0.1 0.3,-0.4 0.4,-0.5 0.8,-0.1 0.8,-0.1 1.1,-0.1 0,0.1 0.1,0.2 0.1,0.3 0.3,-0.2 1,-0.5 1.7,-1.7 v 0 c 0,0 0,0 0,0 -0.2,-0.1 -0.4,-0.3 -0.6,-0.4 0.1,-0.2 0.3,-0.4 0.3,-0.6 0.7,0.4 1.9,-0.3 2.3,0.7 0.8,-0.1 1,-0.6 1.2,-0.8 -0.6,0 -0.7,-0.1 -0.8,-0.4 -0.1,0 -0.3,-0.1 -0.4,-0.1 0.7,-0.3 0.8,-0.2 1.4,0 0.1,-0.1 0.2,-0.1 0.3,-0.2 -0.2,-0.1 -0.4,-0.3 -0.5,-0.5 -0.4,0 -0.7,0.1 -1.1,0.1 1.7,-0.7 3.5,-1.2 5.1,-2.1 0.1,0.1 0.2,0.2 0.3,0.3 2,-0.5 2,-0.5 2.4,-0.8 -0.2,-0.1 -0.4,-0.2 -0.6,-0.3 1.3,-0.6 2.7,0.2 4,-0.3 -0.1,-0.5 0,-0.6 0,-0.7 z"
   id="path21" />
		<path
   class="st2"
   d="m 370,133.5 c 0,0 0,0.1 -0.1,0.1 0,0 0,0.1 0,0.1 0,0 0.1,0.1 0.3,0 0.2,-0.1 0.2,-0.4 0.4,-0.5 0.2,-0.1 0.2,-0.2 0.3,-0.3 0.1,-0.2 0.2,-0.3 0.3,-0.4 0.1,-0.1 0.2,-0.1 0.4,-0.2 0.1,-0.1 0.2,-0.2 0.3,-0.2 0,0 0.1,0 0.1,0 v 0 c 0,0 0,0 0,0 0.1,0 0.1,0 0.4,-0.1 0.1,0 0.2,0 0.3,0 0.1,0 0.1,0 0.1,0 0.2,-0.1 0.3,-0.2 0.4,-0.3 0,0 0.1,0 0.1,0 0,0 0,0 0.1,0 0,0 0,0 0,0 0.1,-0.1 0,-0.2 0,-0.2 -0.1,-0.1 -0.2,0 -0.3,-0.1 -0.1,0 -0.3,-0.1 -0.4,-0.2 0,0 -0.1,0 -0.1,0 -0.1,0 -0.2,-0.1 -0.9,0.4 -0.2,0.1 -0.4,0.3 -0.6,0.5 -0.2,0.1 -0.4,0.2 -0.6,0.4 -0.2,0.2 -0.1,0.4 -0.2,0.6 0,0.1 -0.2,0.2 -0.3,0.4 z"
   id="path22" />
		<path
   class="st2"
   d="m 382.6,149.3 c 0.1,-0.1 0.3,-0.8 -0.6,-1.5 0,0 -1.6,-1.2 -2.1,-1 -0.3,0.1 -0.3,0.1 -0.9,-0.3 0,0 0,-0.1 0,-0.1 0.9,-0.5 0.9,-0.5 0.9,-0.7 0,-0.7 -0.6,-1 -0.7,-1.6 0.5,0.2 0.5,0.2 0.5,0.2 0.1,-0.2 -0.3,-1.7 -0.3,-1.7 -0.1,-0.1 -0.1,-0.1 -0.8,0 -0.1,-0.2 -0.1,-0.2 -0.3,-0.2 0,0 0,0 0,-0.1 0.2,-0.4 -0.2,-0.6 -0.1,-1 0,-0.3 0.1,-0.6 0.2,-0.9 0.3,-1.2 -0.4,-3.2 -2.3,-2.1 1.2,-1.2 2.6,-2.2 3.8,-3.5 0.9,-0.9 -2.8,-1.2 -2.8,-1.2 0,0 -0.1,-0.1 -0.1,-0.1 0.2,-0.2 0.3,-0.5 0.5,-0.7 0.3,-0.2 0.7,-0.3 1,-0.4 0.7,-0.3 0.2,-0.7 0,-0.8 -0.8,-0.1 -1.6,-0.7 -2.5,-0.5 -0.4,0.1 -0.9,0.8 -1.3,1.4 -0.5,0 -0.8,0.4 -1.3,0.5 0,-0.1 -0.1,-0.2 -0.2,-0.2 0,0 0,0 -0.1,0 -0.9,0.1 -1,1.3 -1,1.3 0.1,0.1 0.1,0.1 0.9,-0.2 0,0 0,0.1 0,0.1 -0.2,0.3 -0.3,0.6 -0.4,0.9 0,0 -0.1,0 -0.1,0 -0.1,-0.3 -0.2,-0.3 -0.3,-0.3 -0.4,0 -0.7,0.8 -0.8,1.1 0,0.4 0.5,0.3 0.6,0.5 -0.1,0.4 -0.1,0.4 0,0.6 -0.2,0.6 -1.3,0.9 -1,1.7 0.1,0 0.1,0 0.9,-0.8 0.3,-0.3 0.3,-0.3 1.1,-0.4 0.1,0 0.3,0 0.4,0 -0.2,0.5 0,1.2 -0.6,1.5 -1.3,0.8 -1.3,0.8 -1,1.4 0.2,0 0.4,-0.2 0.6,-0.2 0,0 0,0 0,0 0.1,0.6 0.1,0.6 0.9,0.2 v 0 c 0,0 0,0 0,0 0.1,0.1 0.1,0.3 0.1,0.4 0.5,0.1 1.1,-0.6 1.5,0 -0.8,0.7 -0.8,0.7 -0.8,0.9 0.1,0.6 0.9,0.6 1,1.1 -1.4,2.1 -1.5,2.3 -3.9,1.1 -0.3,-0.1 -0.4,0.1 -0.4,0.1 -0.1,0.2 0.2,0.4 0.2,0.6 -0.1,0.5 -0.6,0.2 -0.8,0.5 -0.1,0.1 -0.1,0.2 0,0.3 0.3,0.1 0.6,-0.2 1,-0.2 0.5,0 0,1.3 -0.2,1.4 -0.2,0.2 -1.6,0.5 -2,0.5 -0.3,0 -0.5,0 -0.6,0.1 -0.1,0.1 -0.2,0.6 0.1,0.8 0.5,0.3 1.1,-0.1 1.6,0.2 0.4,0.2 1.2,0.5 1.2,0.9 0,0.2 0.2,0.2 0.2,0.3 0,0 0.4,0.1 0.6,0 0.5,-0.3 0.9,0.1 1.3,0.1 -0.7,0.2 -1.3,0.9 -2.2,0.6 -1.6,-0.4 -1.6,-0.4 -2.4,-0.1 0,0 -2.7,2 -2.7,2.1 0.2,0.3 0.2,0.3 1.6,-0.3 0.4,-0.2 1.2,-0.4 1.5,0.4 0,0 0.1,0 0.1,0 0.6,-0.3 1,-1.1 1.8,-1 0.6,0 0.9,0.6 1.5,0.6 0.7,0 1.3,-0.5 1.9,-0.3 0.3,0.1 0.9,0.3 1,0.4 0.2,0.1 0.2,0.1 1.2,0.3 0.4,0.1 0.7,0.5 1.1,0.6 0.5,0.2 1,-0.1 1.5,0 0,0 0,0 0,0 v 0 c 0,0 1.6,-0.1 1.6,-0.7 -0.5,-0.5 -1.4,-0.2 -1.9,-0.8 1.1,0.1 1.1,-0.1 1.2,-0.8 0,0 0.1,-0.1 0.1,-0.1 0.1,0.1 0.1,0.1 0.2,0.2 0.4,0.4 0.4,-0.1 0.4,-0.5 1,0.3 1.3,0.3 1.7,-0.6 z"
   id="path23" />
		<path
   class="st2"
   d="m 415.6,96.7 c 0,0 0,0 0,0 0.2,0.1 0.3,-0.2 0.5,-0.1 0.3,0.1 0.5,0.5 0.9,0.5 0.1,-0.1 0.2,0.1 0.3,0 l 0.4,-0.7 c 0.1,-0.1 0.2,-0.1 0.3,-0.1 0,0 0,0 0,0 0,-0.1 0,-0.5 -0.7,-0.4 0,0 0,0 0,0 -0.2,-0.2 -0.2,-0.5 -0.5,-0.7 -0.2,-0.1 -0.5,0 -0.6,-0.2 0,0 -0.4,-0.5 -0.5,-0.8 0,-0.2 -0.1,-0.3 -0.2,-0.4 0,0 0,0 0,0 0,0 -0.8,-0.4 -0.8,-0.7 0.2,0 0.3,0.1 0.4,0.2 0.2,-0.3 0.7,0 0.7,0 0.2,0.2 0.5,0.7 0.8,0 0,0 0,0 0.2,0 0,0 0,-0.1 0.1,-0.1 0.1,0 0.1,0 0.4,0.1 0.2,0.1 0.3,-0.3 0.3,-0.4 0,-0.2 0.3,-0.1 0.4,-0.3 0,0 0.1,-0.1 0,-0.4 -0.2,-0.4 -0.3,-0.5 -0.4,-0.5 0,0 0,0 -0.1,0 -0.2,-0.1 -0.5,0 -0.8,-0.1 -0.3,-0.1 -0.4,-0.3 -0.7,-0.4 0,0 -0.1,0.3 -0.1,0.5 -0.1,-0.1 -0.1,-0.3 -0.2,-0.5 -0.1,-0.1 -0.2,-0.1 -0.3,-0.2 -0.1,-0.1 -0.2,0 -0.2,0.2 0,0.2 0.2,0.4 0.2,0.6 -0.4,0 -0.3,-0.7 -0.7,-0.6 0,0.1 0,0.2 0,0.3 -0.2,-0.1 -0.2,-0.3 -0.3,-0.5 -0.1,0 -0.1,0 -0.5,-0.5 v 0 c -0.2,0.2 -0.1,0.5 -0.2,0.7 0,0.1 -0.1,0 -0.1,0.1 0,0 0,0.1 0,0.1 -0.1,-0.1 -0.1,-0.3 -0.3,-0.3 -0.1,0 -0.4,0.3 -0.2,0.7 0.1,0.2 0,0.3 0,0.4 -0.2,-0.1 -0.3,-0.2 -0.4,-0.3 -0.1,0 -0.1,0 -0.1,0.3 0,0 0,0 -0.1,0 -0.1,-0.1 -0.4,-0.4 -0.4,-0.4 0,0 0,0.1 0,0.1 0,0 -0.1,0 -0.1,0 0,0 0,0 0.4,1.7 0,0 0,0 0,0 0,0 0,0 0,0 0,0 0,-0.1 -0.1,-0.1 0,0 0,0 0,-0.1 -0.6,-0.9 -0.6,-0.9 -0.6,-0.9 -0.1,-0.1 -0.1,-0.4 -0.3,-0.4 -0.2,0 -0.1,0.2 -0.1,0.3 0,0 0,0 -0.1,0 0,0 -0.3,-0.3 -0.4,-0.5 -0.3,0 -0.3,0.3 -0.4,0.4 0,0 0,0 0,0 0,-0.1 0,-0.2 -0.1,-0.3 0,-0.1 -0.4,-0.5 -0.7,0.1 0,0 0,0 -0.1,0 0,0 -0.1,-0.1 -0.1,-0.1 -0.1,0.1 -0.1,0.4 0,0.5 0.1,0.3 0.2,1 0.1,1.1 -0.1,-0.1 -0.1,-0.2 -0.3,-0.2 -0.6,0.2 0.7,1.5 0.7,1.5 0.1,-0.2 -0.1,-0.4 0,-0.7 0,0 0,0 0,0 0,0 0.1,0 0.1,0.1 0.2,0.2 0.2,0.2 0.3,0.5 0.1,0.2 0.4,0 0.5,0.2 l 0.2,1.1 c 0,0.6 0.6,0.9 0.7,0.9 0,0 0,0 0,0 0,0 0,0 0,0 v 0 c 0.6,0.1 0.6,0.8 1,1.2 0.2,0.2 0.5,0 0.6,0 0.3,-0.4 0.2,-1 0.3,-1.4 0.1,-0.2 0.3,-0.1 0.4,-0.3 0,0 0,-0.1 0,-0.1 0.1,-0.2 -0.1,-0.4 0,-0.7 0,-0.1 0.2,-0.2 0.2,-0.4 0,-0.1 0,-0.2 0,-0.2 0,-0.1 0.5,-0.5 0.5,-0.4 0.3,0.2 0.4,0.5 0.6,0.7 0.2,0.2 0.4,0.5 0.6,0.7 -0.4,-0.1 -0.4,0.4 -0.3,0.6 z"
   id="path24" />
		<path
   class="st2"
   d="m 364.4,108.3 c -0.1,0 -0.2,0 -0.2,0 -0.2,-0.1 -0.2,-0.1 -0.3,-0.1 -0.1,0 -0.3,0.1 -0.4,0.2 -0.2,0.1 -0.4,0.1 -0.6,0.1 0,0 -0.1,0 -0.1,0 0,0 -0.8,0.3 -0.9,0.3 -0.2,0.1 -0.2,0.2 -0.2,0.2 0,0 0.1,0 0.2,0 0.3,0 0.4,0 0.6,0.1 0,0 0,0 0,0 0.7,0.3 0.8,0.4 0.8,0.4 0,0 0,0 0.2,0.1 0.2,0 0.3,-0.2 0.5,-0.2 0.1,0 0.1,0 0.1,0 0,0.1 0.2,0 0.2,0 0.1,0 0.2,-0.1 0.3,-0.1 0.1,-0.1 0.2,-0.3 0.2,-0.3 0,0 0,0 0,-0.1 0,-0.1 -0.3,-0.1 -0.6,0 0,0 -0.1,0 -0.2,0 -0.2,0 0.7,-0.4 0.4,-0.6 z"
   id="path25" />
		<path
   class="st2"
   d="m 444,104.7 c 0,0.1 0,0.1 0,0"
   id="path26" />
		<path
   class="st2"
   d="m 441.6,99.5 c 0,0.1 0,0.1 0,0 -0.2,-0.8 1.1,2.1 1.1,2.1 0.1,0.2 0.3,0.3 0.4,0.5 v 0.1 c -0.1,0 -0.1,0 -0.2,0 0,0.1 0.1,0.3 0,0.4 0.2,0.6 0.9,0.7 1.2,1.3 -0.1,0.1 -0.1,-1.5 -0.2,-1.3 l -0.4,-3.4"
   id="path27" />
		<path
   class="st2"
   d="m 444,99.1 c 0,-0.1 0,-0.1 0,0"
   id="path28" />
		<path
   class="st2"
   d="M 444.1,99.5"
   id="path29" />
		<path
   class="st2"
   d="m 429.4,92.2 v 0 c 0,-0.1 -0.1,-0.1 -0.1,-0.1 -0.1,-0.1 -0.5,-0.4 -0.6,-0.4 -0.1,0 -0.1,0 -0.1,0.1 0,0.1 0.1,0.1 0.1,0.2 0,0 -0.1,0 -0.2,-0.1 L 428,91.7 c 0,0 0,0.1 0,0.1 -0.1,0 -0.4,-0.5 -0.4,-0.5 0.2,-0.1 0.3,0.1 0.4,0.1 0,0 0,0 0,0 0,0 0,0 -0.2,-0.3 0,0 0.1,0 0.1,0 0,0 0,0 -0.1,-0.1 -0.2,-0.1 -0.3,-0.2 -0.4,-0.3 0,0 -0.9,-0.5 -0.9,-0.5 0,0 0,0 0,0 0,0.2 0.2,0.2 0.2,0.4 0,0 0,0 0,0 v 0 0 c 0,0 0,0 0,0 0,0 0,0 0,0.1 0,0 0,0 0,0 -0.1,0 -0.1,0 -0.1,0 0,0.1 0.1,0.1 0.1,0.2 -0.1,0 -0.2,-0.2 -0.3,-0.1 -0.1,0 -0.1,0.1 -0.2,0.1 -0.1,0 -0.1,0 -0.2,0 0,0 0,0 0,0 0,0 0,0 0,0.1 0,0 0,0 -0.2,0 -0.4,-0.1 -0.3,0.2 -0.2,0.2 0.1,0.1 0.2,0.2 0.2,0.2 0,0 0.1,0 0.1,0 0,0 0,0 0.4,0 0.4,0 0.5,0.4 0.8,0.5 0.1,0 0.1,0 0.1,-0.2 0,0 0.1,0 0.2,0.1 0.3,0.3 0.3,0.2 0.4,0.2 0,-0.1 -0.1,-0.1 0,-0.2 0.1,0 0.2,0 0.3,0 0,0 0,0 0,-0.2 0.2,0.1 0.3,0.4 0.6,0.5 0.1,-0.1 -0.1,-0.2 -0.1,-0.3 0.2,0 0.3,0.2 0.5,0.2 0,0 0,0 0,0 -0.2,0.1 -0.2,0.1 0.3,0.2 z"
   id="path30" />
		<path
   class="st2"
   d="m 428.7,88.2 c 0,0 -0.1,0 -0.1,0 -0.1,0.1 -0.1,0.2 -0.2,0.3 -0.4,0 -0.4,0 -1.9,-0.3 0.1,0.1 0.2,0.3 0.3,0.5 -0.1,0.1 -0.2,0.2 -0.3,0.3 -1.2,-0.3 -1.2,-0.3 -2.6,-0.1 0,0.1 0.1,0.3 0.1,0.4 -0.5,0 -2.2,0.4 -2.2,0.5 -1.8,0 -3.6,-1 -5.4,-0.4 -1.4,-1.3 -1.4,-1.3 -2.9,-1.3 -1.3,1.3 -2.8,-1 -4.1,0.1 -2.4,-2.2 -5.4,1.5 -7.7,-0.8 0.1,-0.3 0.1,-0.3 1,-0.8 -0.9,-0.4 -0.9,-0.4 -1.1,-0.6 -0.2,0 -0.6,0.1 -0.8,0.1 0.1,-0.6 0.1,-0.6 0.4,-1.3 -0.1,-0.1 -0.1,-0.2 -0.2,-0.4 -0.1,0 -0.3,-0.1 -0.4,-0.1 0.3,-0.4 0.3,-0.4 1,-0.9 0,-0.1 -0.1,-0.3 -0.1,-0.4 -1.1,-0.1 -1.9,-1.1 -3,-1.1 0.3,-0.1 0.6,-0.3 0.9,-0.4 -0.1,0 -0.1,0 -2.1,-0.1 -0.1,-0.1 -0.2,-0.2 -0.3,-0.3 -1.1,0 -2.2,0 -3.3,0 0,-0.1 0.1,-0.3 0.1,-0.4 0.1,-0.1 0.2,-0.1 0.3,-0.2 -0.3,0 -0.6,-0.1 -0.9,-0.1 0.1,-0.1 0.2,-0.2 0.4,-0.2 -0.2,-0.2 -0.5,-0.3 -0.7,-0.4 0.4,-0.3 0.4,-0.3 1.3,-0.4 -0.1,0 -0.3,-0.1 -0.4,-0.1 0.4,-0.1 0.9,-0.1 1.3,-0.2 0,0 -3,-2.1 -8.4,-3.7 -0.1,-0.2 -0.3,-0.5 -0.4,-0.7 0.1,-0.2 0.3,-0.5 0.4,-0.8 -0.2,-0.2 -0.6,-0.4 -0.8,-0.5 -0.1,-0.3 -0.1,-0.3 -0.9,-0.9 0,-0.2 -0.1,-0.5 -0.2,-0.7 0.9,-1.2 2.3,-1.3 3.5,-1.9 -2.4,-1.1 -5,-0.5 -7.5,-1.3 0.1,-0.2 0.3,-0.5 0.5,-0.7 8.9,-1.4 20.9,-0.1 30.6,1 -0.4,-0.1 -0.4,-0.1 -0.4,-0.1 -0.1,0 -0.3,0 -0.4,-0.1 1.4,0.1 9,1.5 9.1,1.5 -0.1,0 -0.3,0 -0.4,-0.1 0.8,0.3 1.7,0.4 2.5,0.6 0,0 -0.1,0 -0.1,0 0.1,0 0.2,0 0.3,0 2.3,0.5 4.2,1 5.9,1.4 l 0.1,1.7 -16.8,-2.1 -6.8,7.2 23.5,3.5 z"
   id="path31" />
		<path
   class="st2"
   d="m 383.7,76 c -0.8,0 -1.5,-0.6 -2.3,-0.2 0,0 0.1,0 0.1,0.1 -0.2,0 -0.2,0.1 -0.3,0.1 0,0 0,0.1 0,0.1 0.3,0 0.5,0 0.8,0.1 -0.8,0.1 -0.8,0.1 -0.8,0.1 0.2,0.1 0.5,0.2 0.7,0.4 0,0 -0.1,0 -0.1,0.1 1.4,0.2 1.4,0.2 1.5,0.3 -1.2,0 -2.1,-0.2 -2.6,-0.4 0,0 0,0 0,0 0,0 0,0 0,0 -0.2,-0.2 -0.2,-0.2 -0.3,-0.3 0,0 0,-0.1 0,-0.1 -0.9,0.1 -1.8,0.6 -2.7,0.2 2.5,-0.5 2.5,-0.5 2.5,-0.6 0,0 0,-0.1 0,-0.1 0.1,0 0.1,-0.1 0.2,-0.2 -0.4,-0.1 -1.5,-0.1 -1.9,0 0,0 0,0.1 0,0.1 -1.1,0.2 -1.7,0.2 -1.9,0.1 -0.6,-0.1 -0.7,0.1 -0.7,0.2 0,0 0,0 -0.1,0 -1.3,0.3 -1.4,0.3 -1.5,0.2 0,0 1,-0.2 1.4,-0.4 -0.1,-0.1 -0.3,-0.2 -0.3,-0.4 -0.1,-0.1 -1.8,-0.4 -2.1,-0.1 0.1,0 0.2,0.1 0.3,0.1 0,0 0,0 -0.1,0 -0.3,0 -0.3,0 -0.4,0.1 0.1,0.1 0.2,0.1 0.4,0.1 -0.8,-0.1 -1.6,-0.2 -2.3,0.2 v 0.1 c 0.5,0.1 1.1,0 1.6,0.2 -0.4,0.1 -1.7,-0.1 -1.8,-0.1 v 0 c 0,0 0,0 0,0 -0.1,0 -0.2,0 -0.3,0 0,0 0,-0.1 -0.1,-0.1 -0.1,0 -0.2,-0.1 -0.3,-0.1 0,0 1.5,-0.2 2.3,-0.5 0,0 0,-0.1 0,-0.1 -0.9,-0.3 -1.7,0.3 -2.5,0.2 0,0 0.1,-0.1 0.1,-0.1 -0.3,-0.6 -1.8,-0.4 -1.9,-0.3 0.2,0 0.5,0 0.8,0.1 -1.1,0.1 -1.1,0.1 -1.3,0.2 0.5,0 0.5,0 0.7,0.1 -0.6,0.1 -0.6,0.1 -0.7,0.1 0.2,0 0.4,0 0.5,0.1 -0.7,0.1 -0.7,0.1 -1.3,0.4 0.4,0.1 0.8,0 1.2,0.1 0,0 0,0 0,0 -0.6,0.1 -0.6,0.1 -0.7,0.2 0.3,0 0.6,0 0.9,0 -1,0.2 -1,0.2 -1.1,0.3 0.3,0 0.5,0 0.8,0.1 -0.5,0 -0.5,0 -0.6,0.1 0.1,0 0.2,0.1 0.2,0.1 -0.5,0.2 -1,0 -1.4,0.2 0.5,0.1 1.5,0.3 1.6,0.6 0,0 0.8,0 1.2,-0.1 -0.7,-0.1 -0.7,-0.1 -0.7,-0.1 1.2,-0.1 1.2,-0.1 1.3,-0.2 0,0 0,-0.1 0.1,-0.1 -0.4,-0.1 -0.4,-0.1 -0.4,-0.1 0.5,-0.1 0.5,-0.1 0.9,-0.2 0,0 0,0 -0.1,0 -0.3,-0.1 -0.3,-0.1 -0.4,-0.1 0,0 1.4,-0.1 1.7,0 -0.4,0.1 -0.9,0.2 -1.3,0.4 0,0.1 0,0.2 0.2,0.3 0,0 0,0.1 0,0.1 0.4,0.1 0.8,0.2 1.6,0 0.3,-0.1 0.3,-0.1 0.5,0.1 -0.1,0.1 -0.1,0.1 -0.2,0.2 0.1,0 0.1,0 0.6,0 0,0 0.5,0.4 1.2,0 1,0.3 1,0.3 1.4,0 0,0 0,0 0,0 0,0 1.9,-0.2 2.1,-0.1 -0.4,0.1 -0.4,0.1 -0.5,0.2 0,0 0,0 0,0 0.3,0.1 0.5,0.2 0.8,0.2 0,0 0,0.1 0,0.1 0.8,-0.1 0.8,-0.1 0.9,0 -0.1,0.1 -0.3,0.1 -0.4,0.1 0,0 0,0.1 -0.1,0.1 0.1,0.1 1.1,0.2 1.4,0.1 -0.1,0 -0.2,-0.1 -0.2,-0.1 0.4,0 0.5,0 0.7,0.2 0.8,-0.1 0.8,-0.1 1,-0.1 -0.2,0.1 -0.4,0.1 -0.6,0.2 0,0 4.3,0.6 4.3,0.6 0,0 0,-0.1 0,-0.1 -0.1,0 -0.2,0 -0.3,0 0,0 0,-0.1 0,-0.1 0,0 0,0 -0.1,0 -0.1,0 -0.2,0 -0.3,-0.1 0,0 1.6,0.3 1.6,0.3 0,0 -0.1,0.1 -0.1,0.1 2,0.3 2,0.3 2.2,0.3 0.3,0 0.3,0 0.4,-0.1 v 0 c 0,0 0,0 0,0 0,0 0,0 0,0 0,0 0.1,-0.1 0.1,-0.1 -0.1,0 -0.2,0 -0.3,0 0,0 1.1,-0.1 1.5,-0.2 -0.3,0 -0.3,0 -0.4,-0.1 0.1,0 0.2,-0.1 0.4,-0.1 -0.2,0 -0.2,0 -0.6,-0.2 0.4,0 0.4,0 0.5,-0.1 0,0 0,-0.1 -0.1,-0.1 0,0 0.1,0 0.1,-0.1 0,0 -0.1,0 -0.1,0 0.2,0 0.3,0 0.4,-0.1 -0.1,0 -0.2,0 -0.2,0 0.3,0 0.3,0 0.4,-0.1 -0.3,-0.1 -0.6,0 -0.8,-0.1 0.3,-0.1 0.6,-0.1 0.8,-0.1 -0.1,0 -0.2,0 -0.3,0 0,0 0,-0.1 -0.1,-0.1 -0.5,0 -0.9,0.1 -1.4,0 0.1,0 0.2,0 0.3,-0.1 0,0 0,0 0,0 0,0 0,0 0.1,0 0.3,0 0.6,-0.1 1,-0.1 0,0 0,-0.1 0.1,-0.1 -0.6,-0.3 -1.3,0 -1.9,-0.1 0,0 0,0 0,0 -0.1,0 -0.2,0 -0.3,-0.1 0.6,-0.1 1.2,-0.1 1.7,-0.2 -0.3,0 -0.3,0 -0.4,-0.1 0.2,0 0.3,0 0.5,0 -0.1,0 -0.2,0 -0.2,-0.1 0,0 0,0 0.1,0 0,0 0.1,0 0.1,0 -0.3,0 -0.7,0 -1,-0.1 0.4,0 0.4,0 0.5,-0.1 0,0 0,0 -0.1,0 -0.3,0 -0.3,0 -0.5,-0.1 0.1,0 0.1,0 0.4,0 -0.7,-0.1 -1.5,0.2 -2.2,-0.1 v 0 c 0,0 0,0 0,-0.1 0.5,-0.1 1,-0.1 1.5,-0.2 -0.9,-0.2 -0.9,-0.2 -1.1,-0.2 0,0 0,0 0,0 -0.2,0 -0.4,-0.1 -0.5,-0.1 0.4,0 0.4,0 0.7,-0.1 -0.2,-0.1 -0.5,-0.1 -0.8,-0.2 0.1,0 0.2,0 0.3,0 0,0 0,-0.1 -0.1,-0.1 -0.6,-0.2 -0.6,-0.2 -0.9,-0.2 0.3,0.2 0.3,0.2 0.3,0.2 -3.7,0.1 -3.7,0.1 -3.9,0.2 0.5,-0.3 1.3,-0.8 1.8,-0.1 z"
   id="path32" />
		<path
   class="st2"
   d="m 378.9,70.1 c -0.9,-0.2 -1,-0.1 -1,0 0.1,0.1 0.2,0 0.2,0.1 0,0 -0.1,0 -0.1,0 0,0 0.2,0.1 0.9,0.2 0.4,0 0.6,0 0.7,0.1 0,0 0,0 0,0 0,0 0,0 0,0 0,0 0,0 0.1,0 0.4,0.1 1,0 1,0 v 0 c 0,0 0,0 0,0 -0.1,-0.1 -0.3,-0.1 -0.4,-0.2 0,0 0,0 0,0 0.1,0 0.6,-0.1 0.8,-0.1 0.1,0 0.1,0 0.1,0 0,-0.1 -0.1,-0.1 -0.2,-0.2 0,0 0,0 0,0 -0.2,-0.1 -0.4,-0.1 -0.6,-0.2 0,0 0,0 0,0 0,0 0.1,0 0.1,-0.1 -0.1,-0.1 -0.1,0 -0.2,-0.1 0.1,-0.1 0.2,-0.1 0.2,-0.1 v 0 c -0.1,-0.1 -0.5,-0.2 -0.7,-0.1 v 0 c 0,0 -0.1,0 -0.3,0 -0.3,0 -0.3,0 -0.4,0.1 0.1,0 0.2,0 0.3,0.1 0,0 0,0 -0.4,0 -0.8,0 -0.8,0 -0.8,0 0,0 0.1,0.1 0.5,0.1 0.3,0 0.4,0 0.5,0.1 0,0 0,0 0,0 -0.2,0 -0.4,0 -0.6,0 0,0 0,0 0.3,0.1 0.2,0 0.2,0 0.3,0.1 v 0 c 0.1,0.1 0.3,0 0.4,0.1 -0.1,0 -0.2,0 -0.2,0 -0.2,0 -0.2,0 -0.5,0 z"
   id="path33" />
		<path
   class="st2"
   d="m 383,74.4 c -0.7,-0.2 -1.4,0 -2.1,-0.2 0.1,0 0.2,0 0.2,-0.1 v 0 c 0,0 0,0 0,0 0,0 0,0 0,0 0.1,0 0.2,0 0.3,0 -0.2,0 -2.9,0.1 -2.9,0.1 0.2,0.1 0.2,0.1 0.2,0.1 -0.2,0 -0.3,0 -0.5,0.1 0.4,0.1 0.4,0.1 0.4,0.1 0,0 0,0 0,0.1 -0.1,0 -0.1,0 -0.4,0.1 -0.3,0 -0.3,0 -0.3,0.1 0,0 -0.6,0 -0.7,-0.2 0.1,-0.1 0.2,0 0.3,-0.1 -0.1,0 -0.2,0 -0.3,-0.1 0,0 0,0 0,-0.1 -0.3,0 -0.9,0.1 -0.9,0.1 0,0 0,0 0,0 -0.1,0 -0.3,0 -0.4,0 0,0 0,0 0,0.1 -0.2,0.1 -0.6,0.1 -0.7,0 -0.5,-0.3 -1,0.2 -1.4,0.2 0,0 0,0 0,0.1 0.2,0 0.3,0 0.5,0.1 -0.1,0.1 -0.1,0.1 -0.2,0.1 0.3,0 0.7,-0.2 1,0 -0.4,0.1 -0.9,-0.1 -1.3,0.2 0.4,0.1 0.9,-0.2 1.3,0.1 -0.2,0 -0.4,0 -0.6,0.1 0.7,0.1 1.4,-0.2 2.1,0.1 -0.4,0 -0.8,-0.1 -1.2,0 0.5,0.2 1.1,0.1 1.5,0.4 0,0 0,0.1 0,0.1 0,0 0.8,0 0.9,-0.1 -0.1,0 -0.1,0 -0.2,-0.1 0.5,0 0.5,0 0.6,-0.1 -0.1,0 -0.2,0 -0.2,-0.1 0.1,0 0.2,0 0.4,0 0.1,0 0.3,0 1,0 0.1,0 0.6,0 1,0 -0.1,0 -0.2,0 -0.4,-0.2 0.5,-0.2 1,0.1 1.5,-0.1 0,0 -0.1,0 -0.1,-0.1 0.3,0 0.3,-0.1 0.3,-0.1 0.2,0 0.4,0 0.6,0 0,0 0,0 0,-0.1 0,0 0,0 0.1,0 0.4,0 0.9,0 0.9,0 0.3,0 1.1,0 1.3,-0.1 0,0 0,0 0,-0.1 0.1,0 0.2,0 0.3,0 0,0 0,0 0,0 -0.4,-0.1 -0.8,0 -1.2,-0.2 0.1,0 0.1,0 0.2,0 -0.2,-0.1 -0.5,0 -0.9,-0.2 0.1,0 0.1,0 0,0 0.1,0 0.1,0 0,0 z"
   id="path34" />
		<path
   class="st2"
   d="m 375.6,73.9 c 0.1,0 0.2,0 0.3,0 0.1,0 0.2,-0.1 0.3,-0.1 0.3,-0.1 0.6,0 1,-0.1 0.1,0 0.2,0 0.4,-0.2 v 0 c -0.1,0 -0.6,-0.1 -0.9,-0.1 -0.8,0 -0.9,0 -1,0.1 -0.3,0.1 -0.5,0 -0.8,0 -0.1,0 -0.3,0 -0.4,0.1 -0.1,0.1 0.1,0.1 0.2,0.1 0,0 0,0 0,0 -0.1,0.2 -0.1,0.2 0.9,0.2 z"
   id="path35" />
		<path
   class="st2"
   d="m 375.3,71.3 c 0,0 0,0 0,0 -0.2,-0.1 -0.4,-0.1 -0.5,-0.2 0,0 0,-0.1 0,-0.1 -0.5,-0.1 -1,0.2 -1.6,0 0,0 0,0 0,-0.1 -0.2,0 -0.5,0 -0.6,0 -0.2,0.1 -1,0.1 -1.1,0 1,-0.4 2.1,-0.2 3.1,-0.4 0,0 0,0 0,0 0.4,-0.1 0.8,0 1.2,-0.2 0,0 0,0 0,0 0.4,0 0.7,0 1.1,0 0.1,0 0.1,0 0.1,-0.1 L 376.6,70 c 0,0 -1.3,-0.3 -1.4,-0.4 0,0 -0.6,0 -0.7,0.1 0,0 0,0 0,0 0,0 0,0 0,0 -0.3,0 -0.5,0 -0.8,0 0,0 0,0 0,0 0,0 0,0 0.1,0.1 -0.3,0 -0.5,0 -0.8,0 0,0 0,0 0,0 0.3,0.1 0.6,0.1 0.9,0.2 -0.5,0.1 -1,-0.3 -1.5,-0.1 0.1,0.1 0.2,0.1 0.4,0.2 -0.2,0.1 -0.5,0 -0.7,0.1 v 0 c 0.1,0.1 0.1,0.1 0.1,0.1 -0.2,0.1 -0.2,0.1 -0.7,-0.1 0,0 0,0 0,0 0.2,-0.1 0.4,0 0.5,-0.2 0,0 0,-0.1 -0.1,-0.1 0,-0.1 0.1,-0.1 0.1,-0.1 -0.3,0 -1.6,0.1 -1.7,0.2 0,0 0,0 0,0 0,0.1 -0.1,0.1 -0.2,0.1 0,0 0,0 0,0.1 0.1,0.1 0.3,0.1 0.4,0.2 -0.1,0.1 -0.3,0 -0.4,0.1 0,0 0,0 0,0.1 0.1,0 0.1,0.1 0.2,0.1 -0.1,0.2 -0.4,0.1 -0.6,0.1 0,0 0.1,0.1 0.2,0.1 -0.2,0 -0.4,0 -0.6,0 0,0 0,0 0,0 0,0 0,0 0,0 0,0 0,0 0,0 -0.1,0 -0.1,0 -0.1,0.1 0.2,0.1 1.4,0.2 1.4,0.2 0.2,0 0.6,0.1 1.4,-0.1 0,0 0,0 0,0 -0.2,-0.1 -0.4,0 -0.6,-0.1 0.2,-0.1 0.4,0 0.6,-0.1 0,0 0,0 0,0 0,0 0,0 0,0 0.9,-0.1 0.9,-0.1 1.3,0 0.2,0.4 1.7,0.5 2,0.4 z"
   id="path36" />
		<path
   class="st2"
   d="m 325.9,82.1 c -0.7,0.2 -1.1,0.3 -1.1,0.4 0.1,0.1 0.1,0.1 1.1,0 0.4,-0.1 0.4,-0.1 0.5,0 0,0 0,0.1 0,0.1 v 0.1 c 0.1,0 0.1,0 0.4,-0.1 0.6,-0.2 0.7,-0.2 0.8,-0.1 0,0 0,0 -0.1,0.2 0.1,0 0.2,0 0.3,0 -0.1,0 -0.1,0.1 -0.3,0.1 -0.2,0 -0.4,0.1 -0.5,0.1 -0.2,0.1 -0.2,0.3 -0.4,0.4 -0.2,0.1 -0.4,0.1 -0.6,0.2 0,0 0,0 0,0 0,0 -0.3,0.3 -1,0.8 0,0 0,0 0,0 0.3,0 0.6,0.1 0.8,0 0.3,-0.1 0.6,-0.3 0.6,-0.3 0,0 0,0 0,0 0.1,-0.2 0.3,-0.1 0.3,-0.3 0,-0.1 -0.2,-0.1 -0.3,-0.1 0,-0.1 0.2,-0.1 0.4,-0.2 0.4,-0.1 0.9,-0.1 1.8,-0.6 0.1,-0.1 0.1,-0.2 0.2,-0.3 0.2,-0.1 0.4,-0.2 0.6,-0.3 0.3,-0.2 0.6,-0.3 0.9,-0.4 0,0 0,0 0,0 0,0 0,0 0,0 0.3,-0.2 0.7,-0.3 1.1,-0.6 v 0 c -0.2,0 -0.3,0 -0.5,0 0,0 0,0 0,0 0.7,-0.3 1.5,-0.3 2.1,-0.8 -0.1,-0.1 -3.8,0.6 -4.6,0.9 -0.6,0.2 -0.6,0.2 -0.7,0.2 0,0 0,0 0,0 -0.5,-0.2 -0.5,-0.2 -1,-0.1 0,0 -0.2,0 -0.3,0.1 -0.1,0.1 0,0.2 0,0.2 0,0 0,0 0,0.1 0.1,0 0.2,0 0.3,0 0,0 0,0 0,0 0.1,0 -0.1,0.1 -0.8,0.3 z"
   id="path37" />
		<path
   class="st2"
   d="m 340.3,82.5 c -0.2,-0.2 -0.2,-0.2 -0.2,-0.2 -0.2,-0.1 -2.9,0.1 -3.3,0.7 0,0 -0.3,0.4 0.3,0.5 0.7,0 1.3,-0.2 2,-0.3 0,0 0.1,0 0.1,0 0.1,0 0.3,-0.1 0.4,-0.1 0.1,-0.1 0.6,-0.5 0.7,-0.6 z"
   id="path38" />
		<path
   class="st2"
   d="m 362.4,73.2 c 0,0 0,-0.1 0,0 -0.2,-0.1 -0.2,-0.1 -0.1,-0.3 0,0 0,0 0,0 0.2,-0.3 0.7,0 0.9,-0.4 -0.2,-0.1 -0.3,0 -0.4,0 -0.5,0.1 -2.8,0.3 -3.1,0.1 0.5,-0.4 1.3,0 1.8,-0.4 -0.3,-0.2 -1,-0.1 -2.3,0.2 -0.2,0 -0.3,0.1 -0.4,0.2 -0.4,0.1 -0.7,0.1 -1.1,0.2 -0.8,0.1 -1.5,0.2 -2.3,0.4 -0.4,0.1 -0.4,0.2 -0.5,0.2 0,0 0,0 0,0 0.4,0 0.8,-0.2 1.3,-0.1 -0.2,0 -0.4,0 -0.6,0.1 -0.1,0 -0.1,0 -0.2,0.1 0.1,0.2 0.1,0.2 1.8,0.2 0,0 2.4,-0.1 2.6,-0.2 -0.2,0 -0.2,0 -0.6,0 -0.7,0.1 -0.7,0 -0.8,0 0.4,-0.1 0.9,0 1.3,-0.2 0,0 0,0 0,0 -0.1,-0.1 -0.2,0 -0.2,-0.1 0.9,-0.3 1.9,0.5 2.9,0 z"
   id="path39" />
		<path
   class="st2"
   d="m 364.4,73.7 c -0.2,0.1 -0.4,0 -0.6,0.1 0,0 0,0 0,0 0,0 0,0 -0.3,0.2 0,0 0,0 0.5,0 1.1,0 1.4,0 1.6,-0.1 0,0 1.4,-0.2 1.5,-0.3 0,0 0,0 0,0 -0.1,-0.1 -0.3,0 -0.5,-0.2 v 0 c -0.2,-0.1 -0.4,0 -0.6,-0.1 -0.1,0 -0.2,-0.1 -0.2,-0.1 h -0.1 c -0.1,0 -0.4,0 -0.5,0.1 0,0 0.1,0 0.1,0 -0.2,0.1 -0.5,0 -0.7,0.1 -0.2,0.2 -0.2,0.3 -0.2,0.3 z"
   id="path40" />
		<path
   class="st2"
   d="m 369,73.2 c 0.5,0 1.8,0.1 2.1,-0.1 -0.1,-0.1 -0.3,0 -0.5,-0.1 0.1,0 0.1,0 0.4,-0.1 0.3,0 0.6,-0.1 0.5,-0.2 -0.2,0 -0.7,0 -0.9,0 0,0 -1.2,0.1 -1.5,0.1 0,0 0.8,-0.2 1.9,-0.2 0.4,0 0.4,0 0.5,-0.1 -0.2,-0.1 -0.8,-0.1 -1,-0.1 0,0 -1,0.1 -1.2,0 0,0 1,-0.1 1.3,-0.1 0,0 1.8,-0.1 2.3,-0.2 0,0 0,0 0,0 -0.3,0 -1.9,-0.1 -2.3,0 0,0 0,0 0,0 v 0 c -0.6,0.1 -1.1,0 -1.7,0.2 -0.3,0.1 -0.2,0.2 -0.2,0.3 -0.2,0.3 -0.4,0.3 -0.9,0.2 0,0 0,0 0,0 0,0 0.1,0 0.1,-0.1 v 0 c 0,0 -1.5,0 -1.7,0.1 v 0 c 0.1,0 0.1,0.1 0.2,0.1 0,0 0,0 0,0 -0.2,0.1 -0.4,0 -0.5,0.2 z"
   id="path41" />
		<path
   class="st2"
   d="m 350.5,77.2 c 0,0.1 0,0.1 0,0.1 0.1,0.1 0.1,0.1 0.2,0.1 0,0 0.1,0 0.1,0 0.4,-0.1 0.8,-0.3 1.1,-0.5 1,-0.4 2,-0.2 3,-0.4 0.1,0 0.2,-0.1 0.3,-0.1 0.8,-0.2 2.9,-0.1 3.2,0.1 0.2,0.1 0.4,0 0.8,-0.3 0,0 0,0 0,0 -0.9,-0.7 -0.9,-0.7 -5.1,-0.6 0,0 -1.9,0.2 -2.1,0.3 -0.1,0 -0.9,0.5 -0.9,0.5 0,0 0,0 0.2,0.1 -0.3,0.2 -0.8,0.1 -1.1,0.4 -0.2,0.1 0.2,0.2 0.3,0.3 z"
   id="path42" />
		<path
   class="st2"
   d="m 360.7,77.2 c 0.1,0.2 0.4,0.1 0.4,0.4 0.3,0.2 0.7,-0.1 1,-0.1 0.4,0 0.7,0.1 1,0.1 0,0 0.1,0 0.1,0 l 1,-0.3 c 0.1,-0.1 0.2,-0.2 0.3,-0.3 0.2,-0.1 0.4,-0.1 0.6,-0.2 0,0 0,0 0,0 0,0 0,0 -0.3,-0.2 0,0 0,0 0.4,-0.2 0,0 0,0 0,0 -0.1,-0.1 -0.3,-0.1 -0.4,-0.1 -0.1,-0.2 -0.3,-0.3 -0.5,-0.4 0,0 0,0 0,0 0,0 0,0 0,0 0.2,-0.1 0.3,-0.1 0.5,-0.2 -0.1,0 -0.2,0 -0.3,-0.1 0.3,-0.1 0.3,-0.1 0.3,-0.1 -0.1,0 -0.2,0 -0.2,-0.1 0.2,-0.1 0.4,0 0.5,-0.1 -0.4,-0.1 -0.4,-0.1 -0.5,-0.1 0,0 0.6,-0.1 0.9,-0.1 0,0 0.6,0 0.7,-0.1 0,0 0,0 0,0 0.2,0 0.3,0 0.5,-0.1 0,0 0,0 0,0 -0.1,-0.1 -0.2,-0.1 -0.2,-0.1 0.1,0 0.2,0 0.2,-0.1 0,0 0,0 0,0 0.8,-0.1 1.6,0.3 2.4,-0.1 v 0 c -0.1,-0.1 -0.1,-0.1 -0.2,-0.1 0.1,-0.1 0.3,-0.1 0.4,-0.2 v 0 c 0,0 0,0 0,0 -0.1,-0.1 -0.3,0 -0.4,0 -0.8,0 -1.6,0.2 -2.4,0.3 -0.6,0.1 -1.2,-0.1 -1.7,0 0,0 -1.6,0.1 -2.1,0.3 0.2,0 0.4,0 0.6,0.1 -0.3,0.1 -0.6,0.1 -0.9,0.2 0,0 0,0 0,0 -0.1,0.1 -0.4,0.1 -0.5,0.3 0.3,0.1 0.6,-0.1 0.9,0 -0.3,0.1 -0.3,0.1 -0.3,0.1 0,0 0,0 0,0 -0.1,0 -0.2,0 -0.7,0 -0.3,0 -0.3,0 -0.3,0.1 0,0 0,0 0.1,0.1 0,0 0,0 0,0 -0.1,0.1 -0.2,0.1 -0.3,0.3 0,0 0,0 0.1,0.1 -0.1,0.1 -0.3,0.1 -0.3,0.2 0.2,0.1 0.3,0 0.5,0.1 -0.1,0 -0.2,0 -0.3,0.1 0,0 0.1,0 0.1,0 0,0 0,0 0,0 -0.3,0.2 -0.3,0.2 -0.3,0.2 0,0 0,0 0,0 0,0 0,0 0,0 -0.1,0.1 -0.1,0.1 -0.1,0.1 0.4,0.1 0.7,-0.2 1.1,0 z"
   id="path43" />
		<path
   class="st2"
   d="m 370,69.1 c -0.1,0.2 -0.3,0.3 -0.4,0.5 0,0 0,0 0,0.1 0,0 3.4,-0.1 3.7,-0.3 -0.1,-0.1 -0.2,-0.1 -0.2,-0.1 0.9,-0.2 1.9,-0.1 2.8,-0.2 0,0 0,0 0,0 0,0 0,0 0,0 0,0 0,0 0,0 0.5,-0.2 1,-0.1 1.4,-0.3 -0.2,0 -1,-0.1 -1.4,-0.1 -0.6,0 -1.1,-0.2 -1.7,-0.3 0,0 0,0 0,0 -0.4,-0.1 -0.8,-0.2 -1.2,-0.2 -0.7,0 -1.4,0.1 -2.1,0.2 -0.6,0 -1.2,0 -1.7,0.1 0,0 -0.1,0 -0.1,0 0,0 0,0 0,0 -0.1,0 -0.1,0 -0.2,0.1 0,0 0,0 0.1,0 -0.1,0 -0.1,0 -0.3,0 -0.3,0 -0.3,0.1 -0.4,0.1 0.5,0.1 1.1,0 1.6,0.1 -0.2,0.1 -0.4,0 -0.6,0.1 0.2,0.1 0.5,-0.1 0.7,0.2 z"
   id="path44" />
		<path
   class="st2"
   d="m 401.3,194.6 c 0,0 -0.3,-0.2 -0.4,-0.3 -0.4,-0.2 -1,1.1 -0.9,1.3 0.1,0.2 0.3,0.3 0.4,0.3 0.2,0.1 0.4,-0.1 0.6,-0.1 0.5,0 1,0.5 1.3,0.8 0.2,0.2 0.8,0.7 1.6,1.2 0.2,0.1 0.4,0.2 0.6,0.3 0.3,0.3 0.6,0.7 0.9,0.9 0.1,0.1 0.3,0.2 0.7,0.2 0.2,0 0.6,0 1.1,-1.1 0.2,-0.4 -0.3,-0.7 -0.2,-1.2 0.2,-0.6 0.8,-1 1,-1.7 z"
   id="path45" />
		<path
   class="st2"
   d="m 391.9,180.6 c 0,0.2 0.2,0.8 0.5,1.5 0.1,0.1 0.2,0.2 0.3,0.3 0.2,0.2 0.2,0.5 0.4,0.7 0.1,0.2 0.2,-0.1 0.2,-0.1 0.1,-0.2 0.6,-1.7 0.7,-1.7 0,0 0.5,-2.7 0.2,-2.9 v 0 c 0,0 0,0 -0.3,0.5 0,0 -0.1,0.3 -0.4,0.3 -0.7,-0.2 -1.5,0.4 -1.6,0.4 0,0 0,0.1 0,0.1 0,0.1 0.1,0.1 0,0.3 0,0.2 -0.1,0.3 -0.1,0.5 0.1,0 0.1,0 0.1,0.1 z"
   id="path46" />
		<path
   class="st2"
   d="m 391,185.4 c 0,0.1 0,0.3 -0.1,0.8 -0.1,0.6 -0.2,0.7 -0.1,0.9 0,0.1 0,0.2 0,0.2 -0.1,0.3 -0.2,0.5 -0.2,0.7 0,0.4 -0.1,0.8 -0.2,1.2 0,0.1 0,0.2 0,0.2 0.4,0.5 0.4,0.5 0.5,0.5 0.5,-0.1 0.1,-0.8 0.6,-0.8 0.2,0 0.4,0.1 0.6,0.1 0.1,0 0.4,-0.1 0.5,-0.3 0.2,-0.2 0.2,-0.4 0.3,-0.6 0.1,-0.2 0.1,-0.5 0.5,-1.5 0.1,-0.2 0.2,-0.5 0.3,-0.7 0,0 0,-0.1 0,-0.1 0.1,-0.3 0.1,-0.5 0.1,-0.6 0,-0.2 -0.2,-0.3 -0.2,-0.5 0,-0.2 0.1,-0.4 0,-0.6 0,-0.1 -0.1,-0.1 -0.1,-0.1 v 0 c -0.6,0 -1.1,0.5 -1.8,0.5 -0.3,0 -0.5,-0.3 -0.8,-0.3 -0.6,-0.1 0,0.6 0.1,1 z"
   id="path47" />
		<path
   class="st2"
   d="m 427.6,198.2 c 0,0 0,0.5 0,0.6 0,0 -0.1,0 -0.1,0 v 0 c -0.1,0 -0.2,0 -0.4,-0.2 -0.2,-0.1 -0.3,-0.2 -0.4,-0.1 -0.1,0.2 -0.2,0.9 -0.1,1.3 0.2,0.5 0.5,1 0.6,1.5 0,0.2 0.2,0.7 -0.1,0.9 -0.4,-0.2 -0.3,-0.9 -0.8,-0.8 -0.2,0.1 -0.3,0.6 -0.6,0.4 -0.2,-0.1 -0.2,-0.3 -0.2,-0.8 -0.1,-0.6 -0.1,-0.7 -0.2,-0.8 -0.4,0.1 -0.7,0.5 -1.1,0.4 0,0 0,0 0,0 -0.2,-0.1 -0.1,-0.4 -0.3,-0.5 -0.1,-0.1 -0.2,0.1 -0.3,0 0,0 0,-0.1 0,-0.3 0.1,-0.2 0.2,-0.2 0.3,-0.4 0,0 0.2,-0.6 0.2,-0.9 -0.1,-0.5 -0.7,-0.6 -1,-1 z"
   id="path48" />
		<path
   class="st2"
   d="m 570,237.1 c 0.2,-0.1 0.4,-0.2 0.6,-0.3 0,0 0,0 0,0 v 0 m -247.1,13.7 c 9,10 57.8,25.5 73.5,30.8 15.7,5.3 96,27 96,27 l 0.3,-0.4 c 2.1,-2.9 3.8,-6.2 5.8,-11.4 0.5,-1.4 1.3,-2.6 1.9,-4 1.4,-3.1 1.4,-3.4 1.5,-3.9 0,-0.1 0,-0.2 0,-0.3 0.1,-1 0.6,-2 0.8,-3 0.2,-0.9 -0.2,-1.8 0,-2.7 0.1,-0.4 0.4,-0.8 0.5,-1.2 0,-0.1 0,-0.2 -0.1,-0.3 -0.4,0.1 -0.9,-0.2 -1.3,-0.1 -0.6,0.3 -0.5,1.1 -1.2,1.3 -0.6,0.2 -1.7,0.6 -1.8,0.6 0,0 -0.1,0.1 -0.2,0.1 -0.2,0.2 -0.3,0.3 -0.7,0.5 -0.6,0.3 -1.3,0 -1.9,0.1 -0.6,0.1 -0.9,0.6 -1.5,0.8 -0.2,0 -0.3,0.1 -0.5,0.1 h -0.1 c -1.6,0 -2.4,1.7 -4,1.7 -6.6,-0.1 -6.6,-0.1 -7.8,-1.9 -0.3,0 -0.8,0 -1.1,0 0.2,-0.6 0.7,-1.3 1.3,-1.7 0,-1.9 -2.4,-5.1 -7.1,-9.4 -0.3,-0.1 -0.3,-0.1 -0.3,-0.1 v 0 c -0.3,0.1 -0.7,0.2 -1,0.3 -0.1,-0.3 -0.2,-0.7 -0.3,-1 -0.1,0 -7.7,-8.2 -8.1,-17.4 -0.1,-2.2 -14.1,-29.7 -14.2,-29.9 0.4,-0.9 0.4,-0.9 0.4,-0.9 0.5,2.1 3.9,6.8 4.3,7 0.3,-0.2 0.6,-0.4 0.9,-0.6 -0.2,-2.2 0.7,-4.8 0.9,-5.3 0.3,2.9 0.3,2.9 -0.1,4.3 2.8,1.4 7.4,12.6 7.4,12.7 3.8,1.8 4.1,3.4 5.2,9.7 1,5.9 7.4,8.1 9.1,13.5 1.5,4.6 1.3,9.5 3.4,13.9 0.1,0.3 0.4,0.6 0.6,0.8 3.9,0.3 10.5,-4.7 10.5,-4.8 l 0.2,-0.2 c 9.6,-5.5 10.4,-6.5 11.2,-7.4 -1.6,-2.7 3.3,-4.9 4.5,-4.7 2.2,0.3 1.6,-2.7 2.7,-3.9 1.3,-1.4 1.7,-3.5 3.6,-4.4 0.5,-0.1 0.5,-0.1 0.6,-0.1 0.1,0 0.1,0 0.1,0 0.6,-1.7 -0.5,-3.4 0.2,-5.1 0.2,0.1 0.4,0.2 0.7,0.2 0,0 2.2,-7.3 2.2,-7.3 -0.2,-0.1 -0.5,-0.2 -0.7,-0.4 -1,-0.7 -0.7,-2.1 -1.7,-2.8 -1.5,-1 -3.5,-0.1 -4.8,-1.5 -0.6,-0.7 -0.6,-0.7 -2.1,-5.9 -1.6,2.5 -2.4,5.4 -4.4,7.6 -2.4,-0.1 -2.6,0 -3.6,0.8 -0.4,0.2 -0.4,0.2 -0.4,0.2 -0.6,-0.4 -1.1,-0.9 -1.7,-1.3 0.3,-1.6 0.2,-4.4 -0.9,-5.5 -0.2,0.1 -0.4,0.2 -0.6,0.3 -0.3,0.9 -0.2,2.3 0.1,4.2 0,0 -2.4,-3.5 -2.2,-5 -1.5,-2 -1.5,-2 -2.3,-2.8 -2.4,-2.3 -2,-6.2 -4.8,-8.2 1,-0.5 2.1,-0.9 3,-1.5 0.4,0.1 0.9,0.2 1.3,0.1 0.3,-0.2 0.3,-0.2 0.3,-0.2 0,0 0,0 0,0 1.2,1.7 7.3,10.3 10.7,10.2 0.1,0 0.1,0 0.1,0 0.4,0.1 1,0.3 1.3,0.5 0.2,0 0.5,-0.1 0.7,-0.1 3.3,-4.9 4.7,-1.2 5,-0.4 1.3,4.1 7.4,1.5 7.5,1.5 0.4,0.1 0.9,0.3 1.2,0.6 0.2,-0.1 0.4,-0.3 0.5,-0.4 0.2,0.1 0.4,0.2 0.6,0.3 1,-0.9 2.5,-0.7 3.4,-1.8 1.8,-0.2 3.5,-0.3 4.9,-1.9 0.9,0.5 1,1.5 1.6,2.2 0.4,0 0.9,0.2 1.2,0.4 -0.4,1.9 0.8,2.2 2.5,2.5 0.8,3.5 2.8,1.6 3.6,0.8 -0.1,0.8 -1.1,2.5 -2,2.9 0.4,1 3.2,3.5 4.1,3.7 1.6,-1.4 1.6,-1.5 1.5,-5.3 3.6,6.8 3.5,14.6 6.1,21.6 2.4,6.7 3.2,13.8 5.7,20.5 0.2,0.1 0.4,0.2 0.6,0.3 1,-1.6 0.6,-3.8 2.2,-5.2 -0.2,-2.1 0.2,-3.5 0.6,-4.3 0.3,-0.2 0.3,-0.2 0.3,-0.2 v 0 c 1.1,-6.2 -1.5,-12.2 -0.6,-18.4 0.2,-0.1 0.4,-0.3 0.6,-0.4 l 1.9,-22 11.1,1.9 -0.9,-7.8 -11.6,-1.5 1.1,-9 -8.1,0.1 -0.4,3.1 -9.5,-0.2 -0.5,4.9 -4.9,-0.5 -0.6,6.8 -6.8,-1.9 3.6,-25.2 -5.2,0.2 -2.8,18 -4.5,-0.2 -2,13.1 -5,1 1.1,-9.8 -6.1,-1 1.2,-10.5 h -3 l -1.5,9.9 -5.1,-0.8 0.5,-4.6 -13.4,-2 -1.1,6.9 -15.3,-3.3 0.6,-5.6 -11.2,-1.8 v -5.9 l -14.8,-2.2 v 1.4 c 2.2,0.2 3.4,2.4 5.7,2.5 1.9,0.1 2.9,-1 3.9,-2.2 2.4,0 4.1,0.1 4.1,0.1 -1.9,5.7 3.8,13.2 -3.4,17.6 -0.6,0.3 -1.5,0.4 -2.2,0.5 -6.9,0.2 -13.6,-2.2 -20.5,-2 -0.5,-0.5 -1.1,-1.2 -1.7,-1.6 -0.2,0 -0.2,0 -0.2,0 -1.4,-0.2 -1.4,-0.2 -4,-1.2 0,-0.3 0,-0.8 0,-1.1 -4,-3.7 -8.5,0.1 -8.6,1.7 -0.9,9.5 -10.9,1.2 -12,0.2 -0.5,-0.4 -0.5,-0.4 -1.4,-2.9 -0.1,0 -11,-4.3 -11.4,-6.5 -0.6,0.2 -1.4,0.2 -1.9,0 -0.1,-0.4 -0.1,-0.8 -0.2,-1.2 4,-3 4.3,-3.2 1.9,-6 0.5,-0.4 1.2,-0.9 1.7,-1.2 -0.1,-0.3 -0.2,-0.7 -0.3,-1 -0.3,0.1 -0.7,0.2 -1,0.3 -0.3,-0.6 -0.7,-1.4 -1.1,-1.9 -25.1,-1.9 -30.4,-2 -35.5,-0.4 -0.6,0.2 -1.9,0.6 -3.7,-1.3 -0.6,0.1 -1.5,0.2 -2.1,0.3 -0.8,-0.7 -1.1,-1.7 -2.1,-2.2 l -12.5,7.5 c -3.1,2.6 -3.3,5 -3.4,5.9 -0.2,2.5 -6.9,6.2 -10.6,5.3 0,0 0,0 0,0 0,0 0,0 0,0 -1.8,0.5 -3.4,0.8 -13.7,11.7 -5.7,5.9 -5.7,5.9 -5,7.9 0.4,1.1 2,2.3 0.1,8.3 0.2,0 9.9,1.7 18.9,11.7 z m 97.7,114.7 -39.5,-10 -1.9,2.6 c -0.9,0.3 -1,0.5 -1.2,1.3 -1.1,0.3 -1.2,1.7 -2.1,2.2 -0.3,1 -1.1,3.9 -2.8,4.6 0,0 -0.9,5.7 -0.8,6.1 l 6,11.4 c 2.2,3.3 -3.1,7.1 0.6,10.2 0,0 -0.6,3.6 2.5,4.7 4.2,9.7 4.2,9.7 2.1,9.2 0,0.2 -0.1,0.5 -0.2,0.7 0.8,1.1 0.8,1.1 1,1.5 -0.1,0.2 -0.3,0.4 -0.4,0.5 0.3,0.1 0.9,0.2 1.2,0.2 0.6,1.6 3.2,2.8 4.6,2.5 0.7,-1.9 11.8,-2.3 15.5,-1.8 4,0.6 25,-10.5 23.9,-15.3 0,0 0,-0.1 0,-0.1 2.7,-2.4 7.2,-1.1 9.5,-4.4 -0.1,-0.2 -0.1,-0.4 -0.2,-0.6 3.1,-5 1.4,-8 1.3,-8.1 0.6,-1.3 0.6,-1.3 17.4,-10.2 z m 26.5,-192.4 c 0,0.1 -0.1,0.1 -0.1,0.2 -0.6,0.1 -0.6,0.2 -0.7,0.4 0.5,0.7 1.1,0.5 1.6,0.4 0.6,-0.2 0.6,-0.2 1.4,0.7 -0.1,1.1 -1.7,0.3 -1.8,1.4 0.2,0 0.2,0 2.5,1.2 0.1,0.5 -0.2,0.9 -0.1,1.4 0,0.1 0.2,0.4 0.7,0.4 0.2,0 2.4,-1.6 2.5,-1.7 0,-0.1 0.1,-0.2 0.1,-0.2 -1.3,-0.7 -2,-1.7 -2,-2.9 m -9.6,-1.8 -9.2,-1.1 0.5,-6.6 -33.6,-4.8 0.8,-3.6 20.6,2.1 1.8,-5.2 15.6,1.9 0.6,-3.8 14.5,1.9 0.6,-5.8 9.9,1.5 1.4,-9.8 -35.5,-5 v -5.4 l 18.6,1.6 0.2,-2.9 -19,-2.8 -0.2,-6.8 3.2,0.6 1.6,-6.4 -14.4,-2.1 v 1 c -0.1,-0.1 -0.2,-0.2 -0.2,-0.3 -0.1,-0.1 -0.2,-0.2 -0.2,-0.2 -0.4,0.1 -1,0.2 -1.4,0.3 -0.1,0.2 -0.1,0.5 -0.2,0.7 -0.1,-0.2 -0.3,-0.4 -0.4,-0.6 -0.4,0.2 -0.8,0.6 -1,0.9 -0.1,-0.2 -0.2,-0.5 -0.3,-0.7 -0.2,0 -0.5,0.1 -0.7,0.1 -0.2,0.2 -0.2,0.2 -0.2,0.2 -0.3,0.3 -0.6,0.8 -0.7,1.2 -0.4,0.2 -0.8,0.6 -0.9,1 -0.2,0 -0.5,0.1 -0.7,0.1 -0.1,-0.2 -0.1,-0.5 -0.2,-0.7 -0.2,0.1 -0.4,0.3 -0.6,0.4 -0.3,-0.3 -0.3,-0.3 -0.3,-0.3 -1.1,1.1 -2.6,1.3 -3.8,2.2 2.7,-0.9 2.7,-0.9 4.2,-1.2 0.1,0.2 0.2,0.5 0.3,0.7 -1.8,0.6 -2.6,2.5 -4.3,3.3 -0.1,0.2 -0.1,0.5 -0.2,0.7 -0.2,0 -0.5,0.1 -0.7,0.1 -0.6,1.7 -1.7,4.5 -10.6,6.8 -4.3,1.2 -2.9,8.8 -2.9,8.9 0,0 1.9,3.3 5.1,1.5 l 3.9,-2.2 c 2.3,2.1 1.3,5.6 3.2,7.8 -0.3,0.3 -0.5,0.8 -0.6,1.3 0.3,0.3 0.5,0.8 0.5,1.2 0.6,0.4 1.3,0.4 1.9,0.7 0.2,-0.4 0.4,-0.9 0.4,-1.3 0.4,-0.1 1,-0.2 1.4,-0.3 0.6,0 0.6,0 0.6,0 0.5,0 1.3,0 2,-0.9 1.1,-1.5 0,-3.4 0.9,-4.9 0.8,-1.5 3.7,-0.9 3.6,-3.2 -2.6,-2.2 -2.6,-2.2 -0.9,-7.8 0.1,-0.2 0.3,-0.4 0.5,-0.6 0.7,-0.8 1.9,-0.6 2.6,-1.4 1,-1.2 0,-4 2.2,-4.2 0.2,0 0.5,0.1 0.7,0.2 0.6,0 0.6,0 0.6,0 v 0 c 1.7,0.6 1.7,0.6 2,0.7 0.1,0.4 0.3,0.9 0.5,1.3 -2.2,0.6 -2.2,3.8 -4.6,4.1 -0.1,0.1 -0.6,8.7 3.8,8.3 0.4,-0.2 0.4,-0.2 0.4,-0.2 l 4.6,-0.9 c 0.9,1.4 1.6,2.7 3,2.9 -2.6,1.8 -0.9,0 -4,-0.7 0,0 0,0 0,0 0,0 0,0 0,0 v 0 c -2.7,0.1 -2.9,0.1 -3.6,1.1 0.3,1.4 0.3,1.4 2,2.5 -0.5,1.5 0.6,2.8 0.8,4.1 -1.2,0.4 -1.2,0.4 -4.3,-3 -1,0 -1.5,0.1 -1.5,1.9 -0.2,0.1 -0.4,0.3 -0.6,0.4 0,1.3 0.5,2.6 0.5,3.9 -0.9,0.6 -0.9,0.6 -2.1,0.4 0,0.2 0.1,0.5 0.1,0.7 -2.3,2.4 -3.5,-0.4 -3.5,-0.4 -3,-1 -5.2,2.2 -8.1,1.7 -0.1,-0.4 -0.4,-0.9 -0.7,-1.2 -0.1,0 -0.1,0 -0.1,0 v 0 c 0.1,-0.2 0.2,-0.5 0.2,-0.7 -0.2,-0.1 -0.4,-0.4 -0.6,-0.5 -0.4,0.1 -1,0.2 -1.4,0.3 v 0 c -3,0.8 -3,0.8 -3.4,0.7 0,-0.2 0,-0.5 0,-0.7 0,0 -4.4,-1.9 -0.4,-5.2 0.3,-0.3 0.9,-0.4 1.2,-0.7 -0.6,-0.2 -0.6,-0.2 -0.4,-2.8 -0.2,-0.1 -0.4,-0.3 -0.6,-0.4 -4.2,3.3 -4.2,3.3 -4.3,4.3 0.7,0.8 0.9,2.4 0.6,4.8 -0.4,0 -0.9,0.3 -1.2,0.6 -0.4,-0.2 -0.4,-0.2 -2.1,-0.5 -0.2,0.2 -0.4,0.4 -0.6,0.5 -0.5,-0.1 -1.4,-0.2 -2.9,-0.2 -0.2,0.2 -0.4,0.4 -0.5,0.6 0,0.4 -0.1,1 -0.3,1.3 -0.3,-0.3 -0.6,-0.8 -0.7,-1.1 -4.1,2.8 -4.1,2.8 -8.7,4.5 -0.3,1.1 -0.3,1.1 -4.2,2.6 0.1,0.2 0.2,0.4 0.3,0.6 -0.5,0.1 -2.4,0.3 -3.3,-0.8 -0.5,-0.4 -0.5,-0.4 -0.5,-0.4 -0.2,0.1 -0.4,0.3 -0.6,0.4 0.2,0.9 0.2,1 -0.6,2.1 -0.9,-0.2 -1.9,-0.1 -2.8,-0.3 -0.2,-0.4 -0.7,-0.8 -1.1,-1 -0.2,0.1 -0.2,0.1 -2.4,0.1 -0.1,0.7 0.1,1.4 -0.2,2 0.9,0.2 1.8,0.7 2.7,1 0.1,0.2 0.1,0.5 0.2,0.7 2.1,0.6 0.5,3.6 2.8,4.1 0.1,0 0.1,0 0.1,0 0.1,1.2 -0.1,2.4 0.3,3.6 -0.3,-0.3 -0.6,-0.7 -1,-1 -1.3,1.5 -0.7,3.7 -2.2,5.2 -0.5,0.5 -1.9,1.6 -3,-0.1 -9,-1.2 -11.7,-4.3 -11.7,-4.3 -0.9,0 -0.9,0 -2,1 -0.5,-0.1 -1.3,-0.1 -1.8,-0.2 -0.2,0.1 -0.4,0.3 -0.5,0.5 0.2,1.9 0.4,3.2 -2.4,8.2 l -0.2,0.2 c -0.8,1.2 -2.3,1.9 -2.8,3.4 0.1,0.2 0.1,0.2 0.4,0.2 0.9,0 0.9,1.5 0.9,1.5 l -1.2,3 c -0.1,0.2 -0.4,0.3 -0.5,0.5 0.2,0.6 0.8,0.4 1.2,0.6 0.4,0.2 0.7,0.6 1,0.9 0.3,0.2 1.2,-0.1 1.8,-0.2 0.4,-0.1 0.7,-0.2 1.5,1 0.7,1.1 -0.3,3.2 1.5,3.5 0.5,0.1 0.8,-0.4 1,-0.6 0.2,-0.3 0.2,-0.3 3.7,-0.6 1.6,-0.1 2.9,1 4.5,0.8 1.2,-0.2 1.5,-1.7 2.7,-1.9 0.8,-0.1 1.6,0.4 2.4,0.2 0.1,0 0.1,-0.1 0.2,-0.1 0.3,-0.5 0,-1.3 0.6,-1.7 0.4,-0.3 1.1,-0.1 1.4,-0.6 -0.5,-2.1 -0.5,-2.1 -0.3,-2.6 0.3,-0.9 1.5,-0.9 1.9,-1.7 0,0 0.1,-0.1 0.1,-0.2 0.1,-0.2 0.3,-0.5 0.5,-0.7 2.4,-1.6 5.2,-1.7 7.8,-2.7 2.2,-0.9 1.2,-4.3 3.8,-4.9 2.4,-0.6 3.6,2.8 6.2,1.8 2.7,-1.1 6,-2.4 6.7,-2.3 2,0.2 3.2,2 3.2,2 1.8,4.8 6.9,6.9 8.9,11.5 0.4,0 1,0.1 1.5,0.2 l -0.5,1.1 8.8,1 -6,-4.9 c 0.1,-0.2 0.3,-0.4 0.4,-0.6 -0.1,-0.2 -0.3,-0.4 -0.4,-0.6 -1,-0.1 -2.4,-0.2 -3.2,-1.2 l -4.4,-8.8 c -0.1,-0.2 -0.2,-0.5 -0.2,-0.8 0.1,-0.2 0.3,-0.4 0.4,-0.6 0.7,0 1.4,-0.2 2.1,-0.3 0.6,0.9 0.7,1.9 1.6,2.6 0.1,-0.2 0.3,-0.4 0.5,-0.6 l 7.8,7.6 c 0.1,0.1 0.1,0.1 0.1,0.1 0.1,0 0.1,0 0.1,0 0.7,0.3 1.2,0.9 1.7,1.3 0.2,-0.1 0.4,-0.2 0.6,-0.2 0.3,0.4 0.7,0.8 1.1,1.1 0.2,0 0.5,-0.1 0.7,-0.1 0.5,2 -0.5,4 0.1,6 l 5.1,1.1 1.5,-7.2 12.4,1.8 -0.4,-1.6 c 0,0 0.2,-0.6 0.6,0 0,0 0.1,0.1 0.1,0.1 0,0 0.1,-0.1 0.2,-0.1 -0.1,-1.6 -0.1,-1.6 0,-2.3 0,-0.1 0,-0.1 0.1,-0.2 0.2,-0.4 0.7,-0.2 0.9,-0.6 0.2,-0.4 0,-0.9 0,-1.3 0,-0.2 0.5,-2.1 0.5,-2.1 0,0 0,0 0,0 1.3,-0.4 1.8,-2.7 1.8,-2.7 m 14.7,12.9 c -1.4,0 -1.4,0 -1.6,-0.1 -0.4,-0.2 -0.4,-0.8 -0.8,-1 -1.4,1 -2.9,-0.7 -4.3,0.1 l -1.2,0.6 8.1,1.2 z m 2.2,-12.3 -1.1,1.7 c -0.1,0 -0.3,0.1 -0.3,0.3 0,0.5 0,0.5 1.8,1.5 0.8,0.4 1.8,0.1 2.5,0.7 1.7,1.4 2.7,3.3 4.7,4.3 0.6,0.3 2.8,1.6 3,3.4 l -0.6,2.6 20.8,3 0.8,-6.4 -25.4,-2.4 1.1,-8 z m 6.5,108.3 c 0,0 0.8,-0.5 1.1,-0.5 0.3,0 0.3,0.2 0.3,0.3 0,0 0,0.1 0,0.1 0,0.1 0,0.1 0,0.2 0,0.2 -0.1,0.4 -0.1,0.6 0,0.2 0,0.4 -0.1,0.6 -0.1,0.2 -0.1,0.2 -0.2,0.2 0,0 0,0 -0.1,0 -0.1,0 -0.2,-0.1 -0.3,-0.1 -0.1,0 -0.1,0 -0.2,0 -0.1,0 -0.3,-0.1 -0.3,-0.1 -0.1,-0.3 -0.4,-1 -0.1,-1.3 z m -38.6,89.8 c 0,0 -0.1,0.1 -0.1,0.1 -0.6,0.2 -1.1,-0.2 -1.7,-0.1 -0.4,0.1 -1.2,0.6 -2,1.1 -0.8,0.5 -0.9,0.6 -1.3,0.6 -0.3,0 -0.1,-0.2 0,-0.4 0,0 0.5,-0.4 0.8,-0.5 l 2.6,-1.8 c 0.2,0 0.5,-0.1 1.5,0.4 0.1,0 0.2,0.3 0.2,0.5 z m 11.3,-2.5 c 0,0 -0.8,0.3 -1.2,0.3 -0.8,0 -2,-0.3 -2.1,-0.4 0,-0.1 0.2,-0.1 0.4,-0.1 0.5,0 0.6,0.1 0.6,0.1 0,0 0.1,0.1 0.4,0.1 0.3,0 0.5,-0.1 0.8,-0.1 0.4,0 1.1,0.1 1.1,0.1 z m 50.9,-150.5 c 0,0 0,0 0,0 v 0 c -0.6,0 -1.1,-0.2 -1.7,-0.2 v 0 c 0,0 0,0 0,0 0,0 0,0 0,0 0,0 0,0 0,0 -0.6,0 -1,-0.6 -0.8,-0.8 0.1,0 0.1,0 0.4,-0.1 0.1,0 0.3,0 0.3,-0.4 0,-0.7 0.2,-1.1 0.6,-0.9 0.1,0 0.2,0.1 0.3,0.3 0.2,0.3 0.3,0.7 0.5,1 0.1,0.1 0.1,0.1 0.2,0.3 0,0 0.5,0.4 0.4,0.6 0,0.1 0,0.2 -0.2,0.2 z m 0.5,-0.7 c -0.4,-0.4 -0.9,-1.1 -1.1,-1.7 0.2,-0.3 0.4,-0.7 0.6,-0.9 0.2,-0.1 0.4,-0.3 0.5,-0.4 0,0.2 0,0.5 0,0.7 -0.3,0.6 -0.3,0.8 -0.3,1 0.1,0.2 0.3,0.4 0.4,0.6 z m 3.3,1.5 c -0.3,0.1 -0.4,-0.2 -0.7,-0.1 0,0 0,0 0,0 -0.1,0.1 -0.1,0.2 -0.2,0.3 -0.2,0.1 -0.4,0.1 -0.5,0.3 -0.1,0.2 -0.2,0.2 -0.4,0.3 -0.2,0 -0.3,-0.2 -0.3,-0.3 0,-0.2 0.2,-0.3 0.2,-0.4 0,-0.1 0,-0.1 0,-0.3 0,-0.5 0.1,-1 0.3,-1.3 0.4,-0.5 1,-0.3 1.1,-0.2 0,0.1 -0.2,0.3 -0.3,0.3 -0.4,0.1 -0.2,0.3 -0.1,0.4 0,0 0.1,0.1 0.2,0.1 0.4,0.1 0.7,0.6 0.7,0.8 0.1,0.1 0.1,0.1 0,0.1 z"
   id="path49" />
		<path
   class="st2"
   d="m 430.1,206.1 c 0,0.1 0.1,0.1 0.2,0.2 0.3,0.2 0.6,0.2 0.9,0.3 0.2,0.1 0.2,0.4 0.4,0.5 0,0 0,0 0.1,0 0.3,0.1 0.7,-0.1 1,-0.1 0.2,0 0.2,0 1.4,0.2 0.3,0 0.7,0.1 0.7,-0.2 0,-0.2 -0.1,-0.2 -0.1,-0.2 -0.1,-0.1 -0.5,-0.1 -0.7,0.1 0,0 -0.1,0 -0.1,0 -0.1,0 -0.4,-0.2 -0.4,-0.6 0,-0.1 -0.1,-0.1 -0.1,-0.1 -0.3,-0.1 -0.4,0.2 -0.7,0.2 -0.5,0 -0.9,-0.5 -1.5,-0.5 -1.3,-0.2 -1.1,0 -1.1,0.2 z"
   id="path50" />
		<path
   class="st2"
   d="m 450.9,207.3 c -0.1,0 -0.1,0 -0.2,0 -0.1,0 -0.2,0 -0.3,0 -0.1,0 -0.2,0.1 -0.1,0.2 0,0.1 0.3,0.9 1.2,1.2 0.4,0.1 0.6,0.1 0.8,0.1 0.2,0 0.3,-0.2 0.5,-0.3 0.2,-0.1 0.4,-0.1 0.6,-0.1 0.3,-0.1 0.3,-0.1 0.4,-0.3 0,-0.1 0.1,-0.2 0.2,-0.3 0.1,-0.1 0.2,-0.1 0.3,-0.2 0.3,-0.2 0,-0.5 0,-0.8 0.1,-0.2 0.2,-0.3 0.3,-0.5 0,0 0,-0.1 0,-0.1 0,0 0,-0.1 0,-0.1 0,0 0,0 0,0 -0.5,0.1 -0.9,0.5 -1.5,0.5 -0.4,0 -0.9,-0.2 -1.3,-0.1 -0.2,0.1 0,0.3 -0.2,0.4 0.1,0.2 -0.6,0.4 -0.7,0.4 z"
   id="path51" />
		<path
   class="st2"
   d="m 465.1,427.2 c 0.5,-0.3 0.5,-0.3 0.6,-0.3 -0.1,0 -0.2,0.1 -0.3,0.1 0.1,-0.1 0.1,-0.1 0.2,-0.2 0,0 0,0 -0.1,0 -0.2,0.1 -2.6,1.4 -2.7,1.4 0.1,0 0.1,0 0.5,-0.2 0.4,-0.2 0.4,-0.2 0.5,-0.2 0,0 0.1,0 0.1,0 0,0 0.4,-0.1 0.6,-0.2 0.1,-0.1 1.3,-0.6 1.5,-0.7 0.3,-0.2 0.3,-0.2 0.4,-0.2 0,0 0,0 -0.3,0.1 -0.3,0.1 -0.6,0.3 -1,0.4 z"
   id="path52" />
		<path
   class="st2"
   d="m 469.9,372.8 c -1.5,1.7 -1.5,1.7 -1.6,1.9 0.2,0.4 0.2,0.4 0.1,0.6 -0.1,0.5 -0.6,0.7 -0.7,1.2 -0.1,0.3 0.5,0.3 0.4,0.7 -0.1,0.4 -0.3,0.7 -0.4,1.1 -0.7,2.6 -0.7,2.6 -1,2.9 -1.5,1.3 -1.8,1.7 -1.9,1.9 -0.6,0.8 -1.6,1.3 -2.2,2.1 -1.3,1.7 -1.7,2.2 -1.1,3 0.1,0 0.2,0 0.3,0 0,0 0.1,0.1 0.1,0.2 -1.2,1.5 -1.2,1.5 -1.5,4.2 1.6,1.8 1.6,1.8 7.1,-0.2 1.5,-0.6 3.8,-3.7 3.8,-3.7 1.6,-2.4 1.6,-2.4 8.7,-11 l 2.6,-4.6 z"
   id="path53" />
		<path
   class="st2"
   d="m 548.5,300.7 c 0,-0.3 -0.3,-0.4 -0.4,-0.6 -0.1,-0.3 0,-0.6 0,-0.8 0,-1.9 0,-1.9 0,-2 0.3,-2.1 0.3,-2.4 0.2,-2.7 -0.1,0 -0.1,0 -0.2,0 -0.3,0.1 -0.3,0.1 -0.5,5.2 0,0.3 0.2,0.7 0.1,1 -0.1,0.6 -0.1,1 0,1.2 0.1,0 0.2,-0.1 0.3,-0.1 0.3,0.3 -0.2,0.7 0.1,1 0.1,0 0.2,-0.1 0.3,-0.6 0.1,-0.3 -0.1,-0.7 -0.1,-1 0.1,-0.2 0.2,-0.4 0.2,-0.6 z"
   id="path54" />
		<path
   class="st2"
   d="m 549.2,296.7 c -0.2,-0.2 -0.2,-0.4 -0.2,-0.5 0,-0.8 0.5,-1.4 0.5,-2.2 0,0 0,-0.1 0,-0.1 0,0 -0.2,-0.8 -0.3,-0.9 0,-0.1 -0.1,-0.1 -0.1,-0.1 -0.2,0.1 -0.2,1.7 -0.2,1.7 0,0.4 0,1.5 -0.3,4.8 0,0.3 0,0.4 0,0.5 0,0 0,0 0,0 0.1,-0.1 0.6,-1.2 0.4,-1.3 -0.6,-0.5 0.2,-1 0.3,-1.6 0.1,-0.2 0,-0.2 -0.1,-0.3 z"
   id="path55" />
		<path
   class="st2"
   d="m 548.3,293 c 0,0 0.1,0 0,0 0.4,-0.4 0.4,-1 0.6,-1.4 0.1,-0.2 0.3,-0.1 0.5,-0.1 0,0 0,0 0,0 v 0 c 0.1,-0.1 0.1,-0.1 0.1,-0.2 0.1,-0.5 0,-0.7 -0.2,-1.1 -0.3,-0.5 0,-1 0,-1.4 0,-0.3 -0.5,-0.4 -0.5,-0.8 0,-0.9 0,-1 0.2,-1.5 0.1,-0.3 0.1,-0.3 0.1,-0.4 -0.2,0.2 -0.6,1.2 -0.7,1.7 0,0.2 0.2,0.5 0,0.7 -0.2,0.2 -0.3,0.7 -0.2,1.1 0,0.1 0.1,0.5 0,1.7 0,0.2 -0.1,0.4 -0.1,0.6 -0.1,0.4 0.2,1.1 0.2,1.1 z"
   id="path56" />
		<path
   class="st2"
   d="m 561.5,278 c -0.2,-0.3 0.1,-0.6 0,-0.9 0,-0.1 0,-0.3 -0.1,-0.4 -0.1,-0.6 -0.5,-1.1 -0.6,-1.7 -0.1,-0.5 -0.2,-0.9 -0.3,-1.4 0,0 -0.8,-2.6 -1,-2.9 0,0 0,0 -0.1,0 -0.7,0.7 -0.5,1.1 -0.5,1.1 0.1,0 0.1,0 0.2,-0.1 0.2,0.2 -0.1,3.5 -0.2,4.1 -0.2,0.6 0,4.1 0,4.1 0,0.2 0.3,3.7 0.5,3.8 0,0 0.1,0.1 0.2,0 0.2,-0.1 0.2,-0.4 0.4,-0.5 0.2,-0.1 0.4,0 0.6,-0.2 0.1,-0.1 0.2,-0.2 0.3,-0.4 0.4,-0.9 0.7,-2 0.8,-3.4 0.1,-0.1 0.1,-0.7 -0.2,-1.2 z"
   id="path57" />
		<path
   class="st2"
   d="m 570.5,246.9 0.2,5.6 c 0,0.5 0.1,0.6 0.1,0.7 0,0 0,0 0,0 0,-0.2 0,-0.2 -0.3,-6.1 z"
   id="path58" />
		<path
   class="st2"
   d="m 215.5,170.2 c 0,0 0,0 0,0 0,0 -0.4,0.8 -0.4,0.8 0,0 0,0 0.2,-0.3 0,-0.2 0.1,-0.4 0.2,-0.5 z"
   id="path59" />
		<path
   class="st2"
   d="m 209.4,206 c 0,0 0.1,-0.2 0,-0.3 0,0 0,0 0,0 -0.1,0 -0.1,0 -0.2,0.2 0,0.1 0,0.3 0,0.3 0,0.2 0.2,-0.1 0.2,-0.2 z"
   id="path60" />
		<path
   class="st2"
   d="m 208.7,203.8 c 0.1,-0.2 0.1,-0.4 0.1,-0.4 0,0 0,0 0,0 -0.1,0 -0.2,0.5 -0.2,0.5 -0.1,0.1 0,0.1 0.1,-0.1 z"
   id="path61" />
		<path
   class="st2"
   d="m 211.5,180.6 c 0,-0.1 0.2,-0.3 0.2,-0.5 0,0 0,0 0,0 0,0 0,0 -0.2,0.4 -0.1,0.2 -0.2,0.4 -0.1,0.4 -0.1,0 0,-0.1 0.1,-0.3 z"
   id="path62" />
		<path
   class="st2"
   d="m 211.8,179.2 c 0.1,-0.2 0.1,-0.3 0.1,-0.3 0,0 0,0 0,-0.1 -0.1,0 -0.3,0.5 -0.3,0.6 0.1,0 0.2,-0.1 0.2,-0.2 z"
   id="path63" />
		<path
   class="st2"
   d="m 222.8,163.9 c 0,0 0,0 0,0.1 -0.1,0.3 -0.2,0.4 -0.2,0.5 0,0 -0.1,0.1 -0.1,0.2 0,0 0,0.1 0,0.1 0,0 0,0 0,0 0,0 0.5,-1 0.5,-1.1 0,0 0,0 0,0 -0.1,-0.1 -0.2,0.1 -0.2,0.2 z"
   id="path64" />
		<path
   class="st2"
   d="m 214.3,207 c 0,0 0,0.1 0,0 -0.1,0.3 -0.1,0.5 -0.2,0.7 0,0.1 -0.1,0.3 -0.2,0.4 0,0 0,0.1 0,0.1 0,0 0.1,0 0.1,-0.1 0.1,-0.1 0.1,-0.2 0.2,-0.3 0.1,-0.2 0.2,-0.3 0.3,-0.5 0,0 0.1,-0.1 0.1,-0.1 0.1,-0.2 0.1,-0.3 0,-0.4 0,0 0,0 -0.1,0 0.1,-0.1 -0.1,0.1 -0.2,0.2 z"
   id="path65" />
		<path
   class="st2"
   d="m 339.9,72.1 c -0.2,0 -0.5,0.1 -0.8,0.2 0.4,-0.1 0.7,-0.2 1.1,-0.3 -0.8,0.2 -1.5,0.4 -2,0.5 0.5,-0.1 0.9,-0.2 1.4,-0.3 0.1,0 0.2,0 0.3,-0.1 z"
   id="path66" />
		<path
   class="st2"
   d="m 343.9,71.3 c -0.5,0.1 -1.1,0.2 -1.6,0.4 0.2,-0.1 0.5,-0.1 0.7,-0.2 0.3,-0.1 0.6,-0.2 0.9,-0.2 z"
   id="path67" />
		<path
   class="st2"
   d="m 400.6,67.6 c 0.9,0.1 1.8,0.1 2.6,0.2 -1.2,-0.1 -1.4,-0.1 -2.6,-0.2 z"
   id="path68" />
		<path
   class="st2"
   d="m 338.1,72.5 c 0,0 0,0.1 0,0 0,0.1 0.1,0 0,0 0.1,0 0.1,0 0,0 z"
   id="path69" />
		<path
   class="st2"
   d="m 328.4,75.3 c -0.6,0.2 -0.6,0.2 -0.9,0.3 0,0 -0.1,0 -0.1,0 0.1,0 0.2,-0.1 0.3,-0.1 0.2,-0.1 0.4,-0.1 0.6,-0.2 z"
   id="path70" />
		<path
   class="st2"
   d="m 241.6,131.5 v 0 0 0 0 c 0,0 0,0 0,0 -0.1,0.1 -0.1,0.1 -0.2,0.2 0.1,-0.1 0.2,-0.2 0.3,-0.3 0,0.1 0,0.1 -0.1,0.1 z"
   id="path71" />
		<path
   class="st2"
   d="m 336.6,73 c 0,0 0,0 0,0 0.5,-0.1 1,-0.3 1.5,-0.4 -1.1,0.2 -1.5,0.4 -1.5,0.4 z"
   id="path72" />
		<path
   class="st2"
   d="m 228.1,153.8 c -0.2,0.3 -0.2,0.3 -0.2,0.4 0,0 0,0 0,0 0.1,-0.1 0.2,-0.2 0.3,-0.4 0.1,-0.1 0.2,-0.1 0.2,-0.2 0,0 0.1,-0.1 0.1,-0.1 0.1,-0.1 0.2,-0.3 0.2,-0.4 v 0 c 0,0 0,0 0,0 0,0 0,0 -0.6,0.6 0.1,0 0.1,0.1 0,0.1 z"
   id="path73" />
		<polygon
   class="st2"
   points=""
   id="polygon73" />
		<path
   class="st2"
   d="m 202.8,202.2 c 0,0 0.1,0 0,0 0,0 -0.2,0.6 -0.2,0.7 0,0 0.1,-0.1 0.1,-0.2 0.1,-0.1 0.1,-0.4 0.1,-0.5 z"
   id="path74" />
		<polygon
   class="st2"
   points=""
   id="polygon74" />
		<path
   class="st2"
   d="m 240.8,132.5 c 0,0 0.1,-0.1 0,0 0.3,-0.3 0.4,-0.5 0.6,-0.7 -0.2,0.2 -0.4,0.4 -0.6,0.7 z"
   id="path75" />
		<polygon
   class="st2"
   points=""
   id="polygon75" />
		<path
   class="st2"
   d="m 239.8,133.6 c 0,0.1 -0.1,0.1 -0.2,0.2 0.4,-0.4 0.8,-0.9 1.2,-1.3 z"
   id="path76" />
		<path
   class="st2"
   d="m 240.8,132.5 v 0 c 0.1,-0.1 0.1,-0.1 0,0 z"
   id="path77" />
		<path
   class="st2"
   d="m 322.5,84.3 c 0.1,0 0.3,0 0.4,0 0,0 0.1,0 0.1,0 0,0 0.2,0 0.4,-0.1 0.2,0 0.2,-0.1 0.2,-0.1 0,-0.1 0,-0.2 -0.1,-0.2 0,0 0,0 0,0 0,-0.1 0.1,-0.1 0.1,-0.2 0,0 0,0 -0.1,0 -0.2,0 -0.3,0.1 -0.5,0.1 -0.2,0 -0.3,0 -0.4,0 0,0 -0.1,0 -0.2,0 -0.3,0.1 -0.6,0.3 -0.6,0.3 0,0 -0.1,0 0,0.1 0,0 0.1,0 0,0.1 0,0.1 -0.1,0.1 -0.2,0.1 0,0 0,0 0,0 0.1,0 0.1,0 0.4,0 0.1,-0.1 0.3,-0.1 0.5,-0.1 z"
   id="path78" />
		<path
   class="st2"
   d="m 373.5,75.9 c 0.4,0.1 0.7,0 1.1,0.1 -0.4,0 -0.7,-0.1 -1.1,-0.1 z"
   id="path79" />
		<path
   class="st2"
   d="m 377.4,70.5 c 0,0 0,0 0,0 -0.1,0.1 -0.1,0.1 -0.2,0.1 0,0 0,0 0,0.1 0.1,0 0.3,0 0.6,0 0.1,0 0.1,0 0.2,0 -0.1,-0.2 -0.6,-0.2 -0.6,-0.2 z"
   id="path80" />
		<path
   class="st2"
   d="m 219.1,195.3 c 0.1,-0.1 0.1,-0.5 0.1,-0.6 0,0 0,0 0,0 -0.1,0 -0.2,0.1 -0.3,0.2 -0.1,0.1 -0.1,0.2 0,0.3 0,0.1 0.1,0.3 0.2,0.1 z"
   id="path81" />
		<path
   class="st2"
   d="m 380.7,75.5 c 0.3,0 0.6,0 0.6,-0.1 -0.2,0 -0.4,0.1 -0.6,0.1 z"
   id="path82" />
		<path
   class="st2"
   d="m 571.3,260.7 c -0.1,-0.1 -0.1,-0.1 0,0 -0.1,0.1 -0.1,0.6 -0.1,0.6 0,0 0.1,-0.2 0.1,-0.4 0,-0.1 0,-0.2 0,-0.2 z"
   id="path83" />
		<path
   class="st2"
   d="m 302.7,93 c 0,0 0,0 0,0 -0.1,-0.1 -0.7,0.2 -0.8,0.3 0,0.1 0.2,0 0.5,-0.1 0.2,-0.1 0.3,-0.2 0.3,-0.2 z"
   id="path84" />
		<path
   class="st2"
   d="m 294.1,96.8 c 0,0 0.2,0 0.3,-0.1 0.2,-0.1 0.3,-0.2 0.3,-0.2 0,0 0,0 0,0 0,0 -0.2,0 -0.2,0.1 -0.2,0 -0.4,0.1 -0.4,0.2 z"
   id="path85" />
		<path
   class="st2"
   d="m 290.8,98.7 c 0,-0.1 -0.2,0 -0.3,0 -0.1,0 -0.3,0.1 -0.4,0.2 0,0 0.1,0.1 0.1,0.1 0.1,0 0.2,0 0.3,-0.1 0.3,0 0.3,-0.1 0.3,-0.2 v 0 0 c 0,0.1 0,0 0,0 z"
   id="path86" />
		<path
   class="st2"
   d="m 443.3,429.2 c -0.2,0 -0.4,0.2 -0.5,0.3 0,0.1 0.2,0 0.4,-0.1 0.1,0 0.2,-0.1 0.1,-0.2 0.1,0.1 0.1,0 0,0 z"
   id="path87" />
		<path
   class="st2"
   d="m 419.1,431.6 c -0.2,0 -0.4,0.1 -0.4,0.1 0,0 0,0.1 0.1,0.1 0,0 0,0 0,0 0.1,0 0.4,-0.1 0.4,-0.1 0,0 0,0 0,0 0.1,-0.1 0.1,-0.1 -0.1,-0.1 z"
   id="path88" />
		<path
   class="st2"
   d="m 570.9,255.7 c 0,0 0,0 0,0 0,0 0,0 0,0 v 0 c -0.1,0.1 0,1.2 0,1.3 0.1,-0.1 0,-0.7 0,-0.8 0.1,-0.3 0.1,-0.5 0,-0.5 z"
   id="path89" />
		<path
   class="st2"
   d="m 500.4,405.2 c 0,0 0.4,-0.2 0.5,-0.3 0.1,-0.1 0.1,-0.1 0.1,-0.1 0,0 0,0 0,0 -0.3,0.1 -0.6,0.4 -0.6,0.4 z"
   id="path90" />
		<path
   class="st2"
   d="m 500.3,405.2 c -0.2,0.1 -0.5,0.4 -0.5,0.5 v 0 c 0,0 0.3,-0.2 0.4,-0.3 0,-0.1 0.2,-0.2 0.1,-0.2 0.1,-0.1 0.1,0 0,0 z"
   id="path91" />
		<path
   class="st2"
   d="m 498.3,406.8 c -0.1,0.1 -0.4,0.3 -0.5,0.4 0,0 0.2,-0.1 0.3,-0.2 0.2,-0.1 0.3,-0.1 0.2,-0.2 v 0 c 0.1,0 0,0 0,0 z"
   id="path92" />
		<path
   class="st2"
   d="m 498.9,406.5 v 0 c -0.1,0 -0.3,0.2 -0.3,0.3 0,-0.1 0.1,-0.2 0.3,-0.3 -0.1,0 0,0 0,0 z"
   id="path93" />
	</g>
</g><g
     id="fairy_dust">
	<g
   id="XMLID_1_">
		<g
   id="g95">
			<path
   d="m 85.1,228.2 c 4.7,-5.4 17.9,-8.6 29.7,-9.4 3.5,-1.8 4,-6.6 8.7,-7.2 -21.3,-1.7 -32,19.5 -55.1,13.8 4.2,2.4 9,4 13,6.5 17.5,40.8 56,63.9 108.2,69 12,1.2 24.8,1.4 38.2,0.6 -8.6,3 -22.9,2.5 -33.3,1.5 18.2,23.9 44.4,39.6 82.6,43.5 1.1,-5.7 4.5,-9 5.1,-15.2 -16.7,-7 -32.7,-14.7 -37,-34 4.2,-6.4 8.6,-12.6 10.1,-21.7 6.6,-4.1 15.1,-5.1 26.8,-4.3 10.5,0.7 21.4,5.3 28.3,5.1 6.2,-0.2 18.9,-6.7 16.7,-14.5 -1.9,-6.6 -22.5,-8.5 -27.5,-13 -0.7,-1.5 -0.2,-4 -1.4,-6.5 -16.5,-7.1 -46.5,-11.9 -66.7,-4.3 -25.6,-13.2 -50.4,-27.3 -87.7,-29 5.5,4.1 10,5.3 12.3,10.1 13.1,27.8 -47,36.2 -41.3,2.2 -2.7,3 -2.4,9.3 -0.7,13 -2,1 -3.2,-5 -5.1,-6.5 -8,-0.2 -17,-1 -23.9,0.3 z m 74.6,3.6 c -0.3,-2.9 0.7,-6.9 -0.7,-8.7 18,3.8 32.9,10.6 45.6,19.6 0.4,0 0.8,0.6 0,0.7 -13.5,-5.3 -28.6,-9.1 -44.9,-11.6 z m 63,33.3 c -5.1,-2.9 -15.5,-10 -14.5,-16.7 1.2,-7.5 19.6,-9.7 30.4,-10.1 31.2,-1.4 60.1,10.9 78.2,20.3 -19.8,-7.6 -46,-16.2 -75.4,-14.5 -10.8,0.6 -24,1.4 -29.7,8.7 7.2,9.9 18.8,15.5 31.9,19.6 -4.8,0.1 -13.8,-3.2 -20.9,-7.3 z"
   id="path94" />
			<path
   d="m 271.3,274.5 c -2.8,-0.3 -13.3,-1.5 -12.3,8 0.9,-0.1 0.6,-1.3 0.7,-2.2 4.2,5.4 14.7,11.8 22.5,5.1 7.9,16 30,17.8 47.1,24.6 -18.3,-1.9 -35.2,-11.6 -56.5,-13 -1.9,2.2 -2.4,5.8 -5.1,7.2 -5.4,0.1 -8.5,-2.1 -10.9,-5.1 0.8,8.4 20,18.3 25.4,5.8 34.4,4.1 67.4,15.7 102.2,21.7 -13.9,-5.1 -29.9,-11.6 -46.4,-17.4 -16,-5.7 -33.5,-9.3 -44.9,-18.1 -5.8,-4.3 -12,-15.4 -21.8,-16.6 z"
   id="path95" />
		</g>
		<g
   id="g96">
		</g>
	</g>
</g><g
     id="text">
	<g
   id="g116">
		<path
   d="m 160.6,166.1 4.5,-9.4 18.7,1.8 -12.9,-13.9 3.8,-8 1.7,0.8 c -0.6,1.3 -0.7,2.1 -0.4,2.5 0.3,0.4 1.3,1 2.9,1.8 l 16.2,7.8 c 1.6,0.8 2.6,1.1 3.2,1.1 0.5,0 1.1,-0.6 1.7,-1.9 l 1.7,0.8 -4.9,10.1 -1.7,-0.8 c 0.7,-1.4 0.5,-2.3 -0.5,-2.8 l -2.1,-1.1 -16.8,-8.1 14.8,15.9 -1.1,2.3 -21.8,-2.1 17,8.2 2.2,1 c 1,0.5 1.9,0 2.5,-1.4 l 1.7,0.8 -3.6,7.4 -1.7,-0.8 c 0.6,-1.3 0.7,-2.1 0.4,-2.5 -0.3,-0.4 -1.3,-1 -2.9,-1.8 L 167,166 c -1.6,-0.8 -2.6,-1.1 -3.2,-1.1 -0.6,0 -1.1,0.6 -1.7,1.9 z"
   id="path96" />
		<path
   d="m 202.2,149.6 -1.6,-1.1 0.3,-0.6 c 0.2,-0.6 0,-1.4 -0.8,-2.4 l -1.2,-1.6 -16.4,-20.2 1,-1.6 25.2,6.9 2.3,0.5 c 1.2,0.3 2.1,0 2.6,-0.8 l 1.6,1.1 -5.8,8.8 -1.6,-1.1 c 0.8,-1.2 0.9,-2 0.5,-2.3 -0.3,-0.2 -1.4,-0.6 -3.1,-1 l -2.5,-0.7 -4.3,6.6 1.7,2 c 1.1,1.4 1.8,2.1 2.2,2.4 0.5,0.3 1.1,0 1.7,-1 l 1.6,1.1 z m -5.2,-10.9 3.7,-5.6 -10.4,-2.8 z"
   id="path97" />
		<path
   d="m 214.7,112.4 -1.5,-1.2 5.6,-6.8 9.9,8.2 c -1.5,3.2 -2.9,5.6 -4.2,7.2 -2.5,3 -5.6,4.5 -9.2,4.5 -3.6,0 -7.3,-1.6 -11,-4.7 -8.1,-6.7 -9.3,-13.4 -3.8,-20 1.6,-2 3.7,-3.7 6.1,-5.3 l 4.2,3.5 -1.4,1.7 -0.3,-0.2 c -2.2,-1.8 -4.5,-1.3 -6.8,1.5 -1.5,1.9 -1.8,3.9 -0.9,6 1,2.1 3.3,4.8 7.1,7.9 7,5.8 11.9,7 14.8,3.6 0.4,-0.4 0.6,-1 0.8,-1.6 l -4.5,-3.7 -1.9,-1.5 c -0.8,-0.9 -1.8,-0.5 -3,0.9 z"
   id="path98" />
		<path
   d="m 230.4,111.7 -1.3,-1.4 c 1.3,-1.3 1.6,-2.3 0.8,-3.1 l -1.6,-1.8 -12.5,-13 -1.7,-1.7 c -0.8,-0.8 -1.8,-0.6 -3.1,0.7 l -1.3,-1.4 6.4,-6.1 0.8,-0.8 1.1,-1.1 1.2,-1.2 c 3.9,-3.8 7.6,-3.9 11,-0.4 2.7,2.8 3.4,5.9 2,9.3 l 9.3,3.7 c 2.2,0.9 3.8,1.1 4.9,0.5 l 1.3,1.3 -4.9,4.7 -13.9,-5.6 -1.4,1.3 5.3,5.5 1.7,1.7 c 0.4,0.5 0.8,0.7 1.1,0.7 0.3,0 0.9,-0.4 1.8,-1.1 l 1.3,1.4 z m -13.1,-26.4 8.7,9 0.7,-0.7 c 2.7,-2.6 2.5,-5.6 -0.6,-8.9 -2.6,-2.7 -5.1,-2.9 -7.5,-0.6 z"
   id="path99" />
		<path
   d="M 247.2,95.5 246,94 l 0.5,-0.5 c 0.4,-0.4 0.4,-1.3 0,-2.6 L 245.9,89 237,64.6 l 1.5,-1.2 21.6,14.8 2,1.3 c 1,0.7 1.9,0.7 2.7,0.1 l 1.2,1.5 -8.4,6.4 -1.2,-1.5 c 1.1,-0.9 1.5,-1.5 1.2,-2 -0.2,-0.3 -1.1,-1 -2.6,-2 l -2.2,-1.5 -6.3,4.8 0.9,2.5 c 0.6,1.6 1,2.6 1.3,2.9 0.4,0.5 1,0.3 1.9,-0.4 l 1.2,1.5 z m -1.3,-12 5.3,-4 -8.9,-6.1 z"
   id="path100" />
		<path
   d="m 269.3,79.2 -1,-1.6 c 1.5,-1 2,-1.9 1.4,-2.9 l -1.2,-2.1 -11.3,-18.4 -2.6,1.6 c -1,0.6 -1.5,1.1 -1.4,1.6 0.1,0.5 0.5,1.2 1.1,2.3 l 0.3,0.4 -1.6,1 -3.2,-5.1 17.4,-10.7 3.2,5.1 -1.6,1 -0.3,-0.4 c -0.7,-1.1 -1.2,-1.8 -1.5,-2 -0.3,-0.3 -1,-0.1 -2,0.5 l -2.6,1.6 11.3,18.4 1.3,2 c 0.6,1 1.7,1 3.2,0 l 1,1.6 z"
   id="path101" />
		<path
   d="m 283.2,70.6 -0.8,-1.7 c 1.6,-0.8 2.2,-1.7 1.7,-2.7 l -0.9,-2.2 -7.8,-16.3 -1.1,-2.1 c -0.5,-1 -1.5,-1.1 -3.2,-0.3 l -0.8,-1.7 8,-3.8 5.4,11.4 5.4,-2.6 -2.8,-6 -1.1,-2.1 c -0.5,-1 -1.5,-1.1 -3.2,-0.3 l -0.8,-1.7 10.5,-5 0.8,1.7 c -1.6,0.8 -2.2,1.7 -1.8,2.7 l 1,2.2 7.8,16.3 1.1,2.1 c 0.5,1 1.6,1.1 3.2,0.3 l 0.8,1.7 -8,3.8 -6.5,-13.5 -5.4,2.6 3.9,8.1 1.1,2.1 c 0.5,1 1.5,1.1 3.2,0.3 l 0.8,1.7 z"
   id="path102" />
		<path
   d="m 305.7,60 -0.6,-1.8 c 1.7,-0.6 2.4,-1.4 2,-2.5 l -0.7,-2.3 -6,-17 -0.9,-2.2 c -0.4,-1.1 -1.4,-1.3 -3.1,-0.7 l -0.6,-1.8 17.9,-6.3 1.7,5 -1.8,0.6 -0.2,-0.5 -0.5,-1.2 c -0.3,-1 -1.3,-1.2 -3,-0.6 l -5.2,1.8 3.7,10.7 3.1,-1.1 1.4,-0.6 c 0.7,-0.2 0.9,-0.8 0.6,-1.6 l -0.2,-0.7 1.8,-0.6 2,5.7 -1.8,0.6 -0.2,-0.7 c -0.3,-0.8 -0.8,-1.1 -1.5,-0.9 l -1.4,0.5 -3.1,1.1 3,8.5 c 0.5,1.5 1,2.5 1.3,3 0.4,0.4 1.4,0.4 3.2,-0.3 l 1.4,-0.5 2.1,-0.8 c 0.6,-0.2 1,-0.5 1,-0.9 0,-0.4 -0.2,-1.1 -0.6,-2.3 l -0.2,-0.6 2,-0.7 1.8,5.2 z"
   id="path103" />
		<path
   d="m 324.5,53.3 -0.4,-1.9 0.6,-0.2 c 0.6,-0.2 0.9,-1 1.1,-2.3 l 0.2,-2 1.9,-25.9 1.8,-0.4 13.6,22.3 1.3,2 c 0.7,1 1.5,1.4 2.4,1.2 l 0.4,1.9 -10.3,2.4 -0.4,-1.9 c 1.4,-0.3 2,-0.8 1.9,-1.4 -0.1,-0.4 -0.6,-1.3 -1.5,-2.8 l -1.4,-2.2 -7.7,1.8 -0.2,2.6 c -0.1,1.7 -0.2,2.8 -0.1,3.2 0.1,0.6 0.8,0.7 1.9,0.5 l 0.4,1.9 z m 3.8,-11.5 6.5,-1.5 -5.7,-9.2 z"
   id="path104" />
		<path
   d="m 491.3,73.7 -18.1,-9.5 0.9,-1.7 c 1.6,0.8 2.7,0.8 3.2,-0.2 l 1.2,-2.1 8.4,-15.9 1,-2.2 c 0.5,-1 0,-1.9 -1.7,-2.8 l 0.9,-1.7 10.3,5.4 -0.9,1.7 c -1.6,-0.8 -2.7,-0.8 -3.2,0.2 l -1.2,2.1 -8.3,16 c -0.7,1.3 -1,2.2 -1.1,2.7 0,0.5 0.8,1.2 2.5,2.1 l 2.2,1.2 1.1,0.5 c 1.1,0.6 1.9,0.4 2.4,-0.6 l 0.6,-1 0.4,-0.6 2.1,1.1 z"
   id="path105" />
		<path
   d="m 491.7,73.9 1.1,-1.6 0.6,0.3 c 0.5,0.3 1.4,0 2.4,-0.8 l 1.6,-1.2 20.3,-16.3 1.6,1.1 -7.1,25.2 -0.5,2.3 c -0.3,1.2 0,2.1 0.8,2.6 l -1.1,1.6 -8.8,-5.9 1.1,-1.6 c 1.2,0.8 2,1 2.3,0.5 0.2,-0.3 0.6,-1.3 1,-3.1 l 0.7,-2.5 -6.6,-4.4 -2.1,1.6 c -1.4,1.1 -2.2,1.8 -2.4,2.1 -0.3,0.5 0,1.1 1,1.7 l -1.1,1.6 z m 11,-5.1 5.5,3.7 2.9,-10.4 z"
   id="path106" />
		<path
   d="m 511.6,87.3 1.2,-1.5 c 1.4,1.2 2.5,1.3 3.2,0.5 l 1.6,-1.8 11.6,-13.8 1.5,-1.9 c 0.7,-0.9 0.4,-1.9 -1,-3 l 1.2,-1.5 9.7,8.2 c 4.1,3.5 4.7,7 1.8,10.4 -2.2,2.6 -5.6,3.2 -10,1.8 3.2,4.2 3.4,7.9 0.8,11 -3.2,3.8 -7.2,3.8 -11.8,-0.1 z m 16.1,-5.3 -5.4,6.4 c -1.2,1.4 -1.8,2.3 -1.9,2.8 -0.1,0.5 0.3,1.2 1.2,1.9 2.1,1.8 4.4,1.2 6.9,-1.8 2.9,-3.4 2.8,-6.4 -0.3,-8.9 z m 1.2,-1.5 0.5,0.4 c 2.8,2.3 5.4,1.9 8.1,-1.1 2.5,-2.9 2.2,-5.6 -0.6,-8 l -0.3,-0.2 z"
   id="path107" />
		<path
   d="m 536.9,111.3 c -2.2,-2.3 -2.9,-5.1 -2.1,-8.4 0.8,-3.3 2.9,-6.6 6.4,-9.9 3.5,-3.3 7,-5.3 10.3,-5.9 3.3,-0.6 6.1,0.3 8.3,2.7 2.2,2.4 3,5.2 2.2,8.5 -0.7,3.3 -2.9,6.6 -6.4,9.9 -3.6,3.4 -7.1,5.4 -10.4,5.9 -3.2,0.6 -6,-0.4 -8.3,-2.8 z m 1.7,-1.2 c 1.8,1.9 6.1,-0.3 12.9,-6.7 6.5,-6.1 8.8,-10.2 7,-12.1 -1.8,-1.9 -6.1,0.2 -12.7,6.5 -6.7,6.2 -9.1,10.3 -7.2,12.3 z"
   id="path108" />
		<path
   d="m 545.9,119.9 1.5,-1.2 c 1.1,1.5 2.1,1.9 3,1.2 l 2,-1.4 14.4,-10.8 1.9,-1.5 c 0.9,-0.7 0.8,-1.7 -0.3,-3.2 l 1.5,-1.2 5.3,7.1 0.7,0.9 1,1.2 1,1.3 c 3.3,4.4 3,8 -0.9,10.9 -3.1,2.4 -6.3,2.7 -9.5,0.9 l -4.8,8.8 c -1.2,2.1 -1.5,3.7 -1.1,4.8 l -1.5,1.1 -4.1,-5.5 7.3,-13.1 -1.2,-1.5 -6.1,4.6 -1.9,1.5 c -0.5,0.4 -0.8,0.7 -0.8,1 0,0.3 0.2,0.9 0.9,1.9 l -1.5,1.2 z m 27.8,-9.9 -10,7.5 0.6,0.8 c 2.3,3 5.2,3.2 8.9,0.4 3,-2.3 3.5,-4.7 1.5,-7.4 z"
   id="path109" />
		<path
   d="m 559.9,138.5 1.7,-1 0.4,0.5 c 0.4,0.5 1.2,0.6 2.5,0.3 l 2,-0.4 25.3,-5.9 1,1.6 -17.3,19.6 -1.5,1.9 c -0.8,0.9 -0.9,1.8 -0.4,2.7 l -1.7,1 -5.4,-9.1 1.7,-1 c 0.7,1.2 1.4,1.7 1.9,1.4 0.3,-0.2 1.1,-1 2.3,-2.3 l 1.7,-2 -4,-6.8 -2.6,0.6 c -1.7,0.4 -2.7,0.7 -3.1,0.9 -0.5,0.3 -0.5,1 0.1,2 l -1.7,1 z m 12.1,0.2 3.4,5.7 7.1,-8.1 z"
   id="path110" />
		<path
   d="m 573.5,162.4 1.7,-0.8 c 0.8,1.7 1.6,2.2 2.7,1.8 l 2.2,-0.9 19.6,-9 -1.3,-2.8 c -0.5,-1.1 -1,-1.6 -1.4,-1.6 -0.4,0 -1.2,0.3 -2.4,0.8 l -0.4,0.2 -0.8,-1.7 5.5,-2.5 8.5,18.5 -5.4,2.6 -0.8,-1.7 0.4,-0.2 c 1.2,-0.5 1.9,-1 2.2,-1.3 0.3,-0.3 0.2,-1 -0.3,-2.1 l -1.3,-2.8 -19.6,9 -2.1,1.1 c -1,0.5 -1.2,1.5 -0.4,3.2 l -1.7,0.8 z"
   id="path111" />
		<path
   d="m 583.2,187.8 c -1,-3 -0.5,-5.8 1.6,-8.5 2.1,-2.7 5.4,-4.8 10,-6.3 4.6,-1.6 8.5,-1.9 11.8,-1 3.3,0.9 5.4,2.8 6.5,5.9 1,3.1 0.5,6 -1.5,8.6 -2.1,2.7 -5.4,4.8 -9.9,6.4 -4.7,1.6 -8.7,1.9 -11.9,1.1 -3.4,-1 -5.6,-3.1 -6.6,-6.2 z m 2,-0.5 c 0.8,2.5 5.7,2.2 14.5,-0.7 8.5,-2.9 12.3,-5.6 11.4,-8.1 -0.9,-2.5 -5.6,-2.3 -14.2,0.6 -8.7,2.9 -12.6,5.7 -11.7,8.2 z"
   id="path112" />
		<path
   d="m 587.8,199.3 1.9,-0.4 c 0.4,1.8 1.1,2.6 2.2,2.3 l 2.4,-0.4 17.6,-3.8 2.3,-0.6 c 1.1,-0.2 1.4,-1.2 1,-3 l 1.9,-0.4 1.9,8.6 0.3,1.1 0.4,1.5 0.4,1.6 c 1.2,5.3 -0.6,8.5 -5.4,9.5 -3.8,0.8 -6.8,-0.2 -9,-3.2 l -8,5.9 c -1.9,1.4 -2.9,2.7 -3,3.9 l -1.8,0.4 -1.5,-6.7 12.1,-8.9 -0.5,-1.7 -7.5,1.6 -2.3,0.6 c -0.6,0.1 -1,0.3 -1.1,0.5 -0.1,0.2 -0.2,0.9 0,2.1 l -1.9,0.4 z m 29.3,2.6 -12.2,2.7 0.2,0.9 c 0.8,3.7 3.4,5.1 7.9,4.1 3.7,-0.8 5.2,-2.8 4.5,-6.1 z"
   id="path113" />
		<path
   d="m 592.7,223.4 1.9,-0.2 c 0.2,1.8 0.9,2.7 2,2.5 l 2.4,-0.2 17.9,-2.2 2.4,-0.4 c 1.1,-0.1 1.5,-1.1 1.3,-2.9 l 1.9,-0.2 1.4,11.6 -1.9,0.2 c -0.2,-1.8 -0.9,-2.7 -2,-2.5 l -2.4,0.2 -17.9,2.2 -2.4,0.4 c -1.1,0.1 -1.6,1.1 -1.3,2.9 l -1.9,0.2 z"
   id="path114" />
		<path
   d="m 594.4,236.7 1.9,-0.1 c 0.1,1.8 0.7,2.7 1.8,2.7 h 2.4 l 18,-0.8 2.4,-0.2 c 1.1,0 1.6,-1 1.6,-2.8 l 1.9,-0.1 0.8,18.9 -5.3,0.2 -0.1,-1.9 h 0.5 l 1.3,-0.1 c 1,0 1.5,-0.9 1.4,-2.7 l -0.2,-5.5 -11.3,0.5 0.1,3.3 0.1,1.5 c 0,0.7 0.5,1.1 1.4,1.1 h 0.7 l 0.1,1.9 -6,0.3 -0.1,-1.9 h 0.7 c 0.9,0 1.3,-0.4 1.3,-1.2 v -1.5 l -0.1,-3.3 -9,0.4 c -1.6,0.1 -2.7,0.2 -3.3,0.4 -0.5,0.2 -0.8,1.3 -0.7,3.2 l 0.1,1.5 0.2,2.2 c 0,0.7 0.2,1.1 0.6,1.2 0.4,0.1 1.2,0.1 2.4,0.1 h 0.6 l 0.1,2.2 -5.5,0.2 z"
   id="path115" />
		<path
   d="m 595.6,258.1 6.1,0.3 -0.1,2.2 c -3.5,-0.2 -5.4,1.5 -5.6,4.9 -0.2,2.9 1.5,4.5 5,4.7 2,0.1 3.9,-1 5.5,-3.3 l 1.2,-1.7 c 2.9,-4.1 6.2,-6.1 9.8,-5.9 2.5,0.1 4.5,1 6,2.7 1.4,1.6 2.1,3.8 2,6.4 -0.1,2 -0.7,4.4 -1.7,6.9 l -5.4,-0.3 0.1,-2.2 c 3.2,0.2 4.9,-1.1 5,-3.9 0.1,-2.7 -1.3,-4.1 -4.4,-4.3 -1.8,-0.1 -3.5,1 -5.2,3.3 l -1.3,1.7 c -3.1,4.2 -6.4,6.2 -9.9,6 -2.8,-0.1 -4.9,-1.1 -6.5,-3 -1.6,-1.8 -2.2,-4.2 -2.1,-7.2 0.1,-2.1 0.6,-4.5 1.5,-7.3 z"
   id="path116" />
	</g>
	<g
   id="g135">
		<path
   d="m 182,343.1 1.2,-0.5 c 2.3,-0.9 2.8,-2.8 1.7,-5.8 -1.8,-4.6 -6.8,-5.3 -15.2,-2 -8.1,3.1 -11.2,7.3 -9.2,12.4 0.8,2.1 2.1,3.9 4,5.3 l -2.3,0.9 c -1.9,-1.8 -3.3,-4 -4.4,-6.7 -1.5,-3.9 -1.4,-7.4 0.3,-10.6 1.7,-3.2 4.8,-5.6 9.3,-7.4 4.6,-1.8 8.5,-2.1 11.9,-0.9 3.3,1.2 5.8,3.7 7.3,7.5 0.9,2.3 1.5,5 1.7,8 l -5.4,2.1 z"
   id="path117" />
		<path
   d="m 163.1,357.8 1.7,-0.9 c 0.8,1.6 1.7,2.1 2.7,1.6 l 2.1,-1 15.7,-8.2 2.1,-1.2 c 1,-0.5 1,-1.6 0.2,-3.1 l 1.7,-0.9 4,7.7 0.6,1 0.8,1.3 0.8,1.4 c 2.5,4.8 1.6,8.2 -2.7,10.4 -3.4,1.8 -6.6,1.6 -9.4,-0.7 l -6.1,7.7 c -1.5,1.8 -2.1,3.3 -1.8,4.4 l -1.6,0.8 -3.1,-6 9.2,-11.5 -0.9,-1.7 -6.7,3.5 -2,1.2 c -0.6,0.3 -0.9,0.6 -0.9,0.8 -0.1,0.3 0.1,0.9 0.5,2 l -1.7,0.9 z m 28.5,-5 -10.9,5.7 0.4,0.8 c 1.7,3.3 4.6,3.9 8.5,1.8 3.3,-1.7 4.2,-4 2.7,-7 z"
   id="path118" />
		<path
   d="m 175.7,381.4 1.6,-1 c 1,1.5 1.9,1.9 2.9,1.3 l 2,-1.2 14.8,-9.7 1.9,-1.4 c 0.9,-0.6 0.9,-1.7 -0.1,-3.2 l 1.6,-1 10.2,15.5 -4.3,2.9 -1,-1.6 0.4,-0.3 1.1,-0.8 c 0.8,-0.6 0.8,-1.5 -0.1,-3 l -3,-4.6 -9.3,6.1 1.8,2.7 0.9,1.2 c 0.4,0.6 1,0.7 1.7,0.2 l 0.6,-0.4 1,1.6 -4.9,3.2 -1,-1.6 0.6,-0.4 c 0.7,-0.5 0.9,-1 0.5,-1.6 l -0.8,-1.3 -1.8,-2.7 -7.4,4.9 c -1.3,0.9 -2.2,1.6 -2.5,2 -0.3,0.4 0,1.4 1,3 l 0.8,1.2 1.3,1.8 c 0.4,0.6 0.7,0.8 1.1,0.7 0.4,-0.1 1,-0.5 2.1,-1.2 l 0.5,-0.3 1.2,1.8 -4.5,3 z"
   id="path119" />
		<path
   d="m 188.2,400.3 1.5,-1.2 0.5,0.5 c 0.4,0.4 1.3,0.4 2.5,-0.1 l 1.8,-0.7 23.8,-9.5 1.2,1.4 -13.9,21.6 -1.2,2 c -0.6,1 -0.6,1.9 0,2.7 l -1.5,1.2 -6.6,-8.1 1.5,-1.2 c 0.9,1.1 1.6,1.5 2,1.1 0.3,-0.2 0.9,-1.1 1.9,-2.6 l 1.4,-2.2 -4.9,-6 -2.4,1 c -1.6,0.6 -2.6,1.1 -2.9,1.3 -0.4,0.4 -0.3,1 0.4,1.9 l -1.5,1.2 z m 11.8,-1.6 4.1,5.1 5.7,-9 z"
   id="path120" />
		<path
   d="m 207.7,423.1 1.3,-1.3 c 1.3,1.3 2.3,1.5 3.1,0.7 l 1.7,-1.6 15.1,-15 -2.1,-2.1 c -0.8,-0.8 -1.4,-1.2 -1.8,-1 -0.4,0.2 -1,0.7 -1.9,1.6 l -0.3,0.3 -1.3,-1.3 4.2,-4.2 14.1,14.2 -4.2,4.2 -1.3,-1.3 0.3,-0.3 c 0.9,-0.9 1.4,-1.5 1.6,-1.9 0.2,-0.4 -0.2,-1 -1,-1.8 l -2.1,-2.1 -15.1,15 -1.6,1.7 c -0.8,0.8 -0.5,1.8 0.7,3.1 l -1.3,1.3 z"
   id="path121" />
		<path
   d="m 228.9,443.9 c -2.4,-2 -3.4,-4.6 -3.1,-8 0.4,-3.3 2.1,-6.8 5.1,-10.5 3,-3.7 6.1,-6 9.3,-7 3.2,-1 6,-0.4 8.5,1.6 2.5,2 3.5,4.7 3.2,8 -0.3,3.3 -2,6.8 -5,10.4 -3.1,3.8 -6.2,6.1 -9.4,7 -3.2,1.1 -6.1,0.6 -8.6,-1.5 z m 1.5,-1.4 c 2,1.7 5.9,-1.1 11.7,-8.1 5.6,-6.8 7.4,-11 5.3,-12.7 -2,-1.7 -5.9,0.9 -11.6,7.8 -5.7,7 -7.5,11.3 -5.4,13 z"
   id="path122" />
		<path
   d="m 241.4,453 1,-1.6 c 1.5,1 2.6,1 3.2,0.1 l 1.4,-1.9 9.7,-14.8 1.2,-2 c 0.6,-0.9 0.2,-1.9 -1.3,-2.9 l 1,-1.6 7.3,4.8 1,0.6 1.3,0.8 1.4,0.9 c 4.5,2.9 5.4,6.4 2.8,10.4 -2.1,3.2 -5,4.6 -8.5,4 l -1.6,9.7 c -0.4,2.3 -0.2,3.9 0.6,4.8 l -1,1.5 -5.6,-3.7 2.4,-14.5 -1.6,-1 -4.2,6.3 -1.2,2 c -0.3,0.5 -0.5,0.9 -0.4,1.2 0.1,0.3 0.5,0.7 1.4,1.5 l -1,1.6 z m 22.4,-18.3 -6.8,10.3 0.8,0.5 c 3.1,2 5.9,1.2 8.4,-2.5 2,-3.1 1.7,-5.6 -1.1,-7.4 z"
   id="path123" />
		<path
   d="m 264.5,467.3 2.8,-5.3 1.9,1 c -1.6,3.1 -0.9,5.4 2.1,7 2.6,1.3 4.6,0.5 6.2,-2.5 0.9,-1.8 0.7,-3.9 -0.7,-6.3 l -1,-1.8 c -2.5,-4.3 -2.9,-8 -1.3,-11.1 1.2,-2.2 2.8,-3.6 4.8,-4.3 2.1,-0.6 4.2,-0.3 6.5,0.9 1.8,0.9 3.6,2.4 5.5,4.4 l -2.5,4.7 -1.9,-1 c 1.5,-2.8 1,-4.8 -1.4,-6.1 -2.4,-1.2 -4.2,-0.5 -5.7,2.2 -0.8,1.6 -0.5,3.6 0.8,6 l 1,1.8 c 2.5,4.5 2.9,8.3 1.3,11.4 -1.3,2.4 -3,3.9 -5.3,4.6 -2.3,0.6 -4.7,0.3 -7.3,-1.1 -1.7,-1.2 -3.7,-2.6 -5.8,-4.5 z"
   id="path124" />
		<path
   d="m 305.5,486.7 c -3,-1 -4.9,-3.1 -5.7,-6.4 -0.8,-3.2 -0.5,-7.1 1,-11.6 1.5,-4.5 3.6,-7.8 6.3,-9.8 2.6,-2 5.5,-2.5 8.5,-1.5 3,1 5,3.2 5.8,6.4 0.9,3.2 0.5,7.1 -1,11.5 -1.6,4.6 -3.7,7.9 -6.3,9.9 -2.7,2.1 -5.6,2.6 -8.6,1.5 z m 0.8,-1.8 c 2.5,0.8 5.2,-3.1 8.1,-11.7 2.8,-8.3 3,-12.9 0.5,-13.8 -2.5,-0.8 -5.2,3 -8.1,11.4 -2.8,8.6 -3,13.2 -0.5,14.1 z"
   id="path125" />
		<path
   d="m 320.2,490.7 0.4,-1.8 c 1.8,0.4 2.8,0.1 3,-1 l 0.6,-2.3 4,-17.3 0.5,-2.3 c 0.2,-1.1 -0.5,-1.8 -2.3,-2.2 l 0.4,-1.8 18.1,4.2 -1.2,5.1 -1.8,-0.4 0.1,-0.5 0.3,-1.3 c 0.2,-1 -0.5,-1.7 -2.2,-2 l -5.3,-1.2 -2.8,12 3.2,0.7 1.5,0.3 c 0.7,0.2 1.1,-0.2 1.3,-1.1 l 0.1,-0.6 1.8,0.4 -1.3,5.7 -1.8,-0.4 0.2,-0.7 c 0.2,-0.8 -0.1,-1.3 -0.7,-1.5 l -1.4,-0.4 -3.2,-0.7 -1.7,7.5 -0.4,2.3 c -0.2,1.1 0.5,1.8 2.2,2.2 l -0.4,1.8 z"
   id="path126" />
		<path
   d="m 376,499.3 -13.4,-21.1 -0.9,14 -0.1,2.4 c -0.1,1.1 0.8,1.7 2.6,1.8 l -0.1,1.9 -8.5,-0.5 0.1,-1.9 c 1.4,0.1 2.2,-0.1 2.5,-0.6 0.3,-0.5 0.5,-1.5 0.6,-3.3 l 1.1,-17.7 c 0.1,-1.7 0.1,-2.8 -0.2,-3.3 -0.2,-0.5 -1,-0.8 -2.4,-0.9 l 0.1,-1.9 5.7,0.4 13.4,21.1 0.9,-14.2 v -2.4 c 0.1,-1.1 -0.8,-1.7 -2.6,-1.8 l 0.1,-1.9 8.5,0.5 -0.1,1.9 c -1.8,-0.1 -2.7,0.4 -2.8,1.5 l -0.3,2.4 -1.5,23.8 z"
   id="path127" />
		<path
   d="m 386.2,499.3 -0.1,-1.9 c 1.8,-0.1 2.7,-0.7 2.6,-1.8 v -2.4 l -0.8,-17.7 -0.2,-2.4 c -0.1,-1.1 -1,-1.6 -2.8,-1.5 l -0.1,-1.9 18.6,-0.8 0.2,5.2 -1.9,0.1 v -0.5 l -0.1,-1.3 c 0,-1 -0.9,-1.5 -2.6,-1.4 l -5.5,0.2 0.5,11.1 3.2,-0.1 1.5,-0.1 c 0.7,0 1.1,-0.5 1,-1.3 v -0.7 l 1.9,-0.1 0.3,5.9 -1.9,0.1 v -0.7 c 0,-0.9 -0.4,-1.3 -1.2,-1.2 h -1.5 l -3.2,0.1 0.4,8.8 c 0.1,1.6 0.2,2.7 0.4,3.2 0.2,0.5 1.2,0.7 3.1,0.7 l 1.5,-0.1 2.2,-0.2 c 0.7,0 1.1,-0.2 1.2,-0.6 0.1,-0.4 0.1,-1.1 0.1,-2.4 V 493 l 2.1,-0.1 0.2,5.4 z"
   id="path128" />
		<path
   d="m 418.6,497.1 -10,-22.5 c -0.7,-1.5 -1.2,-2.6 -1.5,-3 -0.3,-0.5 -1,-0.6 -2,-0.4 l -0.3,-1.9 10.1,-1.8 0.3,1.9 -0.5,0.1 c -1.3,0.2 -1.9,0.6 -1.8,1.1 0.1,0.4 0.5,1.5 1.2,3.1 l 5.6,12.7 v 0 l 2.1,-19.5 2.6,-0.4 8.5,17.8 v 0 l 1,-14.1 0.1,-1.4 c 0,-1 0.1,-1.6 0,-1.7 -0.1,-0.6 -0.9,-0.8 -2.3,-0.6 l -0.3,-1.9 6.2,-1.1 0.3,1.9 c -1.2,0.2 -1.8,0.8 -1.9,1.9 l -0.2,2.6 -1.8,24.5 -2.1,0.4 -9.4,-19 -2,21 z"
   id="path129" />
		<path
   d="M 468.5,484.7 454,464.8 c -1,-1.4 -1.7,-2.2 -2.1,-2.6 -0.4,-0.4 -1.1,-0.4 -2.1,0 l -0.7,-1.7 9.5,-3.8 0.7,1.7 -0.4,0.2 c -1.2,0.5 -1.7,1 -1.5,1.5 0.2,0.4 0.8,1.3 1.8,2.8 l 8.2,11.2 v 0 l -2.1,-19.5 2.4,-1 12,15.7 v 0 l -1.9,-14 -0.2,-1.4 c -0.2,-1 -0.3,-1.6 -0.3,-1.7 -0.2,-0.6 -1,-0.6 -2.3,-0.1 l -0.7,-1.7 5.8,-2.4 0.7,1.7 c -1.1,0.5 -1.6,1.2 -1.5,2.2 l 0.3,2.6 3.4,24.3 -2,0.8 -13.2,-16.6 2.5,20.9 z"
   id="path130" />
		<path
   d="m 504.8,468.2 c -2.7,1.5 -5.6,1.6 -8.5,0 -3,-1.5 -5.6,-4.3 -8,-8.5 -2.4,-4.1 -3.4,-7.9 -3.2,-11.2 0.2,-3.3 1.7,-5.8 4.5,-7.3 2.8,-1.6 5.6,-1.6 8.6,-0.1 3,1.5 5.6,4.3 8,8.4 2.4,4.2 3.5,8 3.2,11.3 -0.2,3.3 -1.7,5.8 -4.6,7.4 z m -0.8,-1.9 c 2.3,-1.3 1.1,-5.9 -3.4,-13.9 -4.3,-7.6 -7.7,-10.8 -10,-9.5 -2.3,1.3 -1.2,5.8 3.2,13.6 4.5,7.9 7.9,11.2 10.2,9.8 z"
   id="path131" />
		<path
   d="m 517.8,459.8 -1.1,-1.5 c 1.5,-1.1 1.9,-2 1.2,-2.9 l -1.3,-2 -10.4,-14.4 -1.5,-1.9 c -0.6,-0.9 -1.7,-0.8 -3.1,0.2 l -1.1,-1.5 7,-5.1 0.9,-0.7 1.2,-1 1.3,-1 c 4.3,-3.1 7.9,-2.8 10.7,1.1 2.3,3.1 2.5,6.3 0.7,9.4 l 8.5,4.9 c 2,1.2 3.6,1.6 4.7,1.2 l 1.1,1.5 -5.4,3.9 -12.7,-7.4 -1.5,1.1 4.4,6.1 1.4,1.9 c 0.4,0.5 0.7,0.8 0.9,0.8 0.3,0 0.9,-0.2 1.9,-0.8 l 1.1,1.5 z m -9.1,-27.5 7.2,10 0.8,-0.5 c 3,-2.2 3.2,-5.1 0.6,-8.7 -2.2,-3 -4.6,-3.6 -7.3,-1.6 z"
   id="path132" />
		<path
   d="m 554.3,430.5 -15,13.4 -1.3,-1.4 c 1.3,-1.2 1.6,-2.2 0.9,-3 l -1.5,-1.8 -11.8,-13.2 -1.6,-1.7 c -0.7,-0.8 -1.8,-0.6 -3.1,0.6 l -1.3,-1.4 8.5,-7.6 1.3,1.4 c -1.3,1.2 -1.6,2.2 -0.9,3 l 1.5,1.8 11.8,13.2 c 1,1.1 1.7,1.7 2.1,1.9 0.5,0.2 1.4,-0.3 2.8,-1.6 l 1.9,-1.7 0.9,-0.9 c 0.9,-0.8 1,-1.6 0.3,-2.4 l -0.7,-0.9 -0.5,-0.5 1.8,-1.6 z"
   id="path133" />
		<path
   d="m 557.4,427.5 -1.4,-1.3 c 1.2,-1.3 1.4,-2.4 0.6,-3.1 l -1.7,-1.6 -13.1,-11.9 -1.8,-1.5 c -0.8,-0.7 -1.8,-0.4 -3,0.9 l -1.4,-1.3 8.5,-9.4 c 1.9,-2.1 4.4,-3 7.4,-2.5 3,0.5 6.1,2.2 9.4,5.1 3.4,3.1 5.6,6.2 6.5,9.4 0.9,3.2 0.4,5.8 -1.5,7.9 z m -14.6,-25 16.1,14.6 c 1.3,1.2 2.2,1.9 2.7,2 0.5,0.1 1,-0.1 1.6,-0.8 2.2,-2.4 -0.1,-6.7 -6.8,-12.8 -6,-5.4 -10.3,-6.7 -12.8,-3.9 z"
   id="path134" />
		<path
   d="m 575.1,406.9 -4.8,-3.6 1.3,-1.7 c 2.8,2.1 5.2,1.7 7.2,-1 1.7,-2.3 1.2,-4.5 -1.5,-6.5 -1.6,-1.2 -3.7,-1.3 -6.4,-0.3 l -1.9,0.7 c -4.6,1.8 -8.3,1.6 -11.2,-0.5 -2,-1.5 -3.2,-3.3 -3.5,-5.4 -0.3,-2.1 0.3,-4.2 1.8,-6.3 1.2,-1.6 2.9,-3.2 5.2,-4.8 l 4.3,3.2 -1.3,1.7 c -2.5,-1.9 -4.6,-1.7 -6.2,0.4 -1.6,2.1 -1.2,4.1 1.3,5.9 1.4,1 3.4,1.1 6.1,0.1 l 1.9,-0.7 c 4.8,-1.8 8.6,-1.6 11.4,0.5 2.2,1.6 3.4,3.6 3.7,6 0.3,2.4 -0.5,4.7 -2.2,7 -1.2,1.8 -3,3.5 -5.2,5.3 z"
   id="path135" />
	</g>
	<g
   id="g144">
		<g
   id="g143">
			<path
   class="st3"
   d="m 411.8,20.2 c -2.8,5.2 1,10.5 0.8,15.5 0.9,0.1 1.8,0.2 2.7,0.3 1.5,-4.4 6.3,-9.1 4.9,-14.8 -0.6,-2.3 -3.2,-3.4 -3.7,-5.9 -0.6,2.9 -3.6,2.9 -4.7,4.9 z m -12.2,12.5 c -0.1,2.3 2.9,4.8 0.1,7.2 5.7,1.6 3.7,-7.1 7.4,-7.3 3.2,-0.2 1.6,2.7 4.8,3 0.9,-6.8 -12.1,-11.6 -12.3,-2.9 z m 26.8,7.9 c 1.1,-2.1 3,-3.2 2.9,-6.8 -2.6,-5.1 -12,-3.7 -12.7,2.5 2.6,-0.3 3.4,-2.8 5.7,-1.7 2.8,1.3 -1.3,9.8 4.8,8.5 -0.6,-0.6 -0.6,-1.7 -0.7,-2.5 z M 409,39.4 c 3.9,0.5 5.9,1.2 9.1,1.1 0.4,-0.8 0.8,-1.6 1,-2.6 -2.9,-0.6 -12.4,-3.5 -10.1,1.5 z m -2.5,3.8 c 1.3,2.3 4.9,1 4.7,-2.2 -0.5,0 -0.7,-0.3 -1,-0.5 -0.6,1.8 -1.9,2.5 -3.7,2.7 z m 3.1,5.5 c 1.2,0.7 1.9,1.8 2.7,2.7 0.8,-0.9 1.7,-1.7 3,-2 -0.7,-2.3 -1.6,-4.5 -0.7,-8 -0.8,-0.1 -1.6,-0.2 -2.4,-0.3 -0.2,3.5 -1.2,5.8 -2.6,7.6 z m 6,-7.1 c -0.2,1.3 0.1,2.2 0.3,3.1 0.8,1.2 4.1,1.1 3.5,-0.3 -1.9,0.8 -1.6,-2.7 -3.8,-2.8 z"
   id="path136" />
			<path
   class="st4"
   d="m 416.5,15.3 c 0.5,2.6 3.1,3.6 3.7,5.9 1.4,5.7 -3.4,10.4 -4.9,14.8 -0.9,-0.1 -1.8,-0.2 -2.7,-0.3 0.3,-5.1 -3.6,-10.3 -0.8,-15.5 1.1,-2 4.1,-2 4.7,-4.9 z"
   id="path137" />
			<path
   class="st4"
   d="m 411.9,35.7 c -3.2,-0.3 -1.6,-3.2 -4.8,-3 -3.7,0.2 -1.7,8.9 -7.4,7.3 2.8,-2.4 -0.2,-4.9 -0.1,-7.2 0.2,-8.8 13.2,-4 12.3,2.9 z"
   id="path138" />
			<path
   class="st4"
   d="m 427.1,43 c -6,1.3 -2,-7.1 -4.8,-8.5 -2.2,-1.1 -3.1,1.3 -5.7,1.7 0.7,-6.2 10.1,-7.7 12.7,-2.5 0,3.6 -1.8,4.8 -2.9,6.8 0.1,0.9 0.1,2 0.7,2.5 z"
   id="path139" />
			<path
   class="st4"
   d="m 419.2,37.9 c -0.2,1 -0.6,1.9 -1,2.6 -3.2,0 -5.2,-0.6 -9.1,-1.1 -2.4,-5 7.1,-2.1 10.1,-1.5 z"
   id="path140" />
			<path
   class="st4"
   d="m 410.3,40.6 c 0.2,0.2 0.5,0.4 1,0.5 0.2,3.2 -3.4,4.4 -4.7,2.2 1.7,-0.3 3,-1 3.7,-2.7 z"
   id="path141" />
			<path
   class="st4"
   d="m 412.3,41.2 c 0.8,0.1 1.6,0.2 2.4,0.3 -0.9,3.5 0,5.7 0.7,8 -1.3,0.3 -2.2,1.1 -3,2 -0.9,-0.9 -1.5,-2.1 -2.7,-2.7 1.3,-1.9 2.3,-4.2 2.6,-7.6 z"
   id="path142" />
			<path
   class="st4"
   d="m 419.4,44.5 c 0.6,1.3 -2.6,1.4 -3.5,0.3 -0.2,-0.9 -0.5,-1.9 -0.3,-3.1 2.2,0 1.9,3.5 3.8,2.8 z"
   id="path143" />
		</g>
	</g>
</g></g>
</svg>
